<?xml version="1.0" encoding="UTF-8" standalone="no"?><svg xmlns="http://www.w3.org/2000/svg" xmlns:xlink="http://www.w3.org/1999/xlink" clip-rule="evenodd" stroke-miterlimit="4.00" viewBox="0 0 1024 768"><desc>SVG generated by Keynote</desc><defs></defs><g transform="matrix(1.00, 0.00, -0.00, -1.00, 0.0, 768.0)"><path d="M 0.0 768.0 L 1024.0 768.0 L 1024.0 0.0 L 0.0 0.0 Z M 0.0 768.0 " fill="#FEFFFF"></path><image xlink:href="../../8E061879-9A75-42C7-8D21-63A5DFE34E30/assets/8D5D3AF820427992616EBBB33C0F5B4F.png" width="458.00" height="90.00" transform="matrix(0.60, 0.00, -0.00, -0.60, 11.0, 67.0)"></image><text xml:space="preserve" font-family="Helvetica-Light" font-size="80.0" fill="#000000" transform="matrix(1.00, 0.00, -0.00, -1.00, 183.0, 618.0)">d</text><text xml:space="preserve" font-family="Helvetica-Light" font-size="80.0" fill="#000000" transform="matrix(1.00, 0.00, -0.00, -1.00, 231.9, 618.0)">a</text><text xml:space="preserve" font-family="Helvetica-Light" font-size="80.0" fill="#000000" transform="matrix(1.00, 0.00, -0.00, -1.00, 276.4, 618.0)">n</text><text xml:space="preserve" font-family="Helvetica-Light" font-size="80.0" fill="#000000" transform="matrix(1.00, 0.00, -0.00, -1.00, 320.8, 618.0)">s</text><text xml:space="preserve" font-family="Helvetica-Light" font-size="80.0" fill="#000000" transform="matrix(1.00, 0.00, -0.00, -1.00, 360.8, 618.0)"> </text><text xml:space="preserve" font-family="Helvetica-Light" font-size="80.0" fill="#000000" transform="matrix(1.00, 0.00, -0.00, -1.00, 383.1, 618.0)">l</text><text xml:space="preserve" font-family="Helvetica-Light" font-size="80.0" fill="#000000" transform="matrix(1.00, 0.00, -0.00, -1.00, 400.8, 618.0)">e</text><text xml:space="preserve" font-family="Helvetica-Light" font-size="80.0" fill="#000000" transform="matrix(1.00, 0.00, -0.00, -1.00, 445.3, 618.0)">s</text><text xml:space="preserve" font-family="Helvetica-Light" font-size="80.0" fill="#000000" transform="matrix(1.00, 0.00, -0.00, -1.00, 485.3, 618.0)"> </text><text xml:space="preserve" font-family="Helvetica-Light" font-size="80.0" fill="#000000" transform="matrix(1.00, 0.00, -0.00, -1.00, 507.6, 618.0)">c</text><text xml:space="preserve" font-family="Helvetica-Light" font-size="80.0" fill="#000000" transform="matrix(1.00, 0.00, -0.00, -1.00, 552.0, 618.0)">o</text><text xml:space="preserve" font-family="Helvetica-Light" font-size="80.0" fill="#000000" transform="matrix(1.00, 0.00, -0.00, -1.00, 596.5, 618.0)">u</text><text xml:space="preserve" font-family="Helvetica-Light" font-size="80.0" fill="#000000" transform="matrix(1.00, 0.00, -0.00, -1.00, 641.0, 618.0)">l</text><text xml:space="preserve" font-family="Helvetica-Light" font-size="80.0" fill="#000000" transform="matrix(1.00, 0.00, -0.00, -1.00, 658.8, 618.0)">i</text><text xml:space="preserve" font-family="Helvetica-Light" font-size="80.0" fill="#000000" transform="matrix(1.00, 0.00, -0.00, -1.00, 676.5, 618.0)">s</text><text xml:space="preserve" font-family="Helvetica-Light" font-size="80.0" fill="#000000" transform="matrix(1.00, 0.00, -0.00, -1.00, 716.5, 618.0)">s</text><text xml:space="preserve" font-family="Helvetica-Light" font-size="80.0" fill="#000000" transform="matrix(1.00, 0.00, -0.00, -1.00, 756.5, 618.0)">e</text><text xml:space="preserve" font-family="Helvetica-Light" font-size="80.0" fill="#000000" transform="matrix(1.00, 0.00, -0.00, -1.00, 801.0, 618.0)">s</text><text xml:space="preserve" font-family="Menlo-Regular" font-size="27.0" fill="#000000" transform="matrix(1.00, 0.00, -0.00, -1.00, 79.0, 430.0)">b</text><text xml:space="preserve" font-family="Menlo-Regular" font-size="27.0" fill="#000000" transform="matrix(1.00, 0.00, -0.00, -1.00, 95.3, 430.0)">a</text><text xml:space="preserve" font-family="Menlo-Regular" font-size="27.0" fill="#000000" transform="matrix(1.00, 0.00, -0.00, -1.00, 111.5, 430.0)">s</text><text xml:space="preserve" font-family="Menlo-Regular" font-size="27.0" fill="#000000" transform="matrix(1.00, 0.00, -0.00, -1.00, 127.8, 430.0)">e</text><text xml:space="preserve" font-family="Menlo-Regular" font-size="27.0" fill="#000000" transform="matrix(1.00, 0.00, -0.00, -1.00, 144.0, 430.0)">.</text><text xml:space="preserve" font-family="Menlo-Regular" font-size="27.0" fill="#000000" transform="matrix(1.00, 0.00, -0.00, -1.00, 160.3, 430.0)">c</text><text xml:space="preserve" font-family="Menlo-Regular" font-size="27.0" fill="#000000" transform="matrix(1.00, 0.00, -0.00, -1.00, 176.5, 430.0)">h</text><text xml:space="preserve" font-family="Menlo-Regular" font-size="27.0" fill="#000000" transform="matrix(1.00, 0.00, -0.00, -1.00, 192.8, 430.0)">i</text><text xml:space="preserve" font-family="Menlo-Regular" font-size="27.0" fill="#000000" transform="matrix(1.00, 0.00, -0.00, -1.00, 209.1, 430.0)">l</text><text xml:space="preserve" font-family="Menlo-Regular" font-size="27.0" fill="#000000" transform="matrix(1.00, 0.00, -0.00, -1.00, 225.3, 430.0)">d</text><text xml:space="preserve" font-family="Menlo-Regular" font-size="27.0" fill="#000000" transform="matrix(1.00, 0.00, -0.00, -1.00, 241.6, 430.0)">(</text><text xml:space="preserve" font-family="Menlo-Regular" font-size="27.0" fill="#C8352B" transform="matrix(1.00, 0.00, -0.00, -1.00, 257.8, 430.0)">'</text><text xml:space="preserve" font-family="Menlo-Regular" font-size="27.0" fill="#C8352B" transform="matrix(1.00, 0.00, -0.00, -1.00, 274.1, 430.0)">m</text><text xml:space="preserve" font-family="Menlo-Regular" font-size="27.0" fill="#C8352B" transform="matrix(1.00, 0.00, -0.00, -1.00, 290.3, 430.0)">e</text><text xml:space="preserve" font-family="Menlo-Regular" font-size="27.0" fill="#C8352B" transform="matrix(1.00, 0.00, -0.00, -1.00, 306.6, 430.0)">s</text><text xml:space="preserve" font-family="Menlo-Regular" font-size="27.0" fill="#C8352B" transform="matrix(1.00, 0.00, -0.00, -1.00, 322.8, 430.0)">s</text><text xml:space="preserve" font-family="Menlo-Regular" font-size="27.0" fill="#C8352B" transform="matrix(1.00, 0.00, -0.00, -1.00, 339.1, 430.0)">a</text><text xml:space="preserve" font-family="Menlo-Regular" font-size="27.0" fill="#C8352B" transform="matrix(1.00, 0.00, -0.00, -1.00, 355.4, 430.0)">g</text><text xml:space="preserve" font-family="Menlo-Regular" font-size="27.0" fill="#C8352B" transform="matrix(1.00, 0.00, -0.00, -1.00, 371.6, 430.0)">e</text><text xml:space="preserve" font-family="Menlo-Regular" font-size="27.0" fill="#C8352B" transform="matrix(1.00, 0.00, -0.00, -1.00, 387.9, 430.0)">s</text><text xml:space="preserve" font-family="Menlo-Regular" font-size="27.0" fill="#C8352B" transform="matrix(1.00, 0.00, -0.00, -1.00, 404.1, 430.0)">'</text><text xml:space="preserve" font-family="Menlo-Regular" font-size="27.0" fill="#000000" transform="matrix(1.00, 0.00, -0.00, -1.00, 420.4, 430.0)">)</text><text xml:space="preserve" font-family="Menlo-Regular" font-size="27.0" fill="#000000" transform="matrix(1.00, 0.00, -0.00, -1.00, 436.6, 430.0)">.</text><text xml:space="preserve" font-family="Menlo-Regular" font-size="27.0" fill="#000000" transform="matrix(1.00, 0.00, -0.00, -1.00, 452.9, 430.0)">p</text><text xml:space="preserve" font-family="Menlo-Regular" font-size="27.0" fill="#000000" transform="matrix(1.00, 0.00, -0.00, -1.00, 469.1, 430.0)">u</text><text xml:space="preserve" font-family="Menlo-Regular" font-size="27.0" fill="#000000" transform="matrix(1.00, 0.00, -0.00, -1.00, 485.4, 430.0)">s</text><text xml:space="preserve" font-family="Menlo-Regular" font-size="27.0" fill="#000000" transform="matrix(1.00, 0.00, -0.00, -1.00, 501.7, 430.0)">h</text><text xml:space="preserve" font-family="Menlo-Regular" font-size="27.0" fill="#000000" transform="matrix(1.00, 0.00, -0.00, -1.00, 517.9, 430.0)">(</text><text xml:space="preserve" font-family="Menlo-Regular" font-size="27.0" fill="#000000" transform="matrix(1.00, 0.00, -0.00, -1.00, 534.2, 430.0)">{</text><text xml:space="preserve" font-family="Menlo-Regular" font-size="27.0" fill="#000000" transform="matrix(1.00, 0.00, -0.00, -1.00, 550.4, 430.0)"> </text><text xml:space="preserve" font-family="Menlo-Regular" font-size="27.0" fill="#000000" transform="matrix(1.00, 0.00, -0.00, -1.00, 79.0, 399.0)"> </text><text xml:space="preserve" font-family="Menlo-Regular" font-size="27.0" fill="#000000" transform="matrix(1.00, 0.00, -0.00, -1.00, 95.3, 399.0)"> </text><text xml:space="preserve" font-family="Menlo-Regular" font-size="27.0" fill="#000000" transform="matrix(1.00, 0.00, -0.00, -1.00, 111.5, 399.0)">t</text><text xml:space="preserve" font-family="Menlo-Regular" font-size="27.0" fill="#000000" transform="matrix(1.00, 0.00, -0.00, -1.00, 127.8, 399.0)">i</text><text xml:space="preserve" font-family="Menlo-Regular" font-size="27.0" fill="#000000" transform="matrix(1.00, 0.00, -0.00, -1.00, 144.0, 399.0)">m</text><text xml:space="preserve" font-family="Menlo-Regular" font-size="27.0" fill="#000000" transform="matrix(1.00, 0.00, -0.00, -1.00, 160.3, 399.0)">e</text><text xml:space="preserve" font-family="Menlo-Regular" font-size="27.0" fill="#797979" transform="matrix(1.00, 0.00, -0.00, -1.00, 176.5, 399.0)">:</text><text xml:space="preserve" font-family="Menlo-Regular" font-size="27.0" fill="#000000" transform="matrix(1.00, 0.00, -0.00, -1.00, 192.8, 399.0)"> </text><text xml:space="preserve" font-family="Menlo-Bold" font-weight="bold" font-size="27.0" fill="#008E00" transform="matrix(1.00, 0.00, -0.00, -1.00, 209.0, 399.0)">n</text><text xml:space="preserve" font-family="Menlo-Bold" font-weight="bold" font-size="27.0" fill="#008E00" transform="matrix(1.00, 0.00, -0.00, -1.00, 225.3, 399.0)">e</text><text xml:space="preserve" font-family="Menlo-Bold" font-weight="bold" font-size="27.0" fill="#008E00" transform="matrix(1.00, 0.00, -0.00, -1.00, 241.6, 399.0)">w</text><text xml:space="preserve" font-family="Menlo-Regular" font-size="27.0" fill="#000000" transform="matrix(1.00, 0.00, -0.00, -1.00, 257.8, 399.0)"> </text><text xml:space="preserve" font-family="Menlo-Regular" font-size="27.0" fill="#008E00" transform="matrix(1.00, 0.00, -0.00, -1.00, 274.1, 399.0)">D</text><text xml:space="preserve" font-family="Menlo-Regular" font-size="27.0" fill="#008E00" transform="matrix(1.00, 0.00, -0.00, -1.00, 290.3, 399.0)">a</text><text xml:space="preserve" font-family="Menlo-Regular" font-size="27.0" fill="#008E00" transform="matrix(1.00, 0.00, -0.00, -1.00, 306.6, 399.0)">t</text><text xml:space="preserve" font-family="Menlo-Regular" font-size="27.0" fill="#008E00" transform="matrix(1.00, 0.00, -0.00, -1.00, 322.8, 399.0)">e</text><text xml:space="preserve" font-family="Menlo-Regular" font-size="27.0" fill="#000000" transform="matrix(1.00, 0.00, -0.00, -1.00, 339.1, 399.0)">(</text><text xml:space="preserve" font-family="Menlo-Regular" font-size="27.0" fill="#000000" transform="matrix(1.00, 0.00, -0.00, -1.00, 355.3, 399.0)">)</text><text xml:space="preserve" font-family="Menlo-Regular" font-size="27.0" fill="#000000" transform="matrix(1.00, 0.00, -0.00, -1.00, 371.6, 399.0)">.</text><text xml:space="preserve" font-family="Menlo-Regular" font-size="27.0" fill="#000000" transform="matrix(1.00, 0.00, -0.00, -1.00, 387.9, 399.0)">g</text><text xml:space="preserve" font-family="Menlo-Regular" font-size="27.0" fill="#000000" transform="matrix(1.00, 0.00, -0.00, -1.00, 404.1, 399.0)">e</text><text xml:space="preserve" font-family="Menlo-Regular" font-size="27.0" fill="#000000" transform="matrix(1.00, 0.00, -0.00, -1.00, 420.4, 399.0)">t</text><text xml:space="preserve" font-family="Menlo-Regular" font-size="27.0" fill="#000000" transform="matrix(1.00, 0.00, -0.00, -1.00, 436.6, 399.0)">T</text><text xml:space="preserve" font-family="Menlo-Regular" font-size="27.0" fill="#000000" transform="matrix(1.00, 0.00, -0.00, -1.00, 452.9, 399.0)">i</text><text xml:space="preserve" font-family="Menlo-Regular" font-size="27.0" fill="#000000" transform="matrix(1.00, 0.00, -0.00, -1.00, 469.2, 399.0)">m</text><text xml:space="preserve" font-family="Menlo-Regular" font-size="27.0" fill="#000000" transform="matrix(1.00, 0.00, -0.00, -1.00, 485.4, 399.0)">e</text><text xml:space="preserve" font-family="Menlo-Regular" font-size="27.0" fill="#000000" transform="matrix(1.00, 0.00, -0.00, -1.00, 501.7, 399.0)">(</text><text xml:space="preserve" font-family="Menlo-Regular" font-size="27.0" fill="#000000" transform="matrix(1.00, 0.00, -0.00, -1.00, 517.9, 399.0)">)</text><text xml:space="preserve" font-family="Menlo-Regular" font-size="27.0" fill="#000000" transform="matrix(1.00, 0.00, -0.00, -1.00, 534.2, 399.0)">,</text><text xml:space="preserve" font-family="Menlo-Regular" font-size="27.0" fill="#000000" transform="matrix(1.00, 0.00, -0.00, -1.00, 550.4, 399.0)"> </text><text xml:space="preserve" font-family="Menlo-Regular" font-size="27.0" fill="#000000" transform="matrix(1.00, 0.00, -0.00, -1.00, 79.0, 368.0)"> </text><text xml:space="preserve" font-family="Menlo-Regular" font-size="27.0" fill="#000000" transform="matrix(1.00, 0.00, -0.00, -1.00, 95.3, 368.0)"> </text><text xml:space="preserve" font-family="Menlo-Regular" font-size="27.0" fill="#000000" transform="matrix(1.00, 0.00, -0.00, -1.00, 111.5, 368.0)">u</text><text xml:space="preserve" font-family="Menlo-Regular" font-size="27.0" fill="#000000" transform="matrix(1.00, 0.00, -0.00, -1.00, 127.8, 368.0)">s</text><text xml:space="preserve" font-family="Menlo-Regular" font-size="27.0" fill="#000000" transform="matrix(1.00, 0.00, -0.00, -1.00, 144.0, 368.0)">e</text><text xml:space="preserve" font-family="Menlo-Regular" font-size="27.0" fill="#000000" transform="matrix(1.00, 0.00, -0.00, -1.00, 160.3, 368.0)">r</text><text xml:space="preserve" font-family="Menlo-Regular" font-size="27.0" fill="#797979" transform="matrix(1.00, 0.00, -0.00, -1.00, 176.5, 368.0)">:</text><text xml:space="preserve" font-family="Menlo-Regular" font-size="27.0" fill="#000000" transform="matrix(1.00, 0.00, -0.00, -1.00, 192.8, 368.0)"> </text><text xml:space="preserve" font-family="Menlo-Regular" font-size="27.0" fill="#000000" transform="matrix(1.00, 0.00, -0.00, -1.00, 209.0, 368.0)">{</text><text xml:space="preserve" font-family="Menlo-Regular" font-size="27.0" fill="#000000" transform="matrix(1.00, 0.00, -0.00, -1.00, 225.3, 368.0)"> </text><text xml:space="preserve" font-family="Menlo-Regular" font-size="27.0" fill="#000000" transform="matrix(1.00, 0.00, -0.00, -1.00, 79.0, 337.0)"> </text><text xml:space="preserve" font-family="Menlo-Regular" font-size="27.0" fill="#000000" transform="matrix(1.00, 0.00, -0.00, -1.00, 95.3, 337.0)"> </text><text xml:space="preserve" font-family="Menlo-Regular" font-size="27.0" fill="#000000" transform="matrix(1.00, 0.00, -0.00, -1.00, 111.5, 337.0)"> </text><text xml:space="preserve" font-family="Menlo-Regular" font-size="27.0" fill="#000000" transform="matrix(1.00, 0.00, -0.00, -1.00, 127.8, 337.0)"> </text><text xml:space="preserve" font-family="Menlo-Regular" font-size="27.0" fill="#000000" transform="matrix(1.00, 0.00, -0.00, -1.00, 144.0, 337.0)">n</text><text xml:space="preserve" font-family="Menlo-Regular" font-size="27.0" fill="#000000" transform="matrix(1.00, 0.00, -0.00, -1.00, 160.3, 337.0)">a</text><text xml:space="preserve" font-family="Menlo-Regular" font-size="27.0" fill="#000000" transform="matrix(1.00, 0.00, -0.00, -1.00, 176.5, 337.0)">m</text><text xml:space="preserve" font-family="Menlo-Regular" font-size="27.0" fill="#000000" transform="matrix(1.00, 0.00, -0.00, -1.00, 192.8, 337.0)">e</text><text xml:space="preserve" font-family="Menlo-Regular" font-size="27.0" fill="#797979" transform="matrix(1.00, 0.00, -0.00, -1.00, 209.0, 337.0)">:</text><text xml:space="preserve" font-family="Menlo-Regular" font-size="27.0" fill="#000000" transform="matrix(1.00, 0.00, -0.00, -1.00, 225.3, 337.0)"> </text><text xml:space="preserve" font-family="Menlo-Regular" font-size="27.0" fill="#000000" transform="matrix(1.00, 0.00, -0.00, -1.00, 241.6, 337.0)">a</text><text xml:space="preserve" font-family="Menlo-Regular" font-size="27.0" fill="#000000" transform="matrix(1.00, 0.00, -0.00, -1.00, 257.8, 337.0)">u</text><text xml:space="preserve" font-family="Menlo-Regular" font-size="27.0" fill="#000000" transform="matrix(1.00, 0.00, -0.00, -1.00, 274.1, 337.0)">t</text><text xml:space="preserve" font-family="Menlo-Regular" font-size="27.0" fill="#000000" transform="matrix(1.00, 0.00, -0.00, -1.00, 290.3, 337.0)">h</text><text xml:space="preserve" font-family="Menlo-Regular" font-size="27.0" fill="#000000" transform="matrix(1.00, 0.00, -0.00, -1.00, 306.6, 337.0)">.</text><text xml:space="preserve" font-family="Menlo-Regular" font-size="27.0" fill="#000000" transform="matrix(1.00, 0.00, -0.00, -1.00, 322.8, 337.0)">f</text><text xml:space="preserve" font-family="Menlo-Regular" font-size="27.0" fill="#000000" transform="matrix(1.00, 0.00, -0.00, -1.00, 339.1, 337.0)">a</text><text xml:space="preserve" font-family="Menlo-Regular" font-size="27.0" fill="#000000" transform="matrix(1.00, 0.00, -0.00, -1.00, 355.4, 337.0)">c</text><text xml:space="preserve" font-family="Menlo-Regular" font-size="27.0" fill="#000000" transform="matrix(1.00, 0.00, -0.00, -1.00, 371.6, 337.0)">e</text><text xml:space="preserve" font-family="Menlo-Regular" font-size="27.0" fill="#000000" transform="matrix(1.00, 0.00, -0.00, -1.00, 387.9, 337.0)">b</text><text xml:space="preserve" font-family="Menlo-Regular" font-size="27.0" fill="#000000" transform="matrix(1.00, 0.00, -0.00, -1.00, 404.1, 337.0)">o</text><text xml:space="preserve" font-family="Menlo-Regular" font-size="27.0" fill="#000000" transform="matrix(1.00, 0.00, -0.00, -1.00, 420.4, 337.0)">o</text><text xml:space="preserve" font-family="Menlo-Regular" font-size="27.0" fill="#000000" transform="matrix(1.00, 0.00, -0.00, -1.00, 436.7, 337.0)">k</text><text xml:space="preserve" font-family="Menlo-Regular" font-size="27.0" fill="#000000" transform="matrix(1.00, 0.00, -0.00, -1.00, 452.9, 337.0)">.</text><text xml:space="preserve" font-family="Menlo-Regular" font-size="27.0" fill="#000000" transform="matrix(1.00, 0.00, -0.00, -1.00, 469.2, 337.0)">d</text><text xml:space="preserve" font-family="Menlo-Regular" font-size="27.0" fill="#000000" transform="matrix(1.00, 0.00, -0.00, -1.00, 485.4, 337.0)">i</text><text xml:space="preserve" font-family="Menlo-Regular" font-size="27.0" fill="#000000" transform="matrix(1.00, 0.00, -0.00, -1.00, 501.7, 337.0)">s</text><text xml:space="preserve" font-family="Menlo-Regular" font-size="27.0" fill="#000000" transform="matrix(1.00, 0.00, -0.00, -1.00, 517.9, 337.0)">p</text><text xml:space="preserve" font-family="Menlo-Regular" font-size="27.0" fill="#000000" transform="matrix(1.00, 0.00, -0.00, -1.00, 534.2, 337.0)">l</text><text xml:space="preserve" font-family="Menlo-Regular" font-size="27.0" fill="#000000" transform="matrix(1.00, 0.00, -0.00, -1.00, 550.5, 337.0)">a</text><text xml:space="preserve" font-family="Menlo-Regular" font-size="27.0" fill="#000000" transform="matrix(1.00, 0.00, -0.00, -1.00, 566.7, 337.0)">y</text><text xml:space="preserve" font-family="Menlo-Regular" font-size="27.0" fill="#000000" transform="matrix(1.00, 0.00, -0.00, -1.00, 583.0, 337.0)">N</text><text xml:space="preserve" font-family="Menlo-Regular" font-size="27.0" fill="#000000" transform="matrix(1.00, 0.00, -0.00, -1.00, 599.2, 337.0)">a</text><text xml:space="preserve" font-family="Menlo-Regular" font-size="27.0" fill="#000000" transform="matrix(1.00, 0.00, -0.00, -1.00, 615.5, 337.0)">m</text><text xml:space="preserve" font-family="Menlo-Regular" font-size="27.0" fill="#000000" transform="matrix(1.00, 0.00, -0.00, -1.00, 631.8, 337.0)">e</text><text xml:space="preserve" font-family="Menlo-Regular" font-size="27.0" fill="#000000" transform="matrix(1.00, 0.00, -0.00, -1.00, 648.0, 337.0)">,</text><text xml:space="preserve" font-family="Menlo-Regular" font-size="27.0" fill="#000000" transform="matrix(1.00, 0.00, -0.00, -1.00, 664.3, 337.0)"> </text><text xml:space="preserve" font-family="Menlo-Regular" font-size="27.0" fill="#000000" transform="matrix(1.00, 0.00, -0.00, -1.00, 79.0, 306.0)"> </text><text xml:space="preserve" font-family="Menlo-Regular" font-size="27.0" fill="#000000" transform="matrix(1.00, 0.00, -0.00, -1.00, 95.3, 306.0)"> </text><text xml:space="preserve" font-family="Menlo-Regular" font-size="27.0" fill="#000000" transform="matrix(1.00, 0.00, -0.00, -1.00, 111.5, 306.0)"> </text><text xml:space="preserve" font-family="Menlo-Regular" font-size="27.0" fill="#000000" transform="matrix(1.00, 0.00, -0.00, -1.00, 127.8, 306.0)"> </text><text xml:space="preserve" font-family="Menlo-Regular" font-size="27.0" fill="#000000" transform="matrix(1.00, 0.00, -0.00, -1.00, 144.0, 306.0)">i</text><text xml:space="preserve" font-family="Menlo-Regular" font-size="27.0" fill="#000000" transform="matrix(1.00, 0.00, -0.00, -1.00, 160.3, 306.0)">m</text><text xml:space="preserve" font-family="Menlo-Regular" font-size="27.0" fill="#000000" transform="matrix(1.00, 0.00, -0.00, -1.00, 176.5, 306.0)">g</text><text xml:space="preserve" font-family="Menlo-Regular" font-size="27.0" fill="#797979" transform="matrix(1.00, 0.00, -0.00, -1.00, 192.8, 306.0)">:</text><text xml:space="preserve" font-family="Menlo-Regular" font-size="27.0" fill="#000000" transform="matrix(1.00, 0.00, -0.00, -1.00, 209.0, 306.0)"> </text><text xml:space="preserve" font-family="Menlo-Regular" font-size="27.0" fill="#000000" transform="matrix(1.00, 0.00, -0.00, -1.00, 225.3, 306.0)">a</text><text xml:space="preserve" font-family="Menlo-Regular" font-size="27.0" fill="#000000" transform="matrix(1.00, 0.00, -0.00, -1.00, 241.6, 306.0)">u</text><text xml:space="preserve" font-family="Menlo-Regular" font-size="27.0" fill="#000000" transform="matrix(1.00, 0.00, -0.00, -1.00, 257.8, 306.0)">t</text><text xml:space="preserve" font-family="Menlo-Regular" font-size="27.0" fill="#000000" transform="matrix(1.00, 0.00, -0.00, -1.00, 274.1, 306.0)">h</text><text xml:space="preserve" font-family="Menlo-Regular" font-size="27.0" fill="#000000" transform="matrix(1.00, 0.00, -0.00, -1.00, 290.3, 306.0)">.</text><text xml:space="preserve" font-family="Menlo-Regular" font-size="27.0" fill="#000000" transform="matrix(1.00, 0.00, -0.00, -1.00, 306.6, 306.0)">f</text><text xml:space="preserve" font-family="Menlo-Regular" font-size="27.0" fill="#000000" transform="matrix(1.00, 0.00, -0.00, -1.00, 322.8, 306.0)">a</text><text xml:space="preserve" font-family="Menlo-Regular" font-size="27.0" fill="#000000" transform="matrix(1.00, 0.00, -0.00, -1.00, 339.1, 306.0)">c</text><text xml:space="preserve" font-family="Menlo-Regular" font-size="27.0" fill="#000000" transform="matrix(1.00, 0.00, -0.00, -1.00, 355.4, 306.0)">e</text><text xml:space="preserve" font-family="Menlo-Regular" font-size="27.0" fill="#000000" transform="matrix(1.00, 0.00, -0.00, -1.00, 371.6, 306.0)">b</text><text xml:space="preserve" font-family="Menlo-Regular" font-size="27.0" fill="#000000" transform="matrix(1.00, 0.00, -0.00, -1.00, 387.9, 306.0)">o</text><text xml:space="preserve" font-family="Menlo-Regular" font-size="27.0" fill="#000000" transform="matrix(1.00, 0.00, -0.00, -1.00, 404.1, 306.0)">o</text><text xml:space="preserve" font-family="Menlo-Regular" font-size="27.0" fill="#000000" transform="matrix(1.00, 0.00, -0.00, -1.00, 420.4, 306.0)">k</text><text xml:space="preserve" font-family="Menlo-Regular" font-size="27.0" fill="#000000" transform="matrix(1.00, 0.00, -0.00, -1.00, 436.7, 306.0)">.</text><text xml:space="preserve" font-family="Menlo-Regular" font-size="27.0" fill="#000000" transform="matrix(1.00, 0.00, -0.00, -1.00, 452.9, 306.0)">p</text><text xml:space="preserve" font-family="Menlo-Regular" font-size="27.0" fill="#000000" transform="matrix(1.00, 0.00, -0.00, -1.00, 469.2, 306.0)">r</text><text xml:space="preserve" font-family="Menlo-Regular" font-size="27.0" fill="#000000" transform="matrix(1.00, 0.00, -0.00, -1.00, 485.4, 306.0)">o</text><text xml:space="preserve" font-family="Menlo-Regular" font-size="27.0" fill="#000000" transform="matrix(1.00, 0.00, -0.00, -1.00, 501.7, 306.0)">f</text><text xml:space="preserve" font-family="Menlo-Regular" font-size="27.0" fill="#000000" transform="matrix(1.00, 0.00, -0.00, -1.00, 517.9, 306.0)">i</text><text xml:space="preserve" font-family="Menlo-Regular" font-size="27.0" fill="#000000" transform="matrix(1.00, 0.00, -0.00, -1.00, 534.2, 306.0)">l</text><text xml:space="preserve" font-family="Menlo-Regular" font-size="27.0" fill="#000000" transform="matrix(1.00, 0.00, -0.00, -1.00, 550.5, 306.0)">e</text><text xml:space="preserve" font-family="Menlo-Regular" font-size="27.0" fill="#000000" transform="matrix(1.00, 0.00, -0.00, -1.00, 566.7, 306.0)">I</text><text xml:space="preserve" font-family="Menlo-Regular" font-size="27.0" fill="#000000" transform="matrix(1.00, 0.00, -0.00, -1.00, 583.0, 306.0)">m</text><text xml:space="preserve" font-family="Menlo-Regular" font-size="27.0" fill="#000000" transform="matrix(1.00, 0.00, -0.00, -1.00, 599.2, 306.0)">a</text><text xml:space="preserve" font-family="Menlo-Regular" font-size="27.0" fill="#000000" transform="matrix(1.00, 0.00, -0.00, -1.00, 615.5, 306.0)">g</text><text xml:space="preserve" font-family="Menlo-Regular" font-size="27.0" fill="#000000" transform="matrix(1.00, 0.00, -0.00, -1.00, 631.8, 306.0)">e</text><text xml:space="preserve" font-family="Menlo-Regular" font-size="27.0" fill="#000000" transform="matrix(1.00, 0.00, -0.00, -1.00, 648.0, 306.0)">U</text><text xml:space="preserve" font-family="Menlo-Regular" font-size="27.0" fill="#000000" transform="matrix(1.00, 0.00, -0.00, -1.00, 664.3, 306.0)">R</text><text xml:space="preserve" font-family="Menlo-Regular" font-size="27.0" fill="#000000" transform="matrix(1.00, 0.00, -0.00, -1.00, 680.5, 306.0)">L</text><text xml:space="preserve" font-family="Menlo-Regular" font-size="27.0" fill="#000000" transform="matrix(1.00, 0.00, -0.00, -1.00, 696.8, 306.0)"> </text><text xml:space="preserve" font-family="Menlo-Regular" font-size="27.0" fill="#000000" transform="matrix(1.00, 0.00, -0.00, -1.00, 79.0, 275.0)"> </text><text xml:space="preserve" font-family="Menlo-Regular" font-size="27.0" fill="#000000" transform="matrix(1.00, 0.00, -0.00, -1.00, 95.3, 275.0)"> </text><text xml:space="preserve" font-family="Menlo-Regular" font-size="27.0" fill="#000000" transform="matrix(1.00, 0.00, -0.00, -1.00, 111.5, 275.0)">}</text><text xml:space="preserve" font-family="Menlo-Regular" font-size="27.0" fill="#000000" transform="matrix(1.00, 0.00, -0.00, -1.00, 127.8, 275.0)">,</text><text xml:space="preserve" font-family="Menlo-Regular" font-size="27.0" fill="#000000" transform="matrix(1.00, 0.00, -0.00, -1.00, 144.0, 275.0)"> </text><text xml:space="preserve" font-family="Menlo-Regular" font-size="27.0" fill="#000000" transform="matrix(1.00, 0.00, -0.00, -1.00, 79.0, 244.0)"> </text><text xml:space="preserve" font-family="Menlo-Regular" font-size="27.0" fill="#000000" transform="matrix(1.00, 0.00, -0.00, -1.00, 95.3, 244.0)"> </text><text xml:space="preserve" font-family="Menlo-Regular" font-size="27.0" fill="#000000" transform="matrix(1.00, 0.00, -0.00, -1.00, 111.5, 244.0)">m</text><text xml:space="preserve" font-family="Menlo-Regular" font-size="27.0" fill="#000000" transform="matrix(1.00, 0.00, -0.00, -1.00, 127.8, 244.0)">e</text><text xml:space="preserve" font-family="Menlo-Regular" font-size="27.0" fill="#000000" transform="matrix(1.00, 0.00, -0.00, -1.00, 144.0, 244.0)">s</text><text xml:space="preserve" font-family="Menlo-Regular" font-size="27.0" fill="#000000" transform="matrix(1.00, 0.00, -0.00, -1.00, 160.3, 244.0)">s</text><text xml:space="preserve" font-family="Menlo-Regular" font-size="27.0" fill="#000000" transform="matrix(1.00, 0.00, -0.00, -1.00, 176.5, 244.0)">a</text><text xml:space="preserve" font-family="Menlo-Regular" font-size="27.0" fill="#000000" transform="matrix(1.00, 0.00, -0.00, -1.00, 192.8, 244.0)">g</text><text xml:space="preserve" font-family="Menlo-Regular" font-size="27.0" fill="#000000" transform="matrix(1.00, 0.00, -0.00, -1.00, 209.1, 244.0)">e</text><text xml:space="preserve" font-family="Menlo-Regular" font-size="27.0" fill="#797979" transform="matrix(1.00, 0.00, -0.00, -1.00, 225.3, 244.0)">:</text><text xml:space="preserve" font-family="Menlo-Regular" font-size="27.0" fill="#000000" transform="matrix(1.00, 0.00, -0.00, -1.00, 241.6, 244.0)"> </text><text xml:space="preserve" font-family="Menlo-Regular" font-size="27.0" fill="#008E00" transform="matrix(1.00, 0.00, -0.00, -1.00, 257.8, 244.0)">d</text><text xml:space="preserve" font-family="Menlo-Regular" font-size="27.0" fill="#008E00" transform="matrix(1.00, 0.00, -0.00, -1.00, 274.1, 244.0)">o</text><text xml:space="preserve" font-family="Menlo-Regular" font-size="27.0" fill="#008E00" transform="matrix(1.00, 0.00, -0.00, -1.00, 290.3, 244.0)">c</text><text xml:space="preserve" font-family="Menlo-Regular" font-size="27.0" fill="#008E00" transform="matrix(1.00, 0.00, -0.00, -1.00, 306.6, 244.0)">u</text><text xml:space="preserve" font-family="Menlo-Regular" font-size="27.0" fill="#008E00" transform="matrix(1.00, 0.00, -0.00, -1.00, 322.8, 244.0)">m</text><text xml:space="preserve" font-family="Menlo-Regular" font-size="27.0" fill="#008E00" transform="matrix(1.00, 0.00, -0.00, -1.00, 339.1, 244.0)">e</text><text xml:space="preserve" font-family="Menlo-Regular" font-size="27.0" fill="#008E00" transform="matrix(1.00, 0.00, -0.00, -1.00, 355.4, 244.0)">n</text><text xml:space="preserve" font-family="Menlo-Regular" font-size="27.0" fill="#008E00" transform="matrix(1.00, 0.00, -0.00, -1.00, 371.6, 244.0)">t</text><text xml:space="preserve" font-family="Menlo-Regular" font-size="27.0" fill="#000000" transform="matrix(1.00, 0.00, -0.00, -1.00, 387.9, 244.0)">.</text><text xml:space="preserve" font-family="Menlo-Regular" font-size="27.0" fill="#000000" transform="matrix(1.00, 0.00, -0.00, -1.00, 404.1, 244.0)">g</text><text xml:space="preserve" font-family="Menlo-Regular" font-size="27.0" fill="#000000" transform="matrix(1.00, 0.00, -0.00, -1.00, 420.4, 244.0)">e</text><text xml:space="preserve" font-family="Menlo-Regular" font-size="27.0" fill="#000000" transform="matrix(1.00, 0.00, -0.00, -1.00, 436.6, 244.0)">t</text><text xml:space="preserve" font-family="Menlo-Regular" font-size="27.0" fill="#000000" transform="matrix(1.00, 0.00, -0.00, -1.00, 452.9, 244.0)">E</text><text xml:space="preserve" font-family="Menlo-Regular" font-size="27.0" fill="#000000" transform="matrix(1.00, 0.00, -0.00, -1.00, 469.1, 244.0)">l</text><text xml:space="preserve" font-family="Menlo-Regular" font-size="27.0" fill="#000000" transform="matrix(1.00, 0.00, -0.00, -1.00, 485.4, 244.0)">e</text><text xml:space="preserve" font-family="Menlo-Regular" font-size="27.0" fill="#000000" transform="matrix(1.00, 0.00, -0.00, -1.00, 501.7, 244.0)">m</text><text xml:space="preserve" font-family="Menlo-Regular" font-size="27.0" fill="#000000" transform="matrix(1.00, 0.00, -0.00, -1.00, 517.9, 244.0)">e</text><text xml:space="preserve" font-family="Menlo-Regular" font-size="27.0" fill="#000000" transform="matrix(1.00, 0.00, -0.00, -1.00, 534.2, 244.0)">n</text><text xml:space="preserve" font-family="Menlo-Regular" font-size="27.0" fill="#000000" transform="matrix(1.00, 0.00, -0.00, -1.00, 550.4, 244.0)">t</text><text xml:space="preserve" font-family="Menlo-Regular" font-size="27.0" fill="#000000" transform="matrix(1.00, 0.00, -0.00, -1.00, 566.7, 244.0)">B</text><text xml:space="preserve" font-family="Menlo-Regular" font-size="27.0" fill="#000000" transform="matrix(1.00, 0.00, -0.00, -1.00, 582.9, 244.0)">y</text><text xml:space="preserve" font-family="Menlo-Regular" font-size="27.0" fill="#000000" transform="matrix(1.00, 0.00, -0.00, -1.00, 599.2, 244.0)">I</text><text xml:space="preserve" font-family="Menlo-Regular" font-size="27.0" fill="#000000" transform="matrix(1.00, 0.00, -0.00, -1.00, 615.5, 244.0)">d</text><text xml:space="preserve" font-family="Menlo-Regular" font-size="27.0" fill="#000000" transform="matrix(1.00, 0.00, -0.00, -1.00, 631.7, 244.0)">(</text><text xml:space="preserve" font-family="Menlo-Regular" font-size="27.0" fill="#C8352B" transform="matrix(1.00, 0.00, -0.00, -1.00, 647.9, 244.0)">'</text><text xml:space="preserve" font-family="Menlo-Regular" font-size="27.0" fill="#C8352B" transform="matrix(1.00, 0.00, -0.00, -1.00, 664.2, 244.0)">m</text><text xml:space="preserve" font-family="Menlo-Regular" font-size="27.0" fill="#C8352B" transform="matrix(1.00, 0.00, -0.00, -1.00, 680.5, 244.0)">e</text><text xml:space="preserve" font-family="Menlo-Regular" font-size="27.0" fill="#C8352B" transform="matrix(1.00, 0.00, -0.00, -1.00, 696.7, 244.0)">s</text><text xml:space="preserve" font-family="Menlo-Regular" font-size="27.0" fill="#C8352B" transform="matrix(1.00, 0.00, -0.00, -1.00, 713.0, 244.0)">s</text><text xml:space="preserve" font-family="Menlo-Regular" font-size="27.0" fill="#C8352B" transform="matrix(1.00, 0.00, -0.00, -1.00, 729.2, 244.0)">a</text><text xml:space="preserve" font-family="Menlo-Regular" font-size="27.0" fill="#C8352B" transform="matrix(1.00, 0.00, -0.00, -1.00, 745.5, 244.0)">g</text><text xml:space="preserve" font-family="Menlo-Regular" font-size="27.0" fill="#C8352B" transform="matrix(1.00, 0.00, -0.00, -1.00, 761.7, 244.0)">e</text><text xml:space="preserve" font-family="Menlo-Regular" font-size="27.0" fill="#C8352B" transform="matrix(1.00, 0.00, -0.00, -1.00, 778.0, 244.0)">'</text><text xml:space="preserve" font-family="Menlo-Regular" font-size="27.0" fill="#000000" transform="matrix(1.00, 0.00, -0.00, -1.00, 794.2, 244.0)">)</text><text xml:space="preserve" font-family="Menlo-Regular" font-size="27.0" fill="#000000" transform="matrix(1.00, 0.00, -0.00, -1.00, 810.5, 244.0)">.</text><text xml:space="preserve" font-family="Menlo-Regular" font-size="27.0" fill="#000000" transform="matrix(1.00, 0.00, -0.00, -1.00, 826.8, 244.0)">v</text><text xml:space="preserve" font-family="Menlo-Regular" font-size="27.0" fill="#000000" transform="matrix(1.00, 0.00, -0.00, -1.00, 843.0, 244.0)">a</text><text xml:space="preserve" font-family="Menlo-Regular" font-size="27.0" fill="#000000" transform="matrix(1.00, 0.00, -0.00, -1.00, 859.3, 244.0)">l</text><text xml:space="preserve" font-family="Menlo-Regular" font-size="27.0" fill="#000000" transform="matrix(1.00, 0.00, -0.00, -1.00, 875.5, 244.0)">u</text><text xml:space="preserve" font-family="Menlo-Regular" font-size="27.0" fill="#000000" transform="matrix(1.00, 0.00, -0.00, -1.00, 891.8, 244.0)">e</text><text xml:space="preserve" font-family="Menlo-Regular" font-size="27.0" fill="#000000" transform="matrix(1.00, 0.00, -0.00, -1.00, 908.0, 244.0)"> </text><text xml:space="preserve" font-family="Menlo-Regular" font-size="27.0" fill="#000000" transform="matrix(1.00, 0.00, -0.00, -1.00, 79.0, 213.0)">}</text><text xml:space="preserve" font-family="Menlo-Regular" font-size="27.0" fill="#000000" transform="matrix(1.00, 0.00, -0.00, -1.00, 95.3, 213.0)">)</text><text xml:space="preserve" font-family="Menlo-Regular" font-size="27.0" fill="#000000" transform="matrix(1.00, 0.00, -0.00, -1.00, 111.5, 213.0)">;</text><text xml:space="preserve" font-family="Menlo-Regular" font-size="27.0" fill="#000000" transform="matrix(1.00, 0.00, -0.00, -1.00, 127.8, 213.0)"> </text></g></svg>