<?xml version="1.0" encoding="UTF-8" standalone="no"?><svg xmlns="http://www.w3.org/2000/svg" xmlns:xlink="http://www.w3.org/1999/xlink" clip-rule="evenodd" stroke-miterlimit="4.00" viewBox="0 0 1024 768"><desc>SVG generated by Keynote</desc><defs></defs><g transform="matrix(1.00, 0.00, -0.00, -1.00, 0.0, 768.0)"><path d="M 0.0 768.0 L 1024.0 768.0 L 1024.0 0.0 L 0.0 0.0 Z M 0.0 768.0 " fill="#000000"></path><text xml:space="preserve" font-family="Helvetica-Light" font-size="80.0" fill="#FEFFFF" transform="matrix(1.00, 0.00, -0.00, -1.00, 178.0, 633.0)">B</text><text xml:space="preserve" font-family="Helvetica-Light" font-size="80.0" fill="#FEFFFF" transform="matrix(1.00, 0.00, -0.00, -1.00, 231.4, 633.0)">e</text><text xml:space="preserve" font-family="Helvetica-Light" font-size="80.0" fill="#FEFFFF" transform="matrix(1.00, 0.00, -0.00, -1.00, 275.8, 633.0)">h</text><text xml:space="preserve" font-family="Helvetica-Light" font-size="80.0" fill="#FEFFFF" transform="matrix(1.00, 0.00, -0.00, -1.00, 320.3, 633.0)">i</text><text xml:space="preserve" font-family="Helvetica-Light" font-size="80.0" fill="#FEFFFF" transform="matrix(1.00, 0.00, -0.00, -1.00, 338.1, 633.0)">n</text><text xml:space="preserve" font-family="Helvetica-Light" font-size="80.0" fill="#FEFFFF" transform="matrix(1.00, 0.00, -0.00, -1.00, 382.6, 633.0)">d</text><text xml:space="preserve" font-family="Helvetica-Light" font-size="80.0" fill="#FEFFFF" transform="matrix(1.00, 0.00, -0.00, -1.00, 431.4, 633.0)"> </text><text xml:space="preserve" font-family="Helvetica-Light" font-size="80.0" fill="#FEFFFF" transform="matrix(1.00, 0.00, -0.00, -1.00, 453.7, 633.0)">t</text><text xml:space="preserve" font-family="Helvetica-Light" font-size="80.0" fill="#FEFFFF" transform="matrix(1.00, 0.00, -0.00, -1.00, 475.9, 633.0)">h</text><text xml:space="preserve" font-family="Helvetica-Light" font-size="80.0" fill="#FEFFFF" transform="matrix(1.00, 0.00, -0.00, -1.00, 520.4, 633.0)">e</text><text xml:space="preserve" font-family="Helvetica-Light" font-size="80.0" fill="#FEFFFF" transform="matrix(1.00, 0.00, -0.00, -1.00, 564.9, 633.0)"> </text><text xml:space="preserve" font-family="Helvetica-Light" font-size="80.0" fill="#FEFFFF" transform="matrix(1.00, 0.00, -0.00, -1.00, 587.1, 633.0)">s</text><text xml:space="preserve" font-family="Helvetica-Light" font-size="80.0" fill="#FEFFFF" transform="matrix(1.00, 0.00, -0.00, -1.00, 627.1, 633.0)">c</text><text xml:space="preserve" font-family="Helvetica-Light" font-size="80.0" fill="#FEFFFF" transform="matrix(1.00, 0.00, -0.00, -1.00, 671.6, 633.0)">e</text><text xml:space="preserve" font-family="Helvetica-Light" font-size="80.0" fill="#FEFFFF" transform="matrix(1.00, 0.00, -0.00, -1.00, 716.1, 633.0)">n</text><text xml:space="preserve" font-family="Helvetica-Light" font-size="80.0" fill="#FEFFFF" transform="matrix(1.00, 0.00, -0.00, -1.00, 760.6, 633.0)">e</text><text xml:space="preserve" font-family="Helvetica-Light" font-size="80.0" fill="#FEFFFF" transform="matrix(1.00, 0.00, -0.00, -1.00, 805.0, 633.0)">s</text><text xml:space="preserve" font-family="Menlo-Regular" font-size="37.0" fill="#FFFFFF" transform="matrix(1.00, 0.00, -0.00, -1.00, 79.0, 476.0)">{</text><text xml:space="preserve" font-family="Menlo-Regular" font-size="37.0" fill="#FFFFFF" transform="matrix(1.00, 0.00, -0.00, -1.00, 101.3, 476.0)"> </text><text xml:space="preserve" font-family="Menlo-Regular" font-size="37.0" fill="#FFFFFF" transform="matrix(1.00, 0.00, -0.00, -1.00, 79.0, 433.0)"> </text><text xml:space="preserve" font-family="Menlo-Regular" font-size="37.0" fill="#FFFFFF" transform="matrix(1.00, 0.00, -0.00, -1.00, 101.3, 433.0)"> </text><text xml:space="preserve" font-family="Menlo-Regular" font-size="37.0" fill="#E44347" transform="matrix(1.00, 0.00, -0.00, -1.00, 123.6, 433.0)">"</text><text xml:space="preserve" font-family="Menlo-Regular" font-size="37.0" fill="#E44347" transform="matrix(1.00, 0.00, -0.00, -1.00, 145.8, 433.0)">r</text><text xml:space="preserve" font-family="Menlo-Regular" font-size="37.0" fill="#E44347" transform="matrix(1.00, 0.00, -0.00, -1.00, 168.1, 433.0)">u</text><text xml:space="preserve" font-family="Menlo-Regular" font-size="37.0" fill="#E44347" transform="matrix(1.00, 0.00, -0.00, -1.00, 190.4, 433.0)">l</text><text xml:space="preserve" font-family="Menlo-Regular" font-size="37.0" fill="#E44347" transform="matrix(1.00, 0.00, -0.00, -1.00, 212.7, 433.0)">e</text><text xml:space="preserve" font-family="Menlo-Regular" font-size="37.0" fill="#E44347" transform="matrix(1.00, 0.00, -0.00, -1.00, 234.9, 433.0)">s</text><text xml:space="preserve" font-family="Menlo-Regular" font-size="37.0" fill="#E44347" transform="matrix(1.00, 0.00, -0.00, -1.00, 257.2, 433.0)">"</text><text xml:space="preserve" font-family="Menlo-Regular" font-size="37.0" fill="#FFFFFF" transform="matrix(1.00, 0.00, -0.00, -1.00, 279.5, 433.0)">:</text><text xml:space="preserve" font-family="Menlo-Regular" font-size="37.0" fill="#FFFFFF" transform="matrix(1.00, 0.00, -0.00, -1.00, 301.8, 433.0)"> </text><text xml:space="preserve" font-family="Menlo-Regular" font-size="37.0" fill="#FFFFFF" transform="matrix(1.00, 0.00, -0.00, -1.00, 324.0, 433.0)">{</text><text xml:space="preserve" font-family="Menlo-Regular" font-size="37.0" fill="#FFFFFF" transform="matrix(1.00, 0.00, -0.00, -1.00, 346.3, 433.0)"> </text><text xml:space="preserve" font-family="Menlo-Regular" font-size="37.0" fill="#FFFFFF" transform="matrix(1.00, 0.00, -0.00, -1.00, 79.0, 390.0)"> </text><text xml:space="preserve" font-family="Menlo-Regular" font-size="37.0" fill="#FFFFFF" transform="matrix(1.00, 0.00, -0.00, -1.00, 101.3, 390.0)"> </text><text xml:space="preserve" font-family="Menlo-Regular" font-size="37.0" fill="#FFFFFF" transform="matrix(1.00, 0.00, -0.00, -1.00, 123.6, 390.0)"> </text><text xml:space="preserve" font-family="Menlo-Regular" font-size="37.0" fill="#FFFFFF" transform="matrix(1.00, 0.00, -0.00, -1.00, 145.8, 390.0)"> </text><text xml:space="preserve" font-family="Menlo-Regular" font-size="37.0" fill="#E44347" transform="matrix(1.00, 0.00, -0.00, -1.00, 168.1, 390.0)">"</text><text xml:space="preserve" font-family="Menlo-Regular" font-size="37.0" fill="#E44347" transform="matrix(1.00, 0.00, -0.00, -1.00, 190.4, 390.0)">.</text><text xml:space="preserve" font-family="Menlo-Regular" font-size="37.0" fill="#E44347" transform="matrix(1.00, 0.00, -0.00, -1.00, 212.7, 390.0)">r</text><text xml:space="preserve" font-family="Menlo-Regular" font-size="37.0" fill="#E44347" transform="matrix(1.00, 0.00, -0.00, -1.00, 234.9, 390.0)">e</text><text xml:space="preserve" font-family="Menlo-Regular" font-size="37.0" fill="#E44347" transform="matrix(1.00, 0.00, -0.00, -1.00, 257.2, 390.0)">a</text><text xml:space="preserve" font-family="Menlo-Regular" font-size="37.0" fill="#E44347" transform="matrix(1.00, 0.00, -0.00, -1.00, 279.5, 390.0)">d</text><text xml:space="preserve" font-family="Menlo-Regular" font-size="37.0" fill="#E44347" transform="matrix(1.00, 0.00, -0.00, -1.00, 301.8, 390.0)">"</text><text xml:space="preserve" font-family="Menlo-Regular" font-size="37.0" fill="#FFFFFF" transform="matrix(1.00, 0.00, -0.00, -1.00, 324.0, 390.0)">:</text><text xml:space="preserve" font-family="Menlo-Regular" font-size="37.0" fill="#FFFFFF" transform="matrix(1.00, 0.00, -0.00, -1.00, 346.3, 390.0)"> </text><text xml:space="preserve" font-family="Menlo-Regular" font-size="37.0" fill="#E44347" transform="matrix(1.00, 0.00, -0.00, -1.00, 368.6, 390.0)">"</text><text xml:space="preserve" font-family="Menlo-Regular" font-size="37.0" fill="#E44347" transform="matrix(1.00, 0.00, -0.00, -1.00, 390.9, 390.0)">a</text><text xml:space="preserve" font-family="Menlo-Regular" font-size="37.0" fill="#E44347" transform="matrix(1.00, 0.00, -0.00, -1.00, 413.1, 390.0)">u</text><text xml:space="preserve" font-family="Menlo-Regular" font-size="37.0" fill="#E44347" transform="matrix(1.00, 0.00, -0.00, -1.00, 435.4, 390.0)">t</text><text xml:space="preserve" font-family="Menlo-Regular" font-size="37.0" fill="#E44347" transform="matrix(1.00, 0.00, -0.00, -1.00, 457.7, 390.0)">h</text><text xml:space="preserve" font-family="Menlo-Regular" font-size="37.0" fill="#E44347" transform="matrix(1.00, 0.00, -0.00, -1.00, 480.0, 390.0)"> </text><text xml:space="preserve" font-family="Menlo-Regular" font-size="37.0" fill="#E44347" transform="matrix(1.00, 0.00, -0.00, -1.00, 502.3, 390.0)">!</text><text xml:space="preserve" font-family="Menlo-Regular" font-size="37.0" fill="#E44347" transform="matrix(1.00, 0.00, -0.00, -1.00, 524.5, 390.0)">=</text><text xml:space="preserve" font-family="Menlo-Regular" font-size="37.0" fill="#E44347" transform="matrix(1.00, 0.00, -0.00, -1.00, 546.8, 390.0)"> </text><text xml:space="preserve" font-family="Menlo-Regular" font-size="37.0" fill="#E44347" transform="matrix(1.00, 0.00, -0.00, -1.00, 569.1, 390.0)">n</text><text xml:space="preserve" font-family="Menlo-Regular" font-size="37.0" fill="#E44347" transform="matrix(1.00, 0.00, -0.00, -1.00, 591.4, 390.0)">u</text><text xml:space="preserve" font-family="Menlo-Regular" font-size="37.0" fill="#E44347" transform="matrix(1.00, 0.00, -0.00, -1.00, 613.7, 390.0)">l</text><text xml:space="preserve" font-family="Menlo-Regular" font-size="37.0" fill="#E44347" transform="matrix(1.00, 0.00, -0.00, -1.00, 635.9, 390.0)">l</text><text xml:space="preserve" font-family="Menlo-Regular" font-size="37.0" fill="#E44347" transform="matrix(1.00, 0.00, -0.00, -1.00, 658.2, 390.0)">"</text><text xml:space="preserve" font-family="Menlo-Regular" font-size="37.0" fill="#FFFFFF" transform="matrix(1.00, 0.00, -0.00, -1.00, 680.4, 390.0)">,</text><text xml:space="preserve" font-family="Menlo-Regular" font-size="37.0" fill="#FFFFFF" transform="matrix(1.00, 0.00, -0.00, -1.00, 702.7, 390.0)"> </text><text xml:space="preserve" font-family="Menlo-Regular" font-size="37.0" fill="#FFFFFF" transform="matrix(1.00, 0.00, -0.00, -1.00, 79.0, 347.0)"> </text><text xml:space="preserve" font-family="Menlo-Regular" font-size="37.0" fill="#FFFFFF" transform="matrix(1.00, 0.00, -0.00, -1.00, 101.3, 347.0)"> </text><text xml:space="preserve" font-family="Menlo-Regular" font-size="37.0" fill="#FFFFFF" transform="matrix(1.00, 0.00, -0.00, -1.00, 123.6, 347.0)"> </text><text xml:space="preserve" font-family="Menlo-Regular" font-size="37.0" fill="#FFFFFF" transform="matrix(1.00, 0.00, -0.00, -1.00, 145.8, 347.0)"> </text><text xml:space="preserve" font-family="Menlo-Regular" font-size="37.0" fill="#E44347" transform="matrix(1.00, 0.00, -0.00, -1.00, 168.1, 347.0)">"</text><text xml:space="preserve" font-family="Menlo-Regular" font-size="37.0" fill="#E44347" transform="matrix(1.00, 0.00, -0.00, -1.00, 190.4, 347.0)">m</text><text xml:space="preserve" font-family="Menlo-Regular" font-size="37.0" fill="#E44347" transform="matrix(1.00, 0.00, -0.00, -1.00, 212.7, 347.0)">e</text><text xml:space="preserve" font-family="Menlo-Regular" font-size="37.0" fill="#E44347" transform="matrix(1.00, 0.00, -0.00, -1.00, 234.9, 347.0)">s</text><text xml:space="preserve" font-family="Menlo-Regular" font-size="37.0" fill="#E44347" transform="matrix(1.00, 0.00, -0.00, -1.00, 257.2, 347.0)">s</text><text xml:space="preserve" font-family="Menlo-Regular" font-size="37.0" fill="#E44347" transform="matrix(1.00, 0.00, -0.00, -1.00, 279.5, 347.0)">a</text><text xml:space="preserve" font-family="Menlo-Regular" font-size="37.0" fill="#E44347" transform="matrix(1.00, 0.00, -0.00, -1.00, 301.8, 347.0)">g</text><text xml:space="preserve" font-family="Menlo-Regular" font-size="37.0" fill="#E44347" transform="matrix(1.00, 0.00, -0.00, -1.00, 324.1, 347.0)">e</text><text xml:space="preserve" font-family="Menlo-Regular" font-size="37.0" fill="#E44347" transform="matrix(1.00, 0.00, -0.00, -1.00, 346.3, 347.0)">s</text><text xml:space="preserve" font-family="Menlo-Regular" font-size="37.0" fill="#E44347" transform="matrix(1.00, 0.00, -0.00, -1.00, 368.6, 347.0)">"</text><text xml:space="preserve" font-family="Menlo-Regular" font-size="37.0" fill="#FFFFFF" transform="matrix(1.00, 0.00, -0.00, -1.00, 390.9, 347.0)">:</text><text xml:space="preserve" font-family="Menlo-Regular" font-size="37.0" fill="#FFFFFF" transform="matrix(1.00, 0.00, -0.00, -1.00, 413.1, 347.0)"> </text><text xml:space="preserve" font-family="Menlo-Regular" font-size="37.0" fill="#FFFFFF" transform="matrix(1.00, 0.00, -0.00, -1.00, 435.4, 347.0)">{</text><text xml:space="preserve" font-family="Menlo-Regular" font-size="37.0" fill="#FFFFFF" transform="matrix(1.00, 0.00, -0.00, -1.00, 457.7, 347.0)"> </text><text xml:space="preserve" font-family="Menlo-Regular" font-size="37.0" fill="#FFFFFF" transform="matrix(1.00, 0.00, -0.00, -1.00, 79.0, 304.0)"> </text><text xml:space="preserve" font-family="Menlo-Regular" font-size="37.0" fill="#FFFFFF" transform="matrix(1.00, 0.00, -0.00, -1.00, 101.3, 304.0)"> </text><text xml:space="preserve" font-family="Menlo-Regular" font-size="37.0" fill="#FFFFFF" transform="matrix(1.00, 0.00, -0.00, -1.00, 123.6, 304.0)"> </text><text xml:space="preserve" font-family="Menlo-Regular" font-size="37.0" fill="#FFFFFF" transform="matrix(1.00, 0.00, -0.00, -1.00, 145.8, 304.0)"> </text><text xml:space="preserve" font-family="Menlo-Regular" font-size="37.0" fill="#FFFFFF" transform="matrix(1.00, 0.00, -0.00, -1.00, 168.1, 304.0)"> </text><text xml:space="preserve" font-family="Menlo-Regular" font-size="37.0" fill="#FFFFFF" transform="matrix(1.00, 0.00, -0.00, -1.00, 190.4, 304.0)"> </text><text xml:space="preserve" font-family="Menlo-Regular" font-size="37.0" fill="#E44347" transform="matrix(1.00, 0.00, -0.00, -1.00, 212.7, 304.0)">"</text><text xml:space="preserve" font-family="Menlo-Regular" font-size="37.0" fill="#E44347" transform="matrix(1.00, 0.00, -0.00, -1.00, 234.9, 304.0)">.</text><text xml:space="preserve" font-family="Menlo-Regular" font-size="37.0" fill="#E44347" transform="matrix(1.00, 0.00, -0.00, -1.00, 257.2, 304.0)">w</text><text xml:space="preserve" font-family="Menlo-Regular" font-size="37.0" fill="#E44347" transform="matrix(1.00, 0.00, -0.00, -1.00, 279.5, 304.0)">r</text><text xml:space="preserve" font-family="Menlo-Regular" font-size="37.0" fill="#E44347" transform="matrix(1.00, 0.00, -0.00, -1.00, 301.8, 304.0)">i</text><text xml:space="preserve" font-family="Menlo-Regular" font-size="37.0" fill="#E44347" transform="matrix(1.00, 0.00, -0.00, -1.00, 324.1, 304.0)">t</text><text xml:space="preserve" font-family="Menlo-Regular" font-size="37.0" fill="#E44347" transform="matrix(1.00, 0.00, -0.00, -1.00, 346.3, 304.0)">e</text><text xml:space="preserve" font-family="Menlo-Regular" font-size="37.0" fill="#E44347" transform="matrix(1.00, 0.00, -0.00, -1.00, 368.6, 304.0)">"</text><text xml:space="preserve" font-family="Menlo-Regular" font-size="37.0" fill="#FFFFFF" transform="matrix(1.00, 0.00, -0.00, -1.00, 390.9, 304.0)">:</text><text xml:space="preserve" font-family="Menlo-Regular" font-size="37.0" fill="#FFFFFF" transform="matrix(1.00, 0.00, -0.00, -1.00, 413.1, 304.0)"> </text><text xml:space="preserve" font-family="Menlo-Regular" font-size="37.0" fill="#E44347" transform="matrix(1.00, 0.00, -0.00, -1.00, 435.4, 304.0)">"</text><text xml:space="preserve" font-family="Menlo-Regular" font-size="37.0" fill="#E44347" transform="matrix(1.00, 0.00, -0.00, -1.00, 457.7, 304.0)">a</text><text xml:space="preserve" font-family="Menlo-Regular" font-size="37.0" fill="#E44347" transform="matrix(1.00, 0.00, -0.00, -1.00, 480.0, 304.0)">u</text><text xml:space="preserve" font-family="Menlo-Regular" font-size="37.0" fill="#E44347" transform="matrix(1.00, 0.00, -0.00, -1.00, 502.3, 304.0)">t</text><text xml:space="preserve" font-family="Menlo-Regular" font-size="37.0" fill="#E44347" transform="matrix(1.00, 0.00, -0.00, -1.00, 524.5, 304.0)">h</text><text xml:space="preserve" font-family="Menlo-Regular" font-size="37.0" fill="#E44347" transform="matrix(1.00, 0.00, -0.00, -1.00, 546.8, 304.0)"> </text><text xml:space="preserve" font-family="Menlo-Regular" font-size="37.0" fill="#E44347" transform="matrix(1.00, 0.00, -0.00, -1.00, 569.1, 304.0)">!</text><text xml:space="preserve" font-family="Menlo-Regular" font-size="37.0" fill="#E44347" transform="matrix(1.00, 0.00, -0.00, -1.00, 591.4, 304.0)">=</text><text xml:space="preserve" font-family="Menlo-Regular" font-size="37.0" fill="#E44347" transform="matrix(1.00, 0.00, -0.00, -1.00, 613.7, 304.0)"> </text><text xml:space="preserve" font-family="Menlo-Regular" font-size="37.0" fill="#E44347" transform="matrix(1.00, 0.00, -0.00, -1.00, 635.9, 304.0)">n</text><text xml:space="preserve" font-family="Menlo-Regular" font-size="37.0" fill="#E44347" transform="matrix(1.00, 0.00, -0.00, -1.00, 658.2, 304.0)">u</text><text xml:space="preserve" font-family="Menlo-Regular" font-size="37.0" fill="#E44347" transform="matrix(1.00, 0.00, -0.00, -1.00, 680.5, 304.0)">l</text><text xml:space="preserve" font-family="Menlo-Regular" font-size="37.0" fill="#E44347" transform="matrix(1.00, 0.00, -0.00, -1.00, 702.8, 304.0)">l</text><text xml:space="preserve" font-family="Menlo-Regular" font-size="37.0" fill="#E44347" transform="matrix(1.00, 0.00, -0.00, -1.00, 725.0, 304.0)">"</text><text xml:space="preserve" font-family="Menlo-Regular" font-size="37.0" fill="#FFFFFF" transform="matrix(1.00, 0.00, -0.00, -1.00, 747.3, 304.0)"> </text><text xml:space="preserve" font-family="Menlo-Regular" font-size="37.0" fill="#FFFFFF" transform="matrix(1.00, 0.00, -0.00, -1.00, 79.0, 261.0)"> </text><text xml:space="preserve" font-family="Menlo-Regular" font-size="37.0" fill="#FFFFFF" transform="matrix(1.00, 0.00, -0.00, -1.00, 101.3, 261.0)"> </text><text xml:space="preserve" font-family="Menlo-Regular" font-size="37.0" fill="#FFFFFF" transform="matrix(1.00, 0.00, -0.00, -1.00, 123.6, 261.0)"> </text><text xml:space="preserve" font-family="Menlo-Regular" font-size="37.0" fill="#FFFFFF" transform="matrix(1.00, 0.00, -0.00, -1.00, 145.8, 261.0)"> </text><text xml:space="preserve" font-family="Menlo-Regular" font-size="37.0" fill="#FFFFFF" transform="matrix(1.00, 0.00, -0.00, -1.00, 168.1, 261.0)">}</text><text xml:space="preserve" font-family="Menlo-Regular" font-size="37.0" fill="#FFFFFF" transform="matrix(1.00, 0.00, -0.00, -1.00, 190.4, 261.0)"> </text><text xml:space="preserve" font-family="Menlo-Regular" font-size="37.0" fill="#FFFFFF" transform="matrix(1.00, 0.00, -0.00, -1.00, 79.0, 218.0)"> </text><text xml:space="preserve" font-family="Menlo-Regular" font-size="37.0" fill="#FFFFFF" transform="matrix(1.00, 0.00, -0.00, -1.00, 101.3, 218.0)"> </text><text xml:space="preserve" font-family="Menlo-Regular" font-size="37.0" fill="#FFFFFF" transform="matrix(1.00, 0.00, -0.00, -1.00, 123.6, 218.0)">}</text><text xml:space="preserve" font-family="Menlo-Regular" font-size="37.0" fill="#FFFFFF" transform="matrix(1.00, 0.00, -0.00, -1.00, 145.8, 218.0)"> </text><text xml:space="preserve" font-family="Menlo-Regular" font-size="37.0" fill="#FFFFFF" transform="matrix(1.00, 0.00, -0.00, -1.00, 79.0, 175.0)">}</text><text xml:space="preserve" font-family="Menlo-Regular" font-size="37.0" fill="#FFFFFF" transform="matrix(1.00, 0.00, -0.00, -1.00, 101.3, 175.0)"> </text></g></svg>