<?xml version="1.0" encoding="UTF-8" standalone="no"?><svg xmlns="http://www.w3.org/2000/svg" xmlns:xlink="http://www.w3.org/1999/xlink" clip-rule="evenodd" stroke-miterlimit="4.00" viewBox="0 0 386 29"><desc>SVG generated by Keynote</desc><defs></defs><g transform="matrix(1.00, 0.00, -0.00, -1.00, 0.0, 29.0)"><text xml:space="preserve" font-family="Helvetica-Light" font-size="28.0" fill="#000000" transform="matrix(1.00, 0.00, -0.00, -1.00, 0.0, 7.0)">é</text><text xml:space="preserve" font-family="Helvetica-Light" font-size="28.0" fill="#000000" transform="matrix(1.00, 0.00, -0.00, -1.00, 15.6, 7.0)">c</text><text xml:space="preserve" font-family="Helvetica-Light" font-size="28.0" fill="#000000" transform="matrix(1.00, 0.00, -0.00, -1.00, 31.1, 7.0)">o</text><text xml:space="preserve" font-family="Helvetica-Light" font-size="28.0" fill="#000000" transform="matrix(1.00, 0.00, -0.00, -1.00, 46.7, 7.0)">u</text><text xml:space="preserve" font-family="Helvetica-Light" font-size="28.0" fill="#000000" transform="matrix(1.00, 0.00, -0.00, -1.00, 62.3, 7.0)">t</text><text xml:space="preserve" font-family="Helvetica-Light" font-size="28.0" fill="#000000" transform="matrix(1.00, 0.00, -0.00, -1.00, 70.1, 7.0)">e</text><text xml:space="preserve" font-family="Helvetica-Light" font-size="28.0" fill="#000000" transform="matrix(1.00, 0.00, -0.00, -1.00, 85.6, 7.0)">r</text><text xml:space="preserve" font-family="Helvetica-Light" font-size="28.0" fill="#000000" transform="matrix(1.00, 0.00, -0.00, -1.00, 94.9, 7.0)"> </text><text xml:space="preserve" font-family="Helvetica-Light" font-size="28.0" fill="#000000" transform="matrix(1.00, 0.00, -0.00, -1.00, 102.7, 7.0)">p</text><text xml:space="preserve" font-family="Helvetica-Light" font-size="28.0" fill="#000000" transform="matrix(1.00, 0.00, -0.00, -1.00, 119.8, 7.0)">o</text><text xml:space="preserve" font-family="Helvetica-Light" font-size="28.0" fill="#000000" transform="matrix(1.00, 0.00, -0.00, -1.00, 135.4, 7.0)">u</text><text xml:space="preserve" font-family="Helvetica-Light" font-size="28.0" fill="#000000" transform="matrix(1.00, 0.00, -0.00, -1.00, 151.0, 7.0)">r</text><text xml:space="preserve" font-family="Helvetica-Light" font-size="28.0" fill="#000000" transform="matrix(1.00, 0.00, -0.00, -1.00, 160.3, 7.0)"> </text><text xml:space="preserve" font-family="Helvetica-Light" font-size="28.0" fill="#000000" transform="matrix(1.00, 0.00, -0.00, -1.00, 168.1, 7.0)">c</text><text xml:space="preserve" font-family="Helvetica-Light" font-size="28.0" fill="#000000" transform="matrix(1.00, 0.00, -0.00, -1.00, 183.7, 7.0)">h</text><text xml:space="preserve" font-family="Helvetica-Light" font-size="28.0" fill="#000000" transform="matrix(1.00, 0.00, -0.00, -1.00, 199.2, 7.0)">a</text><text xml:space="preserve" font-family="Helvetica-Light" font-size="28.0" fill="#000000" transform="matrix(1.00, 0.00, -0.00, -1.00, 214.8, 7.0)">q</text><text xml:space="preserve" font-family="Helvetica-Light" font-size="28.0" fill="#000000" transform="matrix(1.00, 0.00, -0.00, -1.00, 231.9, 7.0)">u</text><text xml:space="preserve" font-family="Helvetica-Light" font-size="28.0" fill="#000000" transform="matrix(1.00, 0.00, -0.00, -1.00, 247.5, 7.0)">e</text><text xml:space="preserve" font-family="Helvetica-Light" font-size="28.0" fill="#000000" transform="matrix(1.00, 0.00, -0.00, -1.00, 263.0, 7.0)"> </text><text xml:space="preserve" font-family="Helvetica-Light" font-size="28.0" fill="#000000" transform="matrix(1.00, 0.00, -0.00, -1.00, 270.8, 7.0)">m</text><text xml:space="preserve" font-family="Helvetica-Light" font-size="28.0" fill="#000000" transform="matrix(1.00, 0.00, -0.00, -1.00, 294.1, 7.0)">e</text><text xml:space="preserve" font-family="Helvetica-Light" font-size="28.0" fill="#000000" transform="matrix(1.00, 0.00, -0.00, -1.00, 309.7, 7.0)">s</text><text xml:space="preserve" font-family="Helvetica-Light" font-size="28.0" fill="#000000" transform="matrix(1.00, 0.00, -0.00, -1.00, 323.7, 7.0)">s</text><text xml:space="preserve" font-family="Helvetica-Light" font-size="28.0" fill="#000000" transform="matrix(1.00, 0.00, -0.00, -1.00, 337.7, 7.0)">a</text><text xml:space="preserve" font-family="Helvetica-Light" font-size="28.0" fill="#000000" transform="matrix(1.00, 0.00, -0.00, -1.00, 353.3, 7.0)">g</text><text xml:space="preserve" font-family="Helvetica-Light" font-size="28.0" fill="#000000" transform="matrix(1.00, 0.00, -0.00, -1.00, 370.4, 7.0)">e</text></g></svg>