<?xml version="1.0" encoding="UTF-8" standalone="no"?><svg xmlns="http://www.w3.org/2000/svg" xmlns:xlink="http://www.w3.org/1999/xlink" clip-rule="evenodd" stroke-miterlimit="4.00" viewBox="0 0 1024 768"><desc>SVG generated by Keynote</desc><defs></defs><g transform="matrix(1.00, 0.00, -0.00, -1.00, 0.0, 768.0)"><path d="M 0.0 768.0 L 1024.0 768.0 L 1024.0 0.0 L 0.0 0.0 Z M 0.0 768.0 " fill="#FEFFFF"></path><image xlink:href="549B57650E5FBC98A5CBAC05EF50680F.png" width="1152.00" height="768.00" transform="matrix(1.01, 0.00, -0.00, -1.01, -70.0, 772.0)"></image><text xml:space="preserve" font-family="Helvetica-Light" font-size="70.0" fill="#FEFFFF" transform="matrix(1.00, 0.00, -0.00, -1.00, 397.0, 358.0)">c</text><text xml:space="preserve" font-family="Helvetica-Light" font-size="70.0" fill="#FEFFFF" transform="matrix(1.00, 0.00, -0.00, -1.00, 435.9, 358.0)">o</text><text xml:space="preserve" font-family="Helvetica-Light" font-size="70.0" fill="#FEFFFF" transform="matrix(1.00, 0.00, -0.00, -1.00, 474.8, 358.0)">l</text><text xml:space="preserve" font-family="Helvetica-Light" font-size="70.0" fill="#FEFFFF" transform="matrix(1.00, 0.00, -0.00, -1.00, 490.4, 358.0)">o</text><text xml:space="preserve" font-family="Helvetica-Light" font-size="70.0" fill="#FEFFFF" transform="matrix(1.00, 0.00, -0.00, -1.00, 529.3, 358.0)">u</text><text xml:space="preserve" font-family="Helvetica-Light" font-size="70.0" fill="#FEFFFF" transform="matrix(1.00, 0.00, -0.00, -1.00, 568.2, 358.0)">r</text><text xml:space="preserve" font-family="Helvetica-Light" font-size="70.0" fill="#FEFFFF" transform="matrix(1.00, 0.00, -0.00, -1.00, 591.5, 358.0)">s</text></g></svg>