<?xml version="1.0" encoding="UTF-8" standalone="no"?><svg xmlns="http://www.w3.org/2000/svg" xmlns:xlink="http://www.w3.org/1999/xlink" clip-rule="evenodd" stroke-miterlimit="4.00" viewBox="0 0 1024 768"><desc>SVG generated by Keynote</desc><defs></defs><g transform="matrix(1.00, 0.00, -0.00, -1.00, 0.0, 768.0)"><path d="M 0.0 768.0 L 1024.0 768.0 L 1024.0 0.0 L 0.0 0.0 Z M 0.0 768.0 " fill="#000000"></path><text xml:space="preserve" font-family="Helvetica-Light" font-size="80.0" fill="#FEFFFF" transform="matrix(1.00, 0.00, -0.00, -1.00, 178.0, 633.0)">B</text><text xml:space="preserve" font-family="Helvetica-Light" font-size="80.0" fill="#FEFFFF" transform="matrix(1.00, 0.00, -0.00, -1.00, 231.4, 633.0)">e</text><text xml:space="preserve" font-family="Helvetica-Light" font-size="80.0" fill="#FEFFFF" transform="matrix(1.00, 0.00, -0.00, -1.00, 275.8, 633.0)">h</text><text xml:space="preserve" font-family="Helvetica-Light" font-size="80.0" fill="#FEFFFF" transform="matrix(1.00, 0.00, -0.00, -1.00, 320.3, 633.0)">i</text><text xml:space="preserve" font-family="Helvetica-Light" font-size="80.0" fill="#FEFFFF" transform="matrix(1.00, 0.00, -0.00, -1.00, 338.1, 633.0)">n</text><text xml:space="preserve" font-family="Helvetica-Light" font-size="80.0" fill="#FEFFFF" transform="matrix(1.00, 0.00, -0.00, -1.00, 382.6, 633.0)">d</text><text xml:space="preserve" font-family="Helvetica-Light" font-size="80.0" fill="#FEFFFF" transform="matrix(1.00, 0.00, -0.00, -1.00, 431.4, 633.0)"> </text><text xml:space="preserve" font-family="Helvetica-Light" font-size="80.0" fill="#FEFFFF" transform="matrix(1.00, 0.00, -0.00, -1.00, 453.7, 633.0)">t</text><text xml:space="preserve" font-family="Helvetica-Light" font-size="80.0" fill="#FEFFFF" transform="matrix(1.00, 0.00, -0.00, -1.00, 475.9, 633.0)">h</text><text xml:space="preserve" font-family="Helvetica-Light" font-size="80.0" fill="#FEFFFF" transform="matrix(1.00, 0.00, -0.00, -1.00, 520.4, 633.0)">e</text><text xml:space="preserve" font-family="Helvetica-Light" font-size="80.0" fill="#FEFFFF" transform="matrix(1.00, 0.00, -0.00, -1.00, 564.9, 633.0)"> </text><text xml:space="preserve" font-family="Helvetica-Light" font-size="80.0" fill="#FEFFFF" transform="matrix(1.00, 0.00, -0.00, -1.00, 587.1, 633.0)">s</text><text xml:space="preserve" font-family="Helvetica-Light" font-size="80.0" fill="#FEFFFF" transform="matrix(1.00, 0.00, -0.00, -1.00, 627.1, 633.0)">c</text><text xml:space="preserve" font-family="Helvetica-Light" font-size="80.0" fill="#FEFFFF" transform="matrix(1.00, 0.00, -0.00, -1.00, 671.6, 633.0)">e</text><text xml:space="preserve" font-family="Helvetica-Light" font-size="80.0" fill="#FEFFFF" transform="matrix(1.00, 0.00, -0.00, -1.00, 716.1, 633.0)">n</text><text xml:space="preserve" font-family="Helvetica-Light" font-size="80.0" fill="#FEFFFF" transform="matrix(1.00, 0.00, -0.00, -1.00, 760.6, 633.0)">e</text><text xml:space="preserve" font-family="Helvetica-Light" font-size="80.0" fill="#FEFFFF" transform="matrix(1.00, 0.00, -0.00, -1.00, 805.0, 633.0)">s</text><text xml:space="preserve" font-family="Menlo-Regular" font-size="31.0" fill="#FFFFFF" transform="matrix(1.00, 0.00, -0.00, -1.00, 79.0, 395.0)">b</text><text xml:space="preserve" font-family="Menlo-Regular" font-size="31.0" fill="#FFFFFF" transform="matrix(1.00, 0.00, -0.00, -1.00, 97.7, 395.0)">a</text><text xml:space="preserve" font-family="Menlo-Regular" font-size="31.0" fill="#FFFFFF" transform="matrix(1.00, 0.00, -0.00, -1.00, 116.3, 395.0)">s</text><text xml:space="preserve" font-family="Menlo-Regular" font-size="31.0" fill="#FFFFFF" transform="matrix(1.00, 0.00, -0.00, -1.00, 135.0, 395.0)">e</text><text xml:space="preserve" font-family="Menlo-Regular" font-size="31.0" fill="#FFFFFF" transform="matrix(1.00, 0.00, -0.00, -1.00, 153.7, 395.0)">.</text><text xml:space="preserve" font-family="Menlo-Regular" font-size="31.0" fill="#FFFFFF" transform="matrix(1.00, 0.00, -0.00, -1.00, 172.3, 395.0)">c</text><text xml:space="preserve" font-family="Menlo-Regular" font-size="31.0" fill="#FFFFFF" transform="matrix(1.00, 0.00, -0.00, -1.00, 191.0, 395.0)">h</text><text xml:space="preserve" font-family="Menlo-Regular" font-size="31.0" fill="#FFFFFF" transform="matrix(1.00, 0.00, -0.00, -1.00, 209.7, 395.0)">i</text><text xml:space="preserve" font-family="Menlo-Regular" font-size="31.0" fill="#FFFFFF" transform="matrix(1.00, 0.00, -0.00, -1.00, 228.3, 395.0)">l</text><text xml:space="preserve" font-family="Menlo-Regular" font-size="31.0" fill="#FFFFFF" transform="matrix(1.00, 0.00, -0.00, -1.00, 247.0, 395.0)">d</text><text xml:space="preserve" font-family="Menlo-Regular" font-size="31.0" fill="#FFFFFF" transform="matrix(1.00, 0.00, -0.00, -1.00, 265.7, 395.0)">(</text><text xml:space="preserve" font-family="Menlo-Regular" font-size="31.0" fill="#8B83CE" transform="matrix(1.00, 0.00, -0.00, -1.00, 284.3, 395.0)">‘</text><text xml:space="preserve" font-family="Menlo-Regular" font-size="31.0" fill="#8B83CE" transform="matrix(1.00, 0.00, -0.00, -1.00, 303.0, 395.0)">m</text><text xml:space="preserve" font-family="Menlo-Regular" font-size="31.0" fill="#8B83CE" transform="matrix(1.00, 0.00, -0.00, -1.00, 321.6, 395.0)">e</text><text xml:space="preserve" font-family="Menlo-Regular" font-size="31.0" fill="#8B83CE" transform="matrix(1.00, 0.00, -0.00, -1.00, 340.3, 395.0)">s</text><text xml:space="preserve" font-family="Menlo-Regular" font-size="31.0" fill="#8B83CE" transform="matrix(1.00, 0.00, -0.00, -1.00, 359.0, 395.0)">s</text><text xml:space="preserve" font-family="Menlo-Regular" font-size="31.0" fill="#8B83CE" transform="matrix(1.00, 0.00, -0.00, -1.00, 377.6, 395.0)">a</text><text xml:space="preserve" font-family="Menlo-Regular" font-size="31.0" fill="#8B83CE" transform="matrix(1.00, 0.00, -0.00, -1.00, 396.3, 395.0)">g</text><text xml:space="preserve" font-family="Menlo-Regular" font-size="31.0" fill="#8B83CE" transform="matrix(1.00, 0.00, -0.00, -1.00, 415.0, 395.0)">e</text><text xml:space="preserve" font-family="Menlo-Regular" font-size="31.0" fill="#8B83CE" transform="matrix(1.00, 0.00, -0.00, -1.00, 433.6, 395.0)">s</text><text xml:space="preserve" font-family="Menlo-Regular" font-size="31.0" fill="#8B83CE" transform="matrix(1.00, 0.00, -0.00, -1.00, 452.3, 395.0)">’</text><text xml:space="preserve" font-family="Menlo-Regular" font-size="31.0" fill="#FFFFFF" transform="matrix(1.00, 0.00, -0.00, -1.00, 470.9, 395.0)">)</text><text xml:space="preserve" font-family="Menlo-Regular" font-size="31.0" fill="#FFFFFF" transform="matrix(1.00, 0.00, -0.00, -1.00, 489.6, 395.0)"> </text><text xml:space="preserve" font-family="Menlo-Regular" font-size="31.0" fill="#FFFFFF" transform="matrix(1.00, 0.00, -0.00, -1.00, 79.0, 359.0)"> </text><text xml:space="preserve" font-family="Menlo-Regular" font-size="31.0" fill="#FFFFFF" transform="matrix(1.00, 0.00, -0.00, -1.00, 97.7, 359.0)"> </text><text xml:space="preserve" font-family="Menlo-Regular" font-size="31.0" fill="#FFFFFF" transform="matrix(1.00, 0.00, -0.00, -1.00, 116.3, 359.0)">.</text><text xml:space="preserve" font-family="Menlo-Regular" font-size="31.0" fill="#FFFFFF" transform="matrix(1.00, 0.00, -0.00, -1.00, 135.0, 359.0)">l</text><text xml:space="preserve" font-family="Menlo-Regular" font-size="31.0" fill="#FFFFFF" transform="matrix(1.00, 0.00, -0.00, -1.00, 153.7, 359.0)">i</text><text xml:space="preserve" font-family="Menlo-Regular" font-size="31.0" fill="#FFFFFF" transform="matrix(1.00, 0.00, -0.00, -1.00, 172.3, 359.0)">m</text><text xml:space="preserve" font-family="Menlo-Regular" font-size="31.0" fill="#FFFFFF" transform="matrix(1.00, 0.00, -0.00, -1.00, 191.0, 359.0)">i</text><text xml:space="preserve" font-family="Menlo-Regular" font-size="31.0" fill="#FFFFFF" transform="matrix(1.00, 0.00, -0.00, -1.00, 209.7, 359.0)">t</text><text xml:space="preserve" font-family="Menlo-Regular" font-size="31.0" fill="#FFFFFF" transform="matrix(1.00, 0.00, -0.00, -1.00, 228.3, 359.0)">T</text><text xml:space="preserve" font-family="Menlo-Regular" font-size="31.0" fill="#FFFFFF" transform="matrix(1.00, 0.00, -0.00, -1.00, 247.0, 359.0)">o</text><text xml:space="preserve" font-family="Menlo-Regular" font-size="31.0" fill="#FFFFFF" transform="matrix(1.00, 0.00, -0.00, -1.00, 265.7, 359.0)">L</text><text xml:space="preserve" font-family="Menlo-Regular" font-size="31.0" fill="#FFFFFF" transform="matrix(1.00, 0.00, -0.00, -1.00, 284.3, 359.0)">a</text><text xml:space="preserve" font-family="Menlo-Regular" font-size="31.0" fill="#FFFFFF" transform="matrix(1.00, 0.00, -0.00, -1.00, 303.0, 359.0)">s</text><text xml:space="preserve" font-family="Menlo-Regular" font-size="31.0" fill="#FFFFFF" transform="matrix(1.00, 0.00, -0.00, -1.00, 321.7, 359.0)">t</text><text xml:space="preserve" font-family="Menlo-Regular" font-size="31.0" fill="#FFFFFF" transform="matrix(1.00, 0.00, -0.00, -1.00, 340.3, 359.0)">(</text><text xml:space="preserve" font-family="Menlo-Regular" font-size="31.0" fill="#8B83CE" transform="matrix(1.00, 0.00, -0.00, -1.00, 359.0, 359.0)">1</text><text xml:space="preserve" font-family="Menlo-Regular" font-size="31.0" fill="#8B83CE" transform="matrix(1.00, 0.00, -0.00, -1.00, 377.6, 359.0)">0</text><text xml:space="preserve" font-family="Menlo-Regular" font-size="31.0" fill="#FFFFFF" transform="matrix(1.00, 0.00, -0.00, -1.00, 396.3, 359.0)">)</text><text xml:space="preserve" font-family="Menlo-Regular" font-size="31.0" fill="#FFFFFF" transform="matrix(1.00, 0.00, -0.00, -1.00, 414.9, 359.0)"> </text><text xml:space="preserve" font-family="Menlo-Regular" font-size="31.0" fill="#FFFFFF" transform="matrix(1.00, 0.00, -0.00, -1.00, 79.0, 323.0)"> </text><text xml:space="preserve" font-family="Menlo-Regular" font-size="31.0" fill="#FFFFFF" transform="matrix(1.00, 0.00, -0.00, -1.00, 97.7, 323.0)"> </text><text xml:space="preserve" font-family="Menlo-Regular" font-size="31.0" fill="#FFFFFF" transform="matrix(1.00, 0.00, -0.00, -1.00, 116.3, 323.0)">.</text><text xml:space="preserve" font-family="Menlo-Regular" font-size="31.0" fill="#FFFFFF" transform="matrix(1.00, 0.00, -0.00, -1.00, 135.0, 323.0)">o</text><text xml:space="preserve" font-family="Menlo-Regular" font-size="31.0" fill="#FFFFFF" transform="matrix(1.00, 0.00, -0.00, -1.00, 153.7, 323.0)">n</text><text xml:space="preserve" font-family="Menlo-Regular" font-size="31.0" fill="#FFFFFF" transform="matrix(1.00, 0.00, -0.00, -1.00, 172.3, 323.0)">(</text><text xml:space="preserve" font-family="Menlo-Regular" font-size="31.0" fill="#8B83CE" transform="matrix(1.00, 0.00, -0.00, -1.00, 191.0, 323.0)">‘</text><text xml:space="preserve" font-family="Menlo-Regular" font-size="31.0" fill="#8B83CE" transform="matrix(1.00, 0.00, -0.00, -1.00, 209.6, 323.0)">c</text><text xml:space="preserve" font-family="Menlo-Regular" font-size="31.0" fill="#8B83CE" transform="matrix(1.00, 0.00, -0.00, -1.00, 228.3, 323.0)">h</text><text xml:space="preserve" font-family="Menlo-Regular" font-size="31.0" fill="#8B83CE" transform="matrix(1.00, 0.00, -0.00, -1.00, 247.0, 323.0)">i</text><text xml:space="preserve" font-family="Menlo-Regular" font-size="31.0" fill="#8B83CE" transform="matrix(1.00, 0.00, -0.00, -1.00, 265.6, 323.0)">l</text><text xml:space="preserve" font-family="Menlo-Regular" font-size="31.0" fill="#8B83CE" transform="matrix(1.00, 0.00, -0.00, -1.00, 284.3, 323.0)">d</text><text xml:space="preserve" font-family="Menlo-Regular" font-size="31.0" fill="#8B83CE" transform="matrix(1.00, 0.00, -0.00, -1.00, 303.0, 323.0)">_</text><text xml:space="preserve" font-family="Menlo-Regular" font-size="31.0" fill="#8B83CE" transform="matrix(1.00, 0.00, -0.00, -1.00, 321.6, 323.0)">a</text><text xml:space="preserve" font-family="Menlo-Regular" font-size="31.0" fill="#8B83CE" transform="matrix(1.00, 0.00, -0.00, -1.00, 340.3, 323.0)">d</text><text xml:space="preserve" font-family="Menlo-Regular" font-size="31.0" fill="#8B83CE" transform="matrix(1.00, 0.00, -0.00, -1.00, 359.0, 323.0)">d</text><text xml:space="preserve" font-family="Menlo-Regular" font-size="31.0" fill="#8B83CE" transform="matrix(1.00, 0.00, -0.00, -1.00, 377.6, 323.0)">e</text><text xml:space="preserve" font-family="Menlo-Regular" font-size="31.0" fill="#8B83CE" transform="matrix(1.00, 0.00, -0.00, -1.00, 396.3, 323.0)">d</text><text xml:space="preserve" font-family="Menlo-Regular" font-size="31.0" fill="#8B83CE" transform="matrix(1.00, 0.00, -0.00, -1.00, 415.0, 323.0)">’</text><text xml:space="preserve" font-family="Menlo-Regular" font-size="31.0" fill="#FFFFFF" transform="matrix(1.00, 0.00, -0.00, -1.00, 433.6, 323.0)">)</text><text xml:space="preserve" font-family="Menlo-Regular" font-size="31.0" fill="#FFFFFF" transform="matrix(1.00, 0.00, -0.00, -1.00, 452.3, 323.0)"> </text><text xml:space="preserve" font-family="Menlo-Regular" font-size="31.0" fill="#FFFFFF" transform="matrix(1.00, 0.00, -0.00, -1.00, 79.0, 287.0)"> </text><text xml:space="preserve" font-family="Menlo-Regular" font-size="31.0" fill="#FFFFFF" transform="matrix(1.00, 0.00, -0.00, -1.00, 97.7, 287.0)"> </text><text xml:space="preserve" font-family="Menlo-Regular" font-size="31.0" fill="#FFFFFF" transform="matrix(1.00, 0.00, -0.00, -1.00, 116.3, 287.0)">.</text><text xml:space="preserve" font-family="Menlo-Regular" font-size="31.0" fill="#FFFFFF" transform="matrix(1.00, 0.00, -0.00, -1.00, 135.0, 287.0)">t</text><text xml:space="preserve" font-family="Menlo-Regular" font-size="31.0" fill="#FFFFFF" transform="matrix(1.00, 0.00, -0.00, -1.00, 153.7, 287.0)">h</text><text xml:space="preserve" font-family="Menlo-Regular" font-size="31.0" fill="#FFFFFF" transform="matrix(1.00, 0.00, -0.00, -1.00, 172.3, 287.0)">e</text><text xml:space="preserve" font-family="Menlo-Regular" font-size="31.0" fill="#FFFFFF" transform="matrix(1.00, 0.00, -0.00, -1.00, 191.0, 287.0)">n</text><text xml:space="preserve" font-family="Menlo-Regular" font-size="31.0" fill="#FFFFFF" transform="matrix(1.00, 0.00, -0.00, -1.00, 209.7, 287.0)">(</text><text xml:space="preserve" font-family="Menlo-Regular" font-size="31.0" fill="#C1339A" transform="matrix(1.00, 0.00, -0.00, -1.00, 228.3, 287.0)">f</text><text xml:space="preserve" font-family="Menlo-Regular" font-size="31.0" fill="#C1339A" transform="matrix(1.00, 0.00, -0.00, -1.00, 247.0, 287.0)">u</text><text xml:space="preserve" font-family="Menlo-Regular" font-size="31.0" fill="#C1339A" transform="matrix(1.00, 0.00, -0.00, -1.00, 265.6, 287.0)">n</text><text xml:space="preserve" font-family="Menlo-Regular" font-size="31.0" fill="#C1339A" transform="matrix(1.00, 0.00, -0.00, -1.00, 284.3, 287.0)">c</text><text xml:space="preserve" font-family="Menlo-Regular" font-size="31.0" fill="#C1339A" transform="matrix(1.00, 0.00, -0.00, -1.00, 303.0, 287.0)">t</text><text xml:space="preserve" font-family="Menlo-Regular" font-size="31.0" fill="#C1339A" transform="matrix(1.00, 0.00, -0.00, -1.00, 321.6, 287.0)">i</text><text xml:space="preserve" font-family="Menlo-Regular" font-size="31.0" fill="#C1339A" transform="matrix(1.00, 0.00, -0.00, -1.00, 340.3, 287.0)">o</text><text xml:space="preserve" font-family="Menlo-Regular" font-size="31.0" fill="#C1339A" transform="matrix(1.00, 0.00, -0.00, -1.00, 359.0, 287.0)">n</text><text xml:space="preserve" font-family="Menlo-Regular" font-size="31.0" fill="#FFFFFF" transform="matrix(1.00, 0.00, -0.00, -1.00, 377.6, 287.0)">(</text><text xml:space="preserve" font-family="Menlo-Regular" font-size="31.0" fill="#FFFFFF" transform="matrix(1.00, 0.00, -0.00, -1.00, 396.3, 287.0)">s</text><text xml:space="preserve" font-family="Menlo-Regular" font-size="31.0" fill="#FFFFFF" transform="matrix(1.00, 0.00, -0.00, -1.00, 415.0, 287.0)">n</text><text xml:space="preserve" font-family="Menlo-Regular" font-size="31.0" fill="#FFFFFF" transform="matrix(1.00, 0.00, -0.00, -1.00, 433.6, 287.0)">a</text><text xml:space="preserve" font-family="Menlo-Regular" font-size="31.0" fill="#FFFFFF" transform="matrix(1.00, 0.00, -0.00, -1.00, 452.3, 287.0)">p</text><text xml:space="preserve" font-family="Menlo-Regular" font-size="31.0" fill="#FFFFFF" transform="matrix(1.00, 0.00, -0.00, -1.00, 471.0, 287.0)">)</text><text xml:space="preserve" font-family="Menlo-Regular" font-size="31.0" fill="#FFFFFF" transform="matrix(1.00, 0.00, -0.00, -1.00, 489.6, 287.0)"> </text><text xml:space="preserve" font-family="Menlo-Regular" font-size="31.0" fill="#FFFFFF" transform="matrix(1.00, 0.00, -0.00, -1.00, 508.3, 287.0)">{</text><text xml:space="preserve" font-family="Menlo-Regular" font-size="31.0" fill="#FFFFFF" transform="matrix(1.00, 0.00, -0.00, -1.00, 527.0, 287.0)"> </text><text xml:space="preserve" font-family="Menlo-Regular" font-size="31.0" fill="#FFFFFF" transform="matrix(1.00, 0.00, -0.00, -1.00, 79.0, 251.0)"> </text><text xml:space="preserve" font-family="Menlo-Regular" font-size="31.0" fill="#FFFFFF" transform="matrix(1.00, 0.00, -0.00, -1.00, 97.7, 251.0)"> </text><text xml:space="preserve" font-family="Menlo-Regular" font-size="31.0" fill="#FFFFFF" transform="matrix(1.00, 0.00, -0.00, -1.00, 116.3, 251.0)"> </text><text xml:space="preserve" font-family="Menlo-Regular" font-size="31.0" fill="#FFFFFF" transform="matrix(1.00, 0.00, -0.00, -1.00, 135.0, 251.0)"> </text><text xml:space="preserve" font-family="Menlo-Regular" font-size="31.0" fill="#FFFFFF" transform="matrix(1.00, 0.00, -0.00, -1.00, 153.7, 251.0)">a</text><text xml:space="preserve" font-family="Menlo-Regular" font-size="31.0" fill="#FFFFFF" transform="matrix(1.00, 0.00, -0.00, -1.00, 172.3, 251.0)">d</text><text xml:space="preserve" font-family="Menlo-Regular" font-size="31.0" fill="#FFFFFF" transform="matrix(1.00, 0.00, -0.00, -1.00, 191.0, 251.0)">d</text><text xml:space="preserve" font-family="Menlo-Regular" font-size="31.0" fill="#FFFFFF" transform="matrix(1.00, 0.00, -0.00, -1.00, 209.7, 251.0)">M</text><text xml:space="preserve" font-family="Menlo-Regular" font-size="31.0" fill="#FFFFFF" transform="matrix(1.00, 0.00, -0.00, -1.00, 228.3, 251.0)">e</text><text xml:space="preserve" font-family="Menlo-Regular" font-size="31.0" fill="#FFFFFF" transform="matrix(1.00, 0.00, -0.00, -1.00, 247.0, 251.0)">s</text><text xml:space="preserve" font-family="Menlo-Regular" font-size="31.0" fill="#FFFFFF" transform="matrix(1.00, 0.00, -0.00, -1.00, 265.7, 251.0)">s</text><text xml:space="preserve" font-family="Menlo-Regular" font-size="31.0" fill="#FFFFFF" transform="matrix(1.00, 0.00, -0.00, -1.00, 284.3, 251.0)">a</text><text xml:space="preserve" font-family="Menlo-Regular" font-size="31.0" fill="#FFFFFF" transform="matrix(1.00, 0.00, -0.00, -1.00, 303.0, 251.0)">g</text><text xml:space="preserve" font-family="Menlo-Regular" font-size="31.0" fill="#FFFFFF" transform="matrix(1.00, 0.00, -0.00, -1.00, 321.7, 251.0)">e</text><text xml:space="preserve" font-family="Menlo-Regular" font-size="31.0" fill="#FFFFFF" transform="matrix(1.00, 0.00, -0.00, -1.00, 340.3, 251.0)">(</text><text xml:space="preserve" font-family="Menlo-Regular" font-size="31.0" fill="#FFFFFF" transform="matrix(1.00, 0.00, -0.00, -1.00, 359.0, 251.0)">s</text><text xml:space="preserve" font-family="Menlo-Regular" font-size="31.0" fill="#FFFFFF" transform="matrix(1.00, 0.00, -0.00, -1.00, 377.7, 251.0)">n</text><text xml:space="preserve" font-family="Menlo-Regular" font-size="31.0" fill="#FFFFFF" transform="matrix(1.00, 0.00, -0.00, -1.00, 396.3, 251.0)">a</text><text xml:space="preserve" font-family="Menlo-Regular" font-size="31.0" fill="#FFFFFF" transform="matrix(1.00, 0.00, -0.00, -1.00, 415.0, 251.0)">p</text><text xml:space="preserve" font-family="Menlo-Regular" font-size="31.0" fill="#FFFFFF" transform="matrix(1.00, 0.00, -0.00, -1.00, 433.7, 251.0)">.</text><text xml:space="preserve" font-family="Menlo-Regular" font-size="31.0" fill="#FFFFFF" transform="matrix(1.00, 0.00, -0.00, -1.00, 452.3, 251.0)">v</text><text xml:space="preserve" font-family="Menlo-Regular" font-size="31.0" fill="#FFFFFF" transform="matrix(1.00, 0.00, -0.00, -1.00, 471.0, 251.0)">a</text><text xml:space="preserve" font-family="Menlo-Regular" font-size="31.0" fill="#FFFFFF" transform="matrix(1.00, 0.00, -0.00, -1.00, 489.7, 251.0)">l</text><text xml:space="preserve" font-family="Menlo-Regular" font-size="31.0" fill="#FFFFFF" transform="matrix(1.00, 0.00, -0.00, -1.00, 508.3, 251.0)">(</text><text xml:space="preserve" font-family="Menlo-Regular" font-size="31.0" fill="#FFFFFF" transform="matrix(1.00, 0.00, -0.00, -1.00, 527.0, 251.0)">)</text><text xml:space="preserve" font-family="Menlo-Regular" font-size="31.0" fill="#FFFFFF" transform="matrix(1.00, 0.00, -0.00, -1.00, 545.7, 251.0)">)</text><text xml:space="preserve" font-family="Menlo-Regular" font-size="31.0" fill="#FFFFFF" transform="matrix(1.00, 0.00, -0.00, -1.00, 564.3, 251.0)">;</text><text xml:space="preserve" font-family="Menlo-Regular" font-size="31.0" fill="#FFFFFF" transform="matrix(1.00, 0.00, -0.00, -1.00, 583.0, 251.0)"> </text><text xml:space="preserve" font-family="Menlo-Regular" font-size="31.0" fill="#FFFFFF" transform="matrix(1.00, 0.00, -0.00, -1.00, 79.0, 215.0)">}</text><text xml:space="preserve" font-family="Menlo-Regular" font-size="31.0" fill="#FFFFFF" transform="matrix(1.00, 0.00, -0.00, -1.00, 97.7, 215.0)">)</text><text xml:space="preserve" font-family="Menlo-Regular" font-size="31.0" fill="#FFFFFF" transform="matrix(1.00, 0.00, -0.00, -1.00, 116.3, 215.0)">;</text></g></svg>