<?xml version="1.0" encoding="UTF-8" standalone="no"?><svg xmlns="http://www.w3.org/2000/svg" xmlns:xlink="http://www.w3.org/1999/xlink" clip-rule="evenodd" stroke-miterlimit="4.00" viewBox="0 0 859 197"><desc>SVG generated by Keynote</desc><defs></defs><g transform="matrix(1.00, 0.00, -0.00, -1.00, 0.0, 197.0)"><text xml:space="preserve" font-family="Menlo-Regular" font-size="18.0" fill="#000000" transform="matrix(1.00, 0.00, -0.00, -1.00, 1.0, 181.0)">g</text><text xml:space="preserve" font-family="Menlo-Regular" font-size="18.0" fill="#000000" transform="matrix(1.00, 0.00, -0.00, -1.00, 11.8, 181.0)">u</text><text xml:space="preserve" font-family="Menlo-Regular" font-size="18.0" fill="#000000" transform="matrix(1.00, 0.00, -0.00, -1.00, 22.7, 181.0)">l</text><text xml:space="preserve" font-family="Menlo-Regular" font-size="18.0" fill="#000000" transform="matrix(1.00, 0.00, -0.00, -1.00, 33.5, 181.0)">p</text><text xml:space="preserve" font-family="Menlo-Regular" font-size="18.0" fill="#000000" transform="matrix(1.00, 0.00, -0.00, -1.00, 44.4, 181.0)">.</text><text xml:space="preserve" font-family="Menlo-Regular" font-size="18.0" fill="#000000" transform="matrix(1.00, 0.00, -0.00, -1.00, 55.2, 181.0)">t</text><text xml:space="preserve" font-family="Menlo-Regular" font-size="18.0" fill="#000000" transform="matrix(1.00, 0.00, -0.00, -1.00, 66.0, 181.0)">a</text><text xml:space="preserve" font-family="Menlo-Regular" font-size="18.0" fill="#000000" transform="matrix(1.00, 0.00, -0.00, -1.00, 76.9, 181.0)">s</text><text xml:space="preserve" font-family="Menlo-Regular" font-size="18.0" fill="#000000" transform="matrix(1.00, 0.00, -0.00, -1.00, 87.7, 181.0)">k</text><text xml:space="preserve" font-family="Menlo-Regular" font-size="18.0" fill="#000000" transform="matrix(1.00, 0.00, -0.00, -1.00, 98.5, 181.0)">(</text><text xml:space="preserve" font-family="Menlo-Regular" font-size="18.0" fill="#C8352B" transform="matrix(1.00, 0.00, -0.00, -1.00, 109.4, 181.0)">'</text><text xml:space="preserve" font-family="Menlo-Regular" font-size="18.0" fill="#C8352B" transform="matrix(1.00, 0.00, -0.00, -1.00, 120.2, 181.0)">t</text><text xml:space="preserve" font-family="Menlo-Regular" font-size="18.0" fill="#C8352B" transform="matrix(1.00, 0.00, -0.00, -1.00, 131.0, 181.0)">e</text><text xml:space="preserve" font-family="Menlo-Regular" font-size="18.0" fill="#C8352B" transform="matrix(1.00, 0.00, -0.00, -1.00, 141.9, 181.0)">m</text><text xml:space="preserve" font-family="Menlo-Regular" font-size="18.0" fill="#C8352B" transform="matrix(1.00, 0.00, -0.00, -1.00, 152.7, 181.0)">p</text><text xml:space="preserve" font-family="Menlo-Regular" font-size="18.0" fill="#C8352B" transform="matrix(1.00, 0.00, -0.00, -1.00, 163.6, 181.0)">l</text><text xml:space="preserve" font-family="Menlo-Regular" font-size="18.0" fill="#C8352B" transform="matrix(1.00, 0.00, -0.00, -1.00, 174.4, 181.0)">a</text><text xml:space="preserve" font-family="Menlo-Regular" font-size="18.0" fill="#C8352B" transform="matrix(1.00, 0.00, -0.00, -1.00, 185.2, 181.0)">t</text><text xml:space="preserve" font-family="Menlo-Regular" font-size="18.0" fill="#C8352B" transform="matrix(1.00, 0.00, -0.00, -1.00, 196.1, 181.0)">e</text><text xml:space="preserve" font-family="Menlo-Regular" font-size="18.0" fill="#C8352B" transform="matrix(1.00, 0.00, -0.00, -1.00, 206.9, 181.0)">s</text><text xml:space="preserve" font-family="Menlo-Regular" font-size="18.0" fill="#C8352B" transform="matrix(1.00, 0.00, -0.00, -1.00, 217.8, 181.0)">'</text><text xml:space="preserve" font-family="Menlo-Regular" font-size="18.0" fill="#000000" transform="matrix(1.00, 0.00, -0.00, -1.00, 228.6, 181.0)">,</text><text xml:space="preserve" font-family="Menlo-Regular" font-size="18.0" fill="#000000" transform="matrix(1.00, 0.00, -0.00, -1.00, 239.4, 181.0)"> </text><text xml:space="preserve" font-family="Menlo-Bold" font-weight="bold" font-size="18.0" fill="#008E00" transform="matrix(1.00, 0.00, -0.00, -1.00, 250.2, 181.0)">f</text><text xml:space="preserve" font-family="Menlo-Bold" font-weight="bold" font-size="18.0" fill="#008E00" transform="matrix(1.00, 0.00, -0.00, -1.00, 261.1, 181.0)">u</text><text xml:space="preserve" font-family="Menlo-Bold" font-weight="bold" font-size="18.0" fill="#008E00" transform="matrix(1.00, 0.00, -0.00, -1.00, 271.9, 181.0)">n</text><text xml:space="preserve" font-family="Menlo-Bold" font-weight="bold" font-size="18.0" fill="#008E00" transform="matrix(1.00, 0.00, -0.00, -1.00, 282.8, 181.0)">c</text><text xml:space="preserve" font-family="Menlo-Bold" font-weight="bold" font-size="18.0" fill="#008E00" transform="matrix(1.00, 0.00, -0.00, -1.00, 293.6, 181.0)">t</text><text xml:space="preserve" font-family="Menlo-Bold" font-weight="bold" font-size="18.0" fill="#008E00" transform="matrix(1.00, 0.00, -0.00, -1.00, 304.4, 181.0)">i</text><text xml:space="preserve" font-family="Menlo-Bold" font-weight="bold" font-size="18.0" fill="#008E00" transform="matrix(1.00, 0.00, -0.00, -1.00, 315.3, 181.0)">o</text><text xml:space="preserve" font-family="Menlo-Bold" font-weight="bold" font-size="18.0" fill="#008E00" transform="matrix(1.00, 0.00, -0.00, -1.00, 326.1, 181.0)">n</text><text xml:space="preserve" font-family="Menlo-Regular" font-size="18.0" fill="#000000" transform="matrix(1.00, 0.00, -0.00, -1.00, 336.9, 181.0)">(</text><text xml:space="preserve" font-family="Menlo-Regular" font-size="18.0" fill="#000000" transform="matrix(1.00, 0.00, -0.00, -1.00, 347.8, 181.0)">)</text><text xml:space="preserve" font-family="Menlo-Regular" font-size="18.0" fill="#000000" transform="matrix(1.00, 0.00, -0.00, -1.00, 358.6, 181.0)"> </text><text xml:space="preserve" font-family="Menlo-Regular" font-size="18.0" fill="#000000" transform="matrix(1.00, 0.00, -0.00, -1.00, 369.5, 181.0)">{</text><text xml:space="preserve" font-family="Monaco" font-size="18.0" fill="#000000" transform="matrix(1.00, 0.00, -0.00, -1.00, 380.3, 181.0)"> </text><text xml:space="preserve" font-family="Menlo-Regular" font-size="18.0" fill="#C8352B" transform="matrix(1.00, 0.00, -0.00, -1.00, 1.0, 155.0)"> </text><text xml:space="preserve" font-family="Menlo-Regular" font-size="18.0" fill="#C8352B" transform="matrix(1.00, 0.00, -0.00, -1.00, 11.8, 155.0)"> </text><text xml:space="preserve" font-family="Menlo-Bold" font-weight="bold" font-size="18.0" fill="#008E00" transform="matrix(1.00, 0.00, -0.00, -1.00, 22.7, 155.0)">v</text><text xml:space="preserve" font-family="Menlo-Bold" font-weight="bold" font-size="18.0" fill="#008E00" transform="matrix(1.00, 0.00, -0.00, -1.00, 33.5, 155.0)">a</text><text xml:space="preserve" font-family="Menlo-Bold" font-weight="bold" font-size="18.0" fill="#008E00" transform="matrix(1.00, 0.00, -0.00, -1.00, 44.4, 155.0)">r</text><text xml:space="preserve" font-family="Menlo-Regular" font-size="18.0" fill="#C8352B" transform="matrix(1.00, 0.00, -0.00, -1.00, 55.2, 155.0)"> </text><text xml:space="preserve" font-family="Menlo-Regular" font-size="18.0" fill="#C8352B" transform="matrix(1.00, 0.00, -0.00, -1.00, 66.0, 155.0)">L</text><text xml:space="preserve" font-family="Menlo-Regular" font-size="18.0" fill="#C8352B" transform="matrix(1.00, 0.00, -0.00, -1.00, 76.9, 155.0)">O</text><text xml:space="preserve" font-family="Menlo-Regular" font-size="18.0" fill="#C8352B" transform="matrix(1.00, 0.00, -0.00, -1.00, 87.7, 155.0)">C</text><text xml:space="preserve" font-family="Menlo-Regular" font-size="18.0" fill="#C8352B" transform="matrix(1.00, 0.00, -0.00, -1.00, 98.5, 155.0)">A</text><text xml:space="preserve" font-family="Menlo-Regular" font-size="18.0" fill="#C8352B" transform="matrix(1.00, 0.00, -0.00, -1.00, 109.4, 155.0)">L</text><text xml:space="preserve" font-family="Menlo-Regular" font-size="18.0" fill="#C8352B" transform="matrix(1.00, 0.00, -0.00, -1.00, 120.2, 155.0)">S</text><text xml:space="preserve" font-family="Menlo-Regular" font-size="18.0" fill="#C8352B" transform="matrix(1.00, 0.00, -0.00, -1.00, 131.1, 155.0)"> </text><text xml:space="preserve" font-family="Menlo-Regular" font-size="18.0" fill="#797979" transform="matrix(1.00, 0.00, -0.00, -1.00, 141.9, 155.0)">=</text><text xml:space="preserve" font-family="Menlo-Regular" font-size="18.0" fill="#C8352B" transform="matrix(1.00, 0.00, -0.00, -1.00, 152.7, 155.0)"> </text><text xml:space="preserve" font-family="Menlo-Regular" font-size="18.0" fill="#000000" transform="matrix(1.00, 0.00, -0.00, -1.00, 163.6, 155.0)">{</text><text xml:space="preserve" font-family="Menlo-Regular" font-size="18.0" fill="#000000" transform="matrix(1.00, 0.00, -0.00, -1.00, 174.4, 155.0)">}</text><text xml:space="preserve" font-family="Menlo-Regular" font-size="18.0" fill="#000000" transform="matrix(1.00, 0.00, -0.00, -1.00, 185.2, 155.0)">;</text><text xml:space="preserve" font-family="Monaco" font-size="18.0" fill="#C8352B" transform="matrix(1.00, 0.00, -0.00, -1.00, 196.1, 155.0)"> </text><text xml:space="preserve" font-family="Menlo-Regular" font-size="18.0" fill="#000000" transform="matrix(1.00, 0.00, -0.00, -1.00, 1.0, 130.0)"> </text><text xml:space="preserve" font-family="Menlo-Regular" font-size="18.0" fill="#000000" transform="matrix(1.00, 0.00, -0.00, -1.00, 11.8, 130.0)"> </text><text xml:space="preserve" font-family="Menlo-Regular" font-size="18.0" fill="#000000" transform="matrix(1.00, 0.00, -0.00, -1.00, 22.7, 130.0)">g</text><text xml:space="preserve" font-family="Menlo-Regular" font-size="18.0" fill="#000000" transform="matrix(1.00, 0.00, -0.00, -1.00, 33.5, 130.0)">u</text><text xml:space="preserve" font-family="Menlo-Regular" font-size="18.0" fill="#000000" transform="matrix(1.00, 0.00, -0.00, -1.00, 44.4, 130.0)">l</text><text xml:space="preserve" font-family="Menlo-Regular" font-size="18.0" fill="#000000" transform="matrix(1.00, 0.00, -0.00, -1.00, 55.2, 130.0)">p</text><text xml:space="preserve" font-family="Menlo-Regular" font-size="18.0" fill="#000000" transform="matrix(1.00, 0.00, -0.00, -1.00, 66.0, 130.0)">.</text><text xml:space="preserve" font-family="Menlo-Regular" font-size="18.0" fill="#000000" transform="matrix(1.00, 0.00, -0.00, -1.00, 76.9, 130.0)">s</text><text xml:space="preserve" font-family="Menlo-Regular" font-size="18.0" fill="#000000" transform="matrix(1.00, 0.00, -0.00, -1.00, 87.7, 130.0)">r</text><text xml:space="preserve" font-family="Menlo-Regular" font-size="18.0" fill="#000000" transform="matrix(1.00, 0.00, -0.00, -1.00, 98.5, 130.0)">c</text><text xml:space="preserve" font-family="Menlo-Regular" font-size="18.0" fill="#000000" transform="matrix(1.00, 0.00, -0.00, -1.00, 109.4, 130.0)">(</text><text xml:space="preserve" font-family="Menlo-Regular" font-size="18.0" fill="#000000" transform="matrix(1.00, 0.00, -0.00, -1.00, 120.2, 130.0)">[</text><text xml:space="preserve" font-family="Menlo-Regular" font-size="18.0" fill="#C8352B" transform="matrix(1.00, 0.00, -0.00, -1.00, 131.0, 130.0)">'</text><text xml:space="preserve" font-family="Menlo-Regular" font-size="18.0" fill="#C8352B" transform="matrix(1.00, 0.00, -0.00, -1.00, 141.9, 130.0)">*</text><text xml:space="preserve" font-family="Menlo-Regular" font-size="18.0" fill="#C8352B" transform="matrix(1.00, 0.00, -0.00, -1.00, 152.7, 130.0)">*</text><text xml:space="preserve" font-family="Menlo-Regular" font-size="18.0" fill="#C8352B" transform="matrix(1.00, 0.00, -0.00, -1.00, 163.6, 130.0)">/</text><text xml:space="preserve" font-family="Menlo-Regular" font-size="18.0" fill="#C8352B" transform="matrix(1.00, 0.00, -0.00, -1.00, 174.4, 130.0)">*</text><text xml:space="preserve" font-family="Menlo-Regular" font-size="18.0" fill="#C8352B" transform="matrix(1.00, 0.00, -0.00, -1.00, 185.2, 130.0)">.</text><text xml:space="preserve" font-family="Menlo-Regular" font-size="18.0" fill="#C8352B" transform="matrix(1.00, 0.00, -0.00, -1.00, 196.1, 130.0)">j</text><text xml:space="preserve" font-family="Menlo-Regular" font-size="18.0" fill="#C8352B" transform="matrix(1.00, 0.00, -0.00, -1.00, 206.9, 130.0)">a</text><text xml:space="preserve" font-family="Menlo-Regular" font-size="18.0" fill="#C8352B" transform="matrix(1.00, 0.00, -0.00, -1.00, 217.8, 130.0)">d</text><text xml:space="preserve" font-family="Menlo-Regular" font-size="18.0" fill="#C8352B" transform="matrix(1.00, 0.00, -0.00, -1.00, 228.6, 130.0)">e</text><text xml:space="preserve" font-family="Menlo-Regular" font-size="18.0" fill="#C8352B" transform="matrix(1.00, 0.00, -0.00, -1.00, 239.4, 130.0)">'</text><text xml:space="preserve" font-family="Menlo-Regular" font-size="18.0" fill="#000000" transform="matrix(1.00, 0.00, -0.00, -1.00, 250.2, 130.0)">,</text><text xml:space="preserve" font-family="Menlo-Regular" font-size="18.0" fill="#000000" transform="matrix(1.00, 0.00, -0.00, -1.00, 261.1, 130.0)"> </text><text xml:space="preserve" font-family="Menlo-Regular" font-size="18.0" fill="#C8352B" transform="matrix(1.00, 0.00, -0.00, -1.00, 271.9, 130.0)">'</text><text xml:space="preserve" font-family="Menlo-Regular" font-size="18.0" fill="#C8352B" transform="matrix(1.00, 0.00, -0.00, -1.00, 282.8, 130.0)">!</text><text xml:space="preserve" font-family="Menlo-Regular" font-size="18.0" fill="#C8352B" transform="matrix(1.00, 0.00, -0.00, -1.00, 293.6, 130.0)">.</text><text xml:space="preserve" font-family="Menlo-Regular" font-size="18.0" fill="#C8352B" transform="matrix(1.00, 0.00, -0.00, -1.00, 304.4, 130.0)">/</text><text xml:space="preserve" font-family="Menlo-Regular" font-size="18.0" fill="#C8352B" transform="matrix(1.00, 0.00, -0.00, -1.00, 315.3, 130.0)">n</text><text xml:space="preserve" font-family="Menlo-Regular" font-size="18.0" fill="#C8352B" transform="matrix(1.00, 0.00, -0.00, -1.00, 326.1, 130.0)">o</text><text xml:space="preserve" font-family="Menlo-Regular" font-size="18.0" fill="#C8352B" transform="matrix(1.00, 0.00, -0.00, -1.00, 337.0, 130.0)">d</text><text xml:space="preserve" font-family="Menlo-Regular" font-size="18.0" fill="#C8352B" transform="matrix(1.00, 0.00, -0.00, -1.00, 347.8, 130.0)">e</text><text xml:space="preserve" font-family="Menlo-Regular" font-size="18.0" fill="#C8352B" transform="matrix(1.00, 0.00, -0.00, -1.00, 358.6, 130.0)">_</text><text xml:space="preserve" font-family="Menlo-Regular" font-size="18.0" fill="#C8352B" transform="matrix(1.00, 0.00, -0.00, -1.00, 369.5, 130.0)">m</text><text xml:space="preserve" font-family="Menlo-Regular" font-size="18.0" fill="#C8352B" transform="matrix(1.00, 0.00, -0.00, -1.00, 380.3, 130.0)">o</text><text xml:space="preserve" font-family="Menlo-Regular" font-size="18.0" fill="#C8352B" transform="matrix(1.00, 0.00, -0.00, -1.00, 391.1, 130.0)">d</text><text xml:space="preserve" font-family="Menlo-Regular" font-size="18.0" fill="#C8352B" transform="matrix(1.00, 0.00, -0.00, -1.00, 402.0, 130.0)">u</text><text xml:space="preserve" font-family="Menlo-Regular" font-size="18.0" fill="#C8352B" transform="matrix(1.00, 0.00, -0.00, -1.00, 412.8, 130.0)">l</text><text xml:space="preserve" font-family="Menlo-Regular" font-size="18.0" fill="#C8352B" transform="matrix(1.00, 0.00, -0.00, -1.00, 423.7, 130.0)">e</text><text xml:space="preserve" font-family="Menlo-Regular" font-size="18.0" fill="#C8352B" transform="matrix(1.00, 0.00, -0.00, -1.00, 434.5, 130.0)">s</text><text xml:space="preserve" font-family="Menlo-Regular" font-size="18.0" fill="#C8352B" transform="matrix(1.00, 0.00, -0.00, -1.00, 445.3, 130.0)">/</text><text xml:space="preserve" font-family="Menlo-Regular" font-size="18.0" fill="#C8352B" transform="matrix(1.00, 0.00, -0.00, -1.00, 456.2, 130.0)">*</text><text xml:space="preserve" font-family="Menlo-Regular" font-size="18.0" fill="#C8352B" transform="matrix(1.00, 0.00, -0.00, -1.00, 467.0, 130.0)">*</text><text xml:space="preserve" font-family="Menlo-Regular" font-size="18.0" fill="#C8352B" transform="matrix(1.00, 0.00, -0.00, -1.00, 477.9, 130.0)">'</text><text xml:space="preserve" font-family="Menlo-Regular" font-size="18.0" fill="#000000" transform="matrix(1.00, 0.00, -0.00, -1.00, 488.7, 130.0)">,</text><text xml:space="preserve" font-family="Menlo-Regular" font-size="18.0" fill="#000000" transform="matrix(1.00, 0.00, -0.00, -1.00, 499.5, 130.0)"> </text><text xml:space="preserve" font-family="Menlo-Regular" font-size="18.0" fill="#C8352B" transform="matrix(1.00, 0.00, -0.00, -1.00, 510.3, 130.0)">'</text><text xml:space="preserve" font-family="Menlo-Regular" font-size="18.0" fill="#C8352B" transform="matrix(1.00, 0.00, -0.00, -1.00, 521.2, 130.0)">!</text><text xml:space="preserve" font-family="Menlo-Regular" font-size="18.0" fill="#C8352B" transform="matrix(1.00, 0.00, -0.00, -1.00, 532.0, 130.0)">.</text><text xml:space="preserve" font-family="Menlo-Regular" font-size="18.0" fill="#C8352B" transform="matrix(1.00, 0.00, -0.00, -1.00, 542.9, 130.0)">/</text><text xml:space="preserve" font-family="Menlo-Regular" font-size="18.0" fill="#C8352B" transform="matrix(1.00, 0.00, -0.00, -1.00, 553.7, 130.0)">d</text><text xml:space="preserve" font-family="Menlo-Regular" font-size="18.0" fill="#C8352B" transform="matrix(1.00, 0.00, -0.00, -1.00, 564.5, 130.0)">i</text><text xml:space="preserve" font-family="Menlo-Regular" font-size="18.0" fill="#C8352B" transform="matrix(1.00, 0.00, -0.00, -1.00, 575.4, 130.0)">s</text><text xml:space="preserve" font-family="Menlo-Regular" font-size="18.0" fill="#C8352B" transform="matrix(1.00, 0.00, -0.00, -1.00, 586.2, 130.0)">t</text><text xml:space="preserve" font-family="Menlo-Regular" font-size="18.0" fill="#C8352B" transform="matrix(1.00, 0.00, -0.00, -1.00, 597.0, 130.0)">/</text><text xml:space="preserve" font-family="Menlo-Regular" font-size="18.0" fill="#C8352B" transform="matrix(1.00, 0.00, -0.00, -1.00, 607.9, 130.0)">*</text><text xml:space="preserve" font-family="Menlo-Regular" font-size="18.0" fill="#C8352B" transform="matrix(1.00, 0.00, -0.00, -1.00, 618.7, 130.0)">*</text><text xml:space="preserve" font-family="Menlo-Regular" font-size="18.0" fill="#C8352B" transform="matrix(1.00, 0.00, -0.00, -1.00, 629.6, 130.0)">'</text><text xml:space="preserve" font-family="Menlo-Regular" font-size="18.0" fill="#000000" transform="matrix(1.00, 0.00, -0.00, -1.00, 640.4, 130.0)">,</text><text xml:space="preserve" font-family="Menlo-Regular" font-size="18.0" fill="#000000" transform="matrix(1.00, 0.00, -0.00, -1.00, 651.2, 130.0)"> </text><text xml:space="preserve" font-family="Menlo-Regular" font-size="18.0" fill="#C8352B" transform="matrix(1.00, 0.00, -0.00, -1.00, 662.1, 130.0)">'</text><text xml:space="preserve" font-family="Menlo-Regular" font-size="18.0" fill="#C8352B" transform="matrix(1.00, 0.00, -0.00, -1.00, 672.9, 130.0)">!</text><text xml:space="preserve" font-family="Menlo-Regular" font-size="18.0" fill="#C8352B" transform="matrix(1.00, 0.00, -0.00, -1.00, 683.7, 130.0)">.</text><text xml:space="preserve" font-family="Menlo-Regular" font-size="18.0" fill="#C8352B" transform="matrix(1.00, 0.00, -0.00, -1.00, 694.6, 130.0)">/</text><text xml:space="preserve" font-family="Menlo-Regular" font-size="18.0" fill="#C8352B" transform="matrix(1.00, 0.00, -0.00, -1.00, 705.4, 130.0)">i</text><text xml:space="preserve" font-family="Menlo-Regular" font-size="18.0" fill="#C8352B" transform="matrix(1.00, 0.00, -0.00, -1.00, 716.2, 130.0)">n</text><text xml:space="preserve" font-family="Menlo-Regular" font-size="18.0" fill="#C8352B" transform="matrix(1.00, 0.00, -0.00, -1.00, 727.1, 130.0)">c</text><text xml:space="preserve" font-family="Menlo-Regular" font-size="18.0" fill="#C8352B" transform="matrix(1.00, 0.00, -0.00, -1.00, 737.9, 130.0)">l</text><text xml:space="preserve" font-family="Menlo-Regular" font-size="18.0" fill="#C8352B" transform="matrix(1.00, 0.00, -0.00, -1.00, 748.8, 130.0)">u</text><text xml:space="preserve" font-family="Menlo-Regular" font-size="18.0" fill="#C8352B" transform="matrix(1.00, 0.00, -0.00, -1.00, 759.6, 130.0)">d</text><text xml:space="preserve" font-family="Menlo-Regular" font-size="18.0" fill="#C8352B" transform="matrix(1.00, 0.00, -0.00, -1.00, 770.4, 130.0)">e</text><text xml:space="preserve" font-family="Menlo-Regular" font-size="18.0" fill="#C8352B" transform="matrix(1.00, 0.00, -0.00, -1.00, 781.3, 130.0)">s</text><text xml:space="preserve" font-family="Menlo-Regular" font-size="18.0" fill="#C8352B" transform="matrix(1.00, 0.00, -0.00, -1.00, 792.1, 130.0)">/</text><text xml:space="preserve" font-family="Menlo-Regular" font-size="18.0" fill="#C8352B" transform="matrix(1.00, 0.00, -0.00, -1.00, 803.0, 130.0)">*</text><text xml:space="preserve" font-family="Menlo-Regular" font-size="18.0" fill="#C8352B" transform="matrix(1.00, 0.00, -0.00, -1.00, 813.8, 130.0)">*</text><text xml:space="preserve" font-family="Menlo-Regular" font-size="18.0" fill="#C8352B" transform="matrix(1.00, 0.00, -0.00, -1.00, 824.6, 130.0)">'</text><text xml:space="preserve" font-family="Menlo-Regular" font-size="18.0" fill="#000000" transform="matrix(1.00, 0.00, -0.00, -1.00, 835.4, 130.0)">]</text><text xml:space="preserve" font-family="Menlo-Regular" font-size="18.0" fill="#000000" transform="matrix(1.00, 0.00, -0.00, -1.00, 846.3, 130.0)">)</text><text xml:space="preserve" font-family="Monaco" font-size="18.0" fill="#000000" transform="matrix(1.00, 0.00, -0.00, -1.00, 857.1, 130.0)"> </text><text xml:space="preserve" font-family="Menlo-Regular" font-size="18.0" fill="#C8352B" transform="matrix(1.00, 0.00, -0.00, -1.00, 1.0, 105.0)"> </text><text xml:space="preserve" font-family="Menlo-Regular" font-size="18.0" fill="#C8352B" transform="matrix(1.00, 0.00, -0.00, -1.00, 11.8, 105.0)"> </text><text xml:space="preserve" font-family="Menlo-Regular" font-size="18.0" fill="#C8352B" transform="matrix(1.00, 0.00, -0.00, -1.00, 22.7, 105.0)"> </text><text xml:space="preserve" font-family="Menlo-Regular" font-size="18.0" fill="#C8352B" transform="matrix(1.00, 0.00, -0.00, -1.00, 33.5, 105.0)"> </text><text xml:space="preserve" font-family="Menlo-Regular" font-size="18.0" fill="#000000" transform="matrix(1.00, 0.00, -0.00, -1.00, 44.3, 105.0)">.</text><text xml:space="preserve" font-family="Menlo-Regular" font-size="18.0" fill="#000000" transform="matrix(1.00, 0.00, -0.00, -1.00, 55.2, 105.0)">p</text><text xml:space="preserve" font-family="Menlo-Regular" font-size="18.0" fill="#000000" transform="matrix(1.00, 0.00, -0.00, -1.00, 66.0, 105.0)">i</text><text xml:space="preserve" font-family="Menlo-Regular" font-size="18.0" fill="#000000" transform="matrix(1.00, 0.00, -0.00, -1.00, 76.9, 105.0)">p</text><text xml:space="preserve" font-family="Menlo-Regular" font-size="18.0" fill="#000000" transform="matrix(1.00, 0.00, -0.00, -1.00, 87.7, 105.0)">e</text><text xml:space="preserve" font-family="Menlo-Regular" font-size="18.0" fill="#000000" transform="matrix(1.00, 0.00, -0.00, -1.00, 98.5, 105.0)">(</text><text xml:space="preserve" font-family="Menlo-Regular" font-size="18.0" fill="#000000" transform="matrix(1.00, 0.00, -0.00, -1.00, 109.4, 105.0)">j</text><text xml:space="preserve" font-family="Menlo-Regular" font-size="18.0" fill="#000000" transform="matrix(1.00, 0.00, -0.00, -1.00, 120.2, 105.0)">a</text><text xml:space="preserve" font-family="Menlo-Regular" font-size="18.0" fill="#000000" transform="matrix(1.00, 0.00, -0.00, -1.00, 131.1, 105.0)">d</text><text xml:space="preserve" font-family="Menlo-Regular" font-size="18.0" fill="#000000" transform="matrix(1.00, 0.00, -0.00, -1.00, 141.9, 105.0)">e</text><text xml:space="preserve" font-family="Menlo-Regular" font-size="18.0" fill="#000000" transform="matrix(1.00, 0.00, -0.00, -1.00, 152.7, 105.0)">(</text><text xml:space="preserve" font-family="Menlo-Regular" font-size="18.0" fill="#000000" transform="matrix(1.00, 0.00, -0.00, -1.00, 163.6, 105.0)">{</text><text xml:space="preserve" font-family="Monaco" font-size="18.0" fill="#000000" transform="matrix(1.00, 0.00, -0.00, -1.00, 174.4, 105.0)"> </text><text xml:space="preserve" font-family="Menlo-Regular" font-size="18.0" fill="#000000" transform="matrix(1.00, 0.00, -0.00, -1.00, 1.0, 80.0)"> </text><text xml:space="preserve" font-family="Menlo-Regular" font-size="18.0" fill="#000000" transform="matrix(1.00, 0.00, -0.00, -1.00, 11.8, 80.0)"> </text><text xml:space="preserve" font-family="Menlo-Regular" font-size="18.0" fill="#000000" transform="matrix(1.00, 0.00, -0.00, -1.00, 22.7, 80.0)"> </text><text xml:space="preserve" font-family="Menlo-Regular" font-size="18.0" fill="#000000" transform="matrix(1.00, 0.00, -0.00, -1.00, 33.5, 80.0)"> </text><text xml:space="preserve" font-family="Menlo-Regular" font-size="18.0" fill="#000000" transform="matrix(1.00, 0.00, -0.00, -1.00, 44.4, 80.0)"> </text><text xml:space="preserve" font-family="Menlo-Regular" font-size="18.0" fill="#000000" transform="matrix(1.00, 0.00, -0.00, -1.00, 55.2, 80.0)"> </text><text xml:space="preserve" font-family="Menlo-Regular" font-size="18.0" fill="#000000" transform="matrix(1.00, 0.00, -0.00, -1.00, 66.0, 80.0)">l</text><text xml:space="preserve" font-family="Menlo-Regular" font-size="18.0" fill="#000000" transform="matrix(1.00, 0.00, -0.00, -1.00, 76.9, 80.0)">o</text><text xml:space="preserve" font-family="Menlo-Regular" font-size="18.0" fill="#000000" transform="matrix(1.00, 0.00, -0.00, -1.00, 87.7, 80.0)">c</text><text xml:space="preserve" font-family="Menlo-Regular" font-size="18.0" fill="#000000" transform="matrix(1.00, 0.00, -0.00, -1.00, 98.5, 80.0)">a</text><text xml:space="preserve" font-family="Menlo-Regular" font-size="18.0" fill="#000000" transform="matrix(1.00, 0.00, -0.00, -1.00, 109.4, 80.0)">l</text><text xml:space="preserve" font-family="Menlo-Regular" font-size="18.0" fill="#000000" transform="matrix(1.00, 0.00, -0.00, -1.00, 120.2, 80.0)">s</text><text xml:space="preserve" font-family="Menlo-Regular" font-size="18.0" fill="#000000" transform="matrix(1.00, 0.00, -0.00, -1.00, 131.1, 80.0)">:</text><text xml:space="preserve" font-family="Menlo-Regular" font-size="18.0" fill="#000000" transform="matrix(1.00, 0.00, -0.00, -1.00, 141.9, 80.0)"> </text><text xml:space="preserve" font-family="Menlo-Regular" font-size="18.0" fill="#000000" transform="matrix(1.00, 0.00, -0.00, -1.00, 152.7, 80.0)">L</text><text xml:space="preserve" font-family="Menlo-Regular" font-size="18.0" fill="#000000" transform="matrix(1.00, 0.00, -0.00, -1.00, 163.6, 80.0)">O</text><text xml:space="preserve" font-family="Menlo-Regular" font-size="18.0" fill="#000000" transform="matrix(1.00, 0.00, -0.00, -1.00, 174.4, 80.0)">C</text><text xml:space="preserve" font-family="Menlo-Regular" font-size="18.0" fill="#000000" transform="matrix(1.00, 0.00, -0.00, -1.00, 185.3, 80.0)">A</text><text xml:space="preserve" font-family="Menlo-Regular" font-size="18.0" fill="#000000" transform="matrix(1.00, 0.00, -0.00, -1.00, 196.1, 80.0)">L</text><text xml:space="preserve" font-family="Menlo-Regular" font-size="18.0" fill="#000000" transform="matrix(1.00, 0.00, -0.00, -1.00, 206.9, 80.0)">S</text><text xml:space="preserve" font-family="Monaco" font-size="18.0" fill="#000000" transform="matrix(1.00, 0.00, -0.00, -1.00, 217.7, 80.0)"> </text><text xml:space="preserve" font-family="Menlo-Regular" font-size="18.0" fill="#000000" transform="matrix(1.00, 0.00, -0.00, -1.00, 1.0, 55.0)"> </text><text xml:space="preserve" font-family="Menlo-Regular" font-size="18.0" fill="#000000" transform="matrix(1.00, 0.00, -0.00, -1.00, 11.8, 55.0)"> </text><text xml:space="preserve" font-family="Menlo-Regular" font-size="18.0" fill="#000000" transform="matrix(1.00, 0.00, -0.00, -1.00, 22.7, 55.0)"> </text><text xml:space="preserve" font-family="Menlo-Regular" font-size="18.0" fill="#000000" transform="matrix(1.00, 0.00, -0.00, -1.00, 33.5, 55.0)"> </text><text xml:space="preserve" font-family="Menlo-Regular" font-size="18.0" fill="#000000" transform="matrix(1.00, 0.00, -0.00, -1.00, 44.4, 55.0)">}</text><text xml:space="preserve" font-family="Menlo-Regular" font-size="18.0" fill="#000000" transform="matrix(1.00, 0.00, -0.00, -1.00, 55.2, 55.0)">)</text><text xml:space="preserve" font-family="Menlo-Regular" font-size="18.0" fill="#000000" transform="matrix(1.00, 0.00, -0.00, -1.00, 66.0, 55.0)">)</text><text xml:space="preserve" font-family="Monaco" font-size="18.0" fill="#000000" transform="matrix(1.00, 0.00, -0.00, -1.00, 76.9, 55.0)"> </text><text xml:space="preserve" font-family="Menlo-Regular" font-size="18.0" fill="#000000" transform="matrix(1.00, 0.00, -0.00, -1.00, 1.0, 29.0)"> </text><text xml:space="preserve" font-family="Menlo-Regular" font-size="18.0" fill="#000000" transform="matrix(1.00, 0.00, -0.00, -1.00, 11.8, 29.0)"> </text><text xml:space="preserve" font-family="Menlo-Regular" font-size="18.0" fill="#000000" transform="matrix(1.00, 0.00, -0.00, -1.00, 22.7, 29.0)"> </text><text xml:space="preserve" font-family="Menlo-Regular" font-size="18.0" fill="#000000" transform="matrix(1.00, 0.00, -0.00, -1.00, 33.5, 29.0)"> </text><text xml:space="preserve" font-family="Menlo-Regular" font-size="18.0" fill="#000000" transform="matrix(1.00, 0.00, -0.00, -1.00, 44.4, 29.0)">.</text><text xml:space="preserve" font-family="Menlo-Regular" font-size="18.0" fill="#000000" transform="matrix(1.00, 0.00, -0.00, -1.00, 55.2, 29.0)">p</text><text xml:space="preserve" font-family="Menlo-Regular" font-size="18.0" fill="#000000" transform="matrix(1.00, 0.00, -0.00, -1.00, 66.0, 29.0)">i</text><text xml:space="preserve" font-family="Menlo-Regular" font-size="18.0" fill="#000000" transform="matrix(1.00, 0.00, -0.00, -1.00, 76.9, 29.0)">p</text><text xml:space="preserve" font-family="Menlo-Regular" font-size="18.0" fill="#000000" transform="matrix(1.00, 0.00, -0.00, -1.00, 87.7, 29.0)">e</text><text xml:space="preserve" font-family="Menlo-Regular" font-size="18.0" fill="#000000" transform="matrix(1.00, 0.00, -0.00, -1.00, 98.5, 29.0)">(</text><text xml:space="preserve" font-family="Menlo-Regular" font-size="18.0" fill="#000000" transform="matrix(1.00, 0.00, -0.00, -1.00, 109.4, 29.0)">g</text><text xml:space="preserve" font-family="Menlo-Regular" font-size="18.0" fill="#000000" transform="matrix(1.00, 0.00, -0.00, -1.00, 120.2, 29.0)">u</text><text xml:space="preserve" font-family="Menlo-Regular" font-size="18.0" fill="#000000" transform="matrix(1.00, 0.00, -0.00, -1.00, 131.1, 29.0)">l</text><text xml:space="preserve" font-family="Menlo-Regular" font-size="18.0" fill="#000000" transform="matrix(1.00, 0.00, -0.00, -1.00, 141.9, 29.0)">p</text><text xml:space="preserve" font-family="Menlo-Regular" font-size="18.0" fill="#000000" transform="matrix(1.00, 0.00, -0.00, -1.00, 152.7, 29.0)">.</text><text xml:space="preserve" font-family="Menlo-Regular" font-size="18.0" fill="#000000" transform="matrix(1.00, 0.00, -0.00, -1.00, 163.6, 29.0)">d</text><text xml:space="preserve" font-family="Menlo-Regular" font-size="18.0" fill="#000000" transform="matrix(1.00, 0.00, -0.00, -1.00, 174.4, 29.0)">e</text><text xml:space="preserve" font-family="Menlo-Regular" font-size="18.0" fill="#000000" transform="matrix(1.00, 0.00, -0.00, -1.00, 185.3, 29.0)">s</text><text xml:space="preserve" font-family="Menlo-Regular" font-size="18.0" fill="#000000" transform="matrix(1.00, 0.00, -0.00, -1.00, 196.1, 29.0)">t</text><text xml:space="preserve" font-family="Menlo-Regular" font-size="18.0" fill="#000000" transform="matrix(1.00, 0.00, -0.00, -1.00, 206.9, 29.0)">(</text><text xml:space="preserve" font-family="Menlo-Regular" font-size="18.0" fill="#000000" transform="matrix(1.00, 0.00, -0.00, -1.00, 217.8, 29.0)">D</text><text xml:space="preserve" font-family="Menlo-Regular" font-size="18.0" fill="#000000" transform="matrix(1.00, 0.00, -0.00, -1.00, 228.6, 29.0)">I</text><text xml:space="preserve" font-family="Menlo-Regular" font-size="18.0" fill="#000000" transform="matrix(1.00, 0.00, -0.00, -1.00, 239.5, 29.0)">S</text><text xml:space="preserve" font-family="Menlo-Regular" font-size="18.0" fill="#000000" transform="matrix(1.00, 0.00, -0.00, -1.00, 250.3, 29.0)">T</text><text xml:space="preserve" font-family="Menlo-Regular" font-size="18.0" fill="#000000" transform="matrix(1.00, 0.00, -0.00, -1.00, 261.1, 29.0)">)</text><text xml:space="preserve" font-family="Menlo-Regular" font-size="18.0" fill="#000000" transform="matrix(1.00, 0.00, -0.00, -1.00, 272.0, 29.0)">)</text><text xml:space="preserve" font-family="Menlo-Regular" font-size="18.0" fill="#000000" transform="matrix(1.00, 0.00, -0.00, -1.00, 282.8, 29.0)">;</text><text xml:space="preserve" font-family="Monaco" font-size="18.0" fill="#000000" transform="matrix(1.00, 0.00, -0.00, -1.00, 293.6, 29.0)"> </text><text xml:space="preserve" font-family="Menlo-Regular" font-size="18.0" fill="#000000" transform="matrix(1.00, 0.00, -0.00, -1.00, 1.0, 4.0)">}</text><text xml:space="preserve" font-family="Menlo-Regular" font-size="18.0" fill="#000000" transform="matrix(1.00, 0.00, -0.00, -1.00, 11.8, 4.0)">)</text><text xml:space="preserve" font-family="Menlo-Regular" font-size="18.0" fill="#000000" transform="matrix(1.00, 0.00, -0.00, -1.00, 22.7, 4.0)">;</text></g></svg>