<?xml version="1.0" encoding="UTF-8" standalone="no"?><svg xmlns="http://www.w3.org/2000/svg" xmlns:xlink="http://www.w3.org/1999/xlink" clip-rule="evenodd" stroke-miterlimit="4.00" viewBox="0 0 1024 768"><desc>SVG generated by Keynote</desc><defs></defs><g transform="matrix(1.00, 0.00, -0.00, -1.00, 0.0, 768.0)"><path d="M 0.0 768.0 L 1024.0 768.0 L 1024.0 0.0 L 0.0 0.0 Z M 0.0 768.0 " fill="#FEFFFF"></path><image xlink:href="../../A8D59A9A-A904-462B-90AA-3E1A85F2D24D/assets/F3BDC798227B067ED6D3B54E5B3DF448.png" width="54.00" height="122.00" transform="matrix(1.00, 0.00, -0.00, -1.00, 4.0, 128.0)"></image><text xml:space="preserve" font-family="Helvetica-Light" font-size="80.0" fill="#000000" transform="matrix(1.00, 0.00, -0.00, -1.00, 419.0, 618.0)">h</text><text xml:space="preserve" font-family="Helvetica-Light" font-size="80.0" fill="#000000" transform="matrix(1.00, 0.00, -0.00, -1.00, 463.5, 618.0)">o</text><text xml:space="preserve" font-family="Helvetica-Light" font-size="80.0" fill="#000000" transform="matrix(1.00, 0.00, -0.00, -1.00, 508.0, 618.0)">w</text><text xml:space="preserve" font-family="Helvetica-Light" font-size="80.0" fill="#000000" transform="matrix(1.00, 0.00, -0.00, -1.00, 565.7, 618.0)">?</text><text xml:space="preserve" font-family="Helvetica-Light" font-size="36.0" fill="#000000" transform="matrix(1.00, 0.00, -0.00, -1.00, 79.0, 454.0)">d</text><text xml:space="preserve" font-family="Helvetica-Light" font-size="36.0" fill="#000000" transform="matrix(1.00, 0.00, -0.00, -1.00, 101.0, 454.0)">i</text><text xml:space="preserve" font-family="Helvetica-Light" font-size="36.0" fill="#000000" transform="matrix(1.00, 0.00, -0.00, -1.00, 109.0, 454.0)">f</text><text xml:space="preserve" font-family="Helvetica-Light" font-size="36.0" fill="#000000" transform="matrix(1.00, 0.00, -0.00, -1.00, 118.3, 454.0)">f</text><text xml:space="preserve" font-family="Helvetica-Light" font-size="36.0" fill="#000000" transform="matrix(1.00, 0.00, -0.00, -1.00, 128.4, 454.0)">e</text><text xml:space="preserve" font-family="Helvetica-Light" font-size="36.0" fill="#000000" transform="matrix(1.00, 0.00, -0.00, -1.00, 148.4, 454.0)">r</text><text xml:space="preserve" font-family="Helvetica-Light" font-size="36.0" fill="#000000" transform="matrix(1.00, 0.00, -0.00, -1.00, 159.7, 454.0)">e</text><text xml:space="preserve" font-family="Helvetica-Light" font-size="36.0" fill="#000000" transform="matrix(1.00, 0.00, -0.00, -1.00, 179.7, 454.0)">n</text><text xml:space="preserve" font-family="Helvetica-Light" font-size="36.0" fill="#000000" transform="matrix(1.00, 0.00, -0.00, -1.00, 199.7, 454.0)">t</text><text xml:space="preserve" font-family="Helvetica-Light" font-size="36.0" fill="#000000" transform="matrix(1.00, 0.00, -0.00, -1.00, 209.8, 454.0)"> </text><text xml:space="preserve" font-family="Helvetica-Light" font-size="36.0" fill="#000000" transform="matrix(1.00, 0.00, -0.00, -1.00, 219.8, 454.0)">t</text><text xml:space="preserve" font-family="Helvetica-Light" font-size="36.0" fill="#000000" transform="matrix(1.00, 0.00, -0.00, -1.00, 229.8, 454.0)">a</text><text xml:space="preserve" font-family="Helvetica-Light" font-size="36.0" fill="#000000" transform="matrix(1.00, 0.00, -0.00, -1.00, 249.8, 454.0)">s</text><text xml:space="preserve" font-family="Helvetica-Light" font-size="36.0" fill="#000000" transform="matrix(1.00, 0.00, -0.00, -1.00, 267.8, 454.0)">k</text><text xml:space="preserve" font-family="Helvetica-Light" font-size="36.0" fill="#000000" transform="matrix(1.00, 0.00, -0.00, -1.00, 285.8, 454.0)">s</text><text xml:space="preserve" font-family="Menlo-Regular" font-size="18.0" fill="#000000" transform="matrix(1.00, 0.00, -0.00, -1.00, 79.0, 421.0)">g</text><text xml:space="preserve" font-family="Menlo-Regular" font-size="18.0" fill="#000000" transform="matrix(1.00, 0.00, -0.00, -1.00, 89.8, 421.0)">u</text><text xml:space="preserve" font-family="Menlo-Regular" font-size="18.0" fill="#000000" transform="matrix(1.00, 0.00, -0.00, -1.00, 100.7, 421.0)">l</text><text xml:space="preserve" font-family="Menlo-Regular" font-size="18.0" fill="#000000" transform="matrix(1.00, 0.00, -0.00, -1.00, 111.5, 421.0)">p</text><text xml:space="preserve" font-family="Menlo-Regular" font-size="18.0" fill="#000000" transform="matrix(1.00, 0.00, -0.00, -1.00, 122.4, 421.0)">.</text><text xml:space="preserve" font-family="Menlo-Regular" font-size="18.0" fill="#000000" transform="matrix(1.00, 0.00, -0.00, -1.00, 133.2, 421.0)">t</text><text xml:space="preserve" font-family="Menlo-Regular" font-size="18.0" fill="#000000" transform="matrix(1.00, 0.00, -0.00, -1.00, 144.0, 421.0)">a</text><text xml:space="preserve" font-family="Menlo-Regular" font-size="18.0" fill="#000000" transform="matrix(1.00, 0.00, -0.00, -1.00, 154.9, 421.0)">s</text><text xml:space="preserve" font-family="Menlo-Regular" font-size="18.0" fill="#000000" transform="matrix(1.00, 0.00, -0.00, -1.00, 165.7, 421.0)">k</text><text xml:space="preserve" font-family="Menlo-Regular" font-size="18.0" fill="#000000" transform="matrix(1.00, 0.00, -0.00, -1.00, 176.5, 421.0)">(</text><text xml:space="preserve" font-family="Menlo-Regular" font-size="18.0" fill="#C8352B" transform="matrix(1.00, 0.00, -0.00, -1.00, 187.4, 421.0)">'</text><text xml:space="preserve" font-family="Menlo-Regular" font-size="18.0" fill="#C8352B" transform="matrix(1.00, 0.00, -0.00, -1.00, 198.2, 421.0)">t</text><text xml:space="preserve" font-family="Menlo-Regular" font-size="18.0" fill="#C8352B" transform="matrix(1.00, 0.00, -0.00, -1.00, 209.0, 421.0)">e</text><text xml:space="preserve" font-family="Menlo-Regular" font-size="18.0" fill="#C8352B" transform="matrix(1.00, 0.00, -0.00, -1.00, 219.9, 421.0)">m</text><text xml:space="preserve" font-family="Menlo-Regular" font-size="18.0" fill="#C8352B" transform="matrix(1.00, 0.00, -0.00, -1.00, 230.7, 421.0)">p</text><text xml:space="preserve" font-family="Menlo-Regular" font-size="18.0" fill="#C8352B" transform="matrix(1.00, 0.00, -0.00, -1.00, 241.6, 421.0)">l</text><text xml:space="preserve" font-family="Menlo-Regular" font-size="18.0" fill="#C8352B" transform="matrix(1.00, 0.00, -0.00, -1.00, 252.4, 421.0)">a</text><text xml:space="preserve" font-family="Menlo-Regular" font-size="18.0" fill="#C8352B" transform="matrix(1.00, 0.00, -0.00, -1.00, 263.2, 421.0)">t</text><text xml:space="preserve" font-family="Menlo-Regular" font-size="18.0" fill="#C8352B" transform="matrix(1.00, 0.00, -0.00, -1.00, 274.1, 421.0)">e</text><text xml:space="preserve" font-family="Menlo-Regular" font-size="18.0" fill="#C8352B" transform="matrix(1.00, 0.00, -0.00, -1.00, 284.9, 421.0)">s</text><text xml:space="preserve" font-family="Menlo-Regular" font-size="18.0" fill="#C8352B" transform="matrix(1.00, 0.00, -0.00, -1.00, 295.8, 421.0)">'</text><text xml:space="preserve" font-family="Menlo-Regular" font-size="18.0" fill="#000000" transform="matrix(1.00, 0.00, -0.00, -1.00, 306.6, 421.0)">,</text><text xml:space="preserve" font-family="Menlo-Regular" font-size="18.0" fill="#000000" transform="matrix(1.00, 0.00, -0.00, -1.00, 317.4, 421.0)"> </text><text xml:space="preserve" font-family="Menlo-Bold" font-weight="bold" font-size="18.0" fill="#008E00" transform="matrix(1.00, 0.00, -0.00, -1.00, 328.2, 421.0)">f</text><text xml:space="preserve" font-family="Menlo-Bold" font-weight="bold" font-size="18.0" fill="#008E00" transform="matrix(1.00, 0.00, -0.00, -1.00, 339.1, 421.0)">u</text><text xml:space="preserve" font-family="Menlo-Bold" font-weight="bold" font-size="18.0" fill="#008E00" transform="matrix(1.00, 0.00, -0.00, -1.00, 349.9, 421.0)">n</text><text xml:space="preserve" font-family="Menlo-Bold" font-weight="bold" font-size="18.0" fill="#008E00" transform="matrix(1.00, 0.00, -0.00, -1.00, 360.8, 421.0)">c</text><text xml:space="preserve" font-family="Menlo-Bold" font-weight="bold" font-size="18.0" fill="#008E00" transform="matrix(1.00, 0.00, -0.00, -1.00, 371.6, 421.0)">t</text><text xml:space="preserve" font-family="Menlo-Bold" font-weight="bold" font-size="18.0" fill="#008E00" transform="matrix(1.00, 0.00, -0.00, -1.00, 382.4, 421.0)">i</text><text xml:space="preserve" font-family="Menlo-Bold" font-weight="bold" font-size="18.0" fill="#008E00" transform="matrix(1.00, 0.00, -0.00, -1.00, 393.3, 421.0)">o</text><text xml:space="preserve" font-family="Menlo-Bold" font-weight="bold" font-size="18.0" fill="#008E00" transform="matrix(1.00, 0.00, -0.00, -1.00, 404.1, 421.0)">n</text><text xml:space="preserve" font-family="Menlo-Regular" font-size="18.0" fill="#000000" transform="matrix(1.00, 0.00, -0.00, -1.00, 414.9, 421.0)">(</text><text xml:space="preserve" font-family="Menlo-Regular" font-size="18.0" fill="#000000" transform="matrix(1.00, 0.00, -0.00, -1.00, 425.8, 421.0)">)</text><text xml:space="preserve" font-family="Menlo-Regular" font-size="18.0" fill="#000000" transform="matrix(1.00, 0.00, -0.00, -1.00, 436.6, 421.0)"> </text><text xml:space="preserve" font-family="Menlo-Regular" font-size="18.0" fill="#000000" transform="matrix(1.00, 0.00, -0.00, -1.00, 447.5, 421.0)">{</text><text xml:space="preserve" font-family="Monaco" font-size="18.0" fill="#000000" transform="matrix(1.00, 0.00, -0.00, -1.00, 458.3, 421.0)"> </text><text xml:space="preserve" font-family="Menlo-Regular" font-size="18.0" fill="#C8352B" transform="matrix(1.00, 0.00, -0.00, -1.00, 79.0, 395.0)"> </text><text xml:space="preserve" font-family="Menlo-Regular" font-size="18.0" fill="#C8352B" transform="matrix(1.00, 0.00, -0.00, -1.00, 89.8, 395.0)"> </text><text xml:space="preserve" font-family="Menlo-Bold" font-weight="bold" font-size="18.0" fill="#008E00" transform="matrix(1.00, 0.00, -0.00, -1.00, 100.7, 395.0)">v</text><text xml:space="preserve" font-family="Menlo-Bold" font-weight="bold" font-size="18.0" fill="#008E00" transform="matrix(1.00, 0.00, -0.00, -1.00, 111.5, 395.0)">a</text><text xml:space="preserve" font-family="Menlo-Bold" font-weight="bold" font-size="18.0" fill="#008E00" transform="matrix(1.00, 0.00, -0.00, -1.00, 122.4, 395.0)">r</text><text xml:space="preserve" font-family="Menlo-Regular" font-size="18.0" fill="#C8352B" transform="matrix(1.00, 0.00, -0.00, -1.00, 133.2, 395.0)"> </text><text xml:space="preserve" font-family="Menlo-Regular" font-size="18.0" fill="#C8352B" transform="matrix(1.00, 0.00, -0.00, -1.00, 144.0, 395.0)">L</text><text xml:space="preserve" font-family="Menlo-Regular" font-size="18.0" fill="#C8352B" transform="matrix(1.00, 0.00, -0.00, -1.00, 154.9, 395.0)">O</text><text xml:space="preserve" font-family="Menlo-Regular" font-size="18.0" fill="#C8352B" transform="matrix(1.00, 0.00, -0.00, -1.00, 165.7, 395.0)">C</text><text xml:space="preserve" font-family="Menlo-Regular" font-size="18.0" fill="#C8352B" transform="matrix(1.00, 0.00, -0.00, -1.00, 176.5, 395.0)">A</text><text xml:space="preserve" font-family="Menlo-Regular" font-size="18.0" fill="#C8352B" transform="matrix(1.00, 0.00, -0.00, -1.00, 187.4, 395.0)">L</text><text xml:space="preserve" font-family="Menlo-Regular" font-size="18.0" fill="#C8352B" transform="matrix(1.00, 0.00, -0.00, -1.00, 198.2, 395.0)">S</text><text xml:space="preserve" font-family="Menlo-Regular" font-size="18.0" fill="#C8352B" transform="matrix(1.00, 0.00, -0.00, -1.00, 209.1, 395.0)"> </text><text xml:space="preserve" font-family="Menlo-Regular" font-size="18.0" fill="#797979" transform="matrix(1.00, 0.00, -0.00, -1.00, 219.9, 395.0)">=</text><text xml:space="preserve" font-family="Menlo-Regular" font-size="18.0" fill="#C8352B" transform="matrix(1.00, 0.00, -0.00, -1.00, 230.7, 395.0)"> </text><text xml:space="preserve" font-family="Menlo-Regular" font-size="18.0" fill="#000000" transform="matrix(1.00, 0.00, -0.00, -1.00, 241.6, 395.0)">{</text><text xml:space="preserve" font-family="Menlo-Regular" font-size="18.0" fill="#000000" transform="matrix(1.00, 0.00, -0.00, -1.00, 252.4, 395.0)">}</text><text xml:space="preserve" font-family="Menlo-Regular" font-size="18.0" fill="#000000" transform="matrix(1.00, 0.00, -0.00, -1.00, 263.2, 395.0)">;</text><text xml:space="preserve" font-family="Monaco" font-size="18.0" fill="#C8352B" transform="matrix(1.00, 0.00, -0.00, -1.00, 274.1, 395.0)"> </text><text xml:space="preserve" font-family="Menlo-Regular" font-size="18.0" fill="#000000" transform="matrix(1.00, 0.00, -0.00, -1.00, 79.0, 370.0)"> </text><text xml:space="preserve" font-family="Menlo-Regular" font-size="18.0" fill="#000000" transform="matrix(1.00, 0.00, -0.00, -1.00, 89.8, 370.0)"> </text><text xml:space="preserve" font-family="Menlo-Regular" font-size="18.0" fill="#000000" transform="matrix(1.00, 0.00, -0.00, -1.00, 100.7, 370.0)">g</text><text xml:space="preserve" font-family="Menlo-Regular" font-size="18.0" fill="#000000" transform="matrix(1.00, 0.00, -0.00, -1.00, 111.5, 370.0)">u</text><text xml:space="preserve" font-family="Menlo-Regular" font-size="18.0" fill="#000000" transform="matrix(1.00, 0.00, -0.00, -1.00, 122.4, 370.0)">l</text><text xml:space="preserve" font-family="Menlo-Regular" font-size="18.0" fill="#000000" transform="matrix(1.00, 0.00, -0.00, -1.00, 133.2, 370.0)">p</text><text xml:space="preserve" font-family="Menlo-Regular" font-size="18.0" fill="#000000" transform="matrix(1.00, 0.00, -0.00, -1.00, 144.0, 370.0)">.</text><text xml:space="preserve" font-family="Menlo-Regular" font-size="18.0" fill="#000000" transform="matrix(1.00, 0.00, -0.00, -1.00, 154.9, 370.0)">s</text><text xml:space="preserve" font-family="Menlo-Regular" font-size="18.0" fill="#000000" transform="matrix(1.00, 0.00, -0.00, -1.00, 165.7, 370.0)">r</text><text xml:space="preserve" font-family="Menlo-Regular" font-size="18.0" fill="#000000" transform="matrix(1.00, 0.00, -0.00, -1.00, 176.5, 370.0)">c</text><text xml:space="preserve" font-family="Menlo-Regular" font-size="18.0" fill="#000000" transform="matrix(1.00, 0.00, -0.00, -1.00, 187.4, 370.0)">(</text><text xml:space="preserve" font-family="Menlo-Regular" font-size="18.0" fill="#000000" transform="matrix(1.00, 0.00, -0.00, -1.00, 198.2, 370.0)">[</text><text xml:space="preserve" font-family="Menlo-Regular" font-size="18.0" fill="#C8352B" transform="matrix(1.00, 0.00, -0.00, -1.00, 209.0, 370.0)">'</text><text xml:space="preserve" font-family="Menlo-Regular" font-size="18.0" fill="#C8352B" transform="matrix(1.00, 0.00, -0.00, -1.00, 219.9, 370.0)">*</text><text xml:space="preserve" font-family="Menlo-Regular" font-size="18.0" fill="#C8352B" transform="matrix(1.00, 0.00, -0.00, -1.00, 230.7, 370.0)">*</text><text xml:space="preserve" font-family="Menlo-Regular" font-size="18.0" fill="#C8352B" transform="matrix(1.00, 0.00, -0.00, -1.00, 241.6, 370.0)">/</text><text xml:space="preserve" font-family="Menlo-Regular" font-size="18.0" fill="#C8352B" transform="matrix(1.00, 0.00, -0.00, -1.00, 252.4, 370.0)">*</text><text xml:space="preserve" font-family="Menlo-Regular" font-size="18.0" fill="#C8352B" transform="matrix(1.00, 0.00, -0.00, -1.00, 263.2, 370.0)">.</text><text xml:space="preserve" font-family="Menlo-Regular" font-size="18.0" fill="#C8352B" transform="matrix(1.00, 0.00, -0.00, -1.00, 274.1, 370.0)">j</text><text xml:space="preserve" font-family="Menlo-Regular" font-size="18.0" fill="#C8352B" transform="matrix(1.00, 0.00, -0.00, -1.00, 284.9, 370.0)">a</text><text xml:space="preserve" font-family="Menlo-Regular" font-size="18.0" fill="#C8352B" transform="matrix(1.00, 0.00, -0.00, -1.00, 295.8, 370.0)">d</text><text xml:space="preserve" font-family="Menlo-Regular" font-size="18.0" fill="#C8352B" transform="matrix(1.00, 0.00, -0.00, -1.00, 306.6, 370.0)">e</text><text xml:space="preserve" font-family="Menlo-Regular" font-size="18.0" fill="#C8352B" transform="matrix(1.00, 0.00, -0.00, -1.00, 317.4, 370.0)">'</text><text xml:space="preserve" font-family="Menlo-Regular" font-size="18.0" fill="#000000" transform="matrix(1.00, 0.00, -0.00, -1.00, 328.2, 370.0)">,</text><text xml:space="preserve" font-family="Menlo-Regular" font-size="18.0" fill="#000000" transform="matrix(1.00, 0.00, -0.00, -1.00, 339.1, 370.0)"> </text><text xml:space="preserve" font-family="Menlo-Regular" font-size="18.0" fill="#C8352B" transform="matrix(1.00, 0.00, -0.00, -1.00, 349.9, 370.0)">'</text><text xml:space="preserve" font-family="Menlo-Regular" font-size="18.0" fill="#C8352B" transform="matrix(1.00, 0.00, -0.00, -1.00, 360.8, 370.0)">!</text><text xml:space="preserve" font-family="Menlo-Regular" font-size="18.0" fill="#C8352B" transform="matrix(1.00, 0.00, -0.00, -1.00, 371.6, 370.0)">.</text><text xml:space="preserve" font-family="Menlo-Regular" font-size="18.0" fill="#C8352B" transform="matrix(1.00, 0.00, -0.00, -1.00, 382.4, 370.0)">/</text><text xml:space="preserve" font-family="Menlo-Regular" font-size="18.0" fill="#C8352B" transform="matrix(1.00, 0.00, -0.00, -1.00, 393.3, 370.0)">n</text><text xml:space="preserve" font-family="Menlo-Regular" font-size="18.0" fill="#C8352B" transform="matrix(1.00, 0.00, -0.00, -1.00, 404.1, 370.0)">o</text><text xml:space="preserve" font-family="Menlo-Regular" font-size="18.0" fill="#C8352B" transform="matrix(1.00, 0.00, -0.00, -1.00, 415.0, 370.0)">d</text><text xml:space="preserve" font-family="Menlo-Regular" font-size="18.0" fill="#C8352B" transform="matrix(1.00, 0.00, -0.00, -1.00, 425.8, 370.0)">e</text><text xml:space="preserve" font-family="Menlo-Regular" font-size="18.0" fill="#C8352B" transform="matrix(1.00, 0.00, -0.00, -1.00, 436.6, 370.0)">_</text><text xml:space="preserve" font-family="Menlo-Regular" font-size="18.0" fill="#C8352B" transform="matrix(1.00, 0.00, -0.00, -1.00, 447.5, 370.0)">m</text><text xml:space="preserve" font-family="Menlo-Regular" font-size="18.0" fill="#C8352B" transform="matrix(1.00, 0.00, -0.00, -1.00, 458.3, 370.0)">o</text><text xml:space="preserve" font-family="Menlo-Regular" font-size="18.0" fill="#C8352B" transform="matrix(1.00, 0.00, -0.00, -1.00, 469.1, 370.0)">d</text><text xml:space="preserve" font-family="Menlo-Regular" font-size="18.0" fill="#C8352B" transform="matrix(1.00, 0.00, -0.00, -1.00, 480.0, 370.0)">u</text><text xml:space="preserve" font-family="Menlo-Regular" font-size="18.0" fill="#C8352B" transform="matrix(1.00, 0.00, -0.00, -1.00, 490.8, 370.0)">l</text><text xml:space="preserve" font-family="Menlo-Regular" font-size="18.0" fill="#C8352B" transform="matrix(1.00, 0.00, -0.00, -1.00, 501.7, 370.0)">e</text><text xml:space="preserve" font-family="Menlo-Regular" font-size="18.0" fill="#C8352B" transform="matrix(1.00, 0.00, -0.00, -1.00, 512.5, 370.0)">s</text><text xml:space="preserve" font-family="Menlo-Regular" font-size="18.0" fill="#C8352B" transform="matrix(1.00, 0.00, -0.00, -1.00, 523.3, 370.0)">/</text><text xml:space="preserve" font-family="Menlo-Regular" font-size="18.0" fill="#C8352B" transform="matrix(1.00, 0.00, -0.00, -1.00, 534.2, 370.0)">*</text><text xml:space="preserve" font-family="Menlo-Regular" font-size="18.0" fill="#C8352B" transform="matrix(1.00, 0.00, -0.00, -1.00, 545.0, 370.0)">*</text><text xml:space="preserve" font-family="Menlo-Regular" font-size="18.0" fill="#C8352B" transform="matrix(1.00, 0.00, -0.00, -1.00, 555.9, 370.0)">'</text><text xml:space="preserve" font-family="Menlo-Regular" font-size="18.0" fill="#000000" transform="matrix(1.00, 0.00, -0.00, -1.00, 566.7, 370.0)">,</text><text xml:space="preserve" font-family="Menlo-Regular" font-size="18.0" fill="#000000" transform="matrix(1.00, 0.00, -0.00, -1.00, 577.5, 370.0)"> </text><text xml:space="preserve" font-family="Menlo-Regular" font-size="18.0" fill="#C8352B" transform="matrix(1.00, 0.00, -0.00, -1.00, 588.3, 370.0)">'</text><text xml:space="preserve" font-family="Menlo-Regular" font-size="18.0" fill="#C8352B" transform="matrix(1.00, 0.00, -0.00, -1.00, 599.2, 370.0)">!</text><text xml:space="preserve" font-family="Menlo-Regular" font-size="18.0" fill="#C8352B" transform="matrix(1.00, 0.00, -0.00, -1.00, 610.0, 370.0)">.</text><text xml:space="preserve" font-family="Menlo-Regular" font-size="18.0" fill="#C8352B" transform="matrix(1.00, 0.00, -0.00, -1.00, 620.9, 370.0)">/</text><text xml:space="preserve" font-family="Menlo-Regular" font-size="18.0" fill="#C8352B" transform="matrix(1.00, 0.00, -0.00, -1.00, 631.7, 370.0)">d</text><text xml:space="preserve" font-family="Menlo-Regular" font-size="18.0" fill="#C8352B" transform="matrix(1.00, 0.00, -0.00, -1.00, 642.5, 370.0)">i</text><text xml:space="preserve" font-family="Menlo-Regular" font-size="18.0" fill="#C8352B" transform="matrix(1.00, 0.00, -0.00, -1.00, 653.4, 370.0)">s</text><text xml:space="preserve" font-family="Menlo-Regular" font-size="18.0" fill="#C8352B" transform="matrix(1.00, 0.00, -0.00, -1.00, 664.2, 370.0)">t</text><text xml:space="preserve" font-family="Menlo-Regular" font-size="18.0" fill="#C8352B" transform="matrix(1.00, 0.00, -0.00, -1.00, 675.0, 370.0)">/</text><text xml:space="preserve" font-family="Menlo-Regular" font-size="18.0" fill="#C8352B" transform="matrix(1.00, 0.00, -0.00, -1.00, 685.9, 370.0)">*</text><text xml:space="preserve" font-family="Menlo-Regular" font-size="18.0" fill="#C8352B" transform="matrix(1.00, 0.00, -0.00, -1.00, 696.7, 370.0)">*</text><text xml:space="preserve" font-family="Menlo-Regular" font-size="18.0" fill="#C8352B" transform="matrix(1.00, 0.00, -0.00, -1.00, 707.6, 370.0)">'</text><text xml:space="preserve" font-family="Menlo-Regular" font-size="18.0" fill="#000000" transform="matrix(1.00, 0.00, -0.00, -1.00, 718.4, 370.0)">,</text><text xml:space="preserve" font-family="Menlo-Regular" font-size="18.0" fill="#000000" transform="matrix(1.00, 0.00, -0.00, -1.00, 729.2, 370.0)"> </text><text xml:space="preserve" font-family="Menlo-Regular" font-size="18.0" fill="#C8352B" transform="matrix(1.00, 0.00, -0.00, -1.00, 740.1, 370.0)">'</text><text xml:space="preserve" font-family="Menlo-Regular" font-size="18.0" fill="#C8352B" transform="matrix(1.00, 0.00, -0.00, -1.00, 750.9, 370.0)">!</text><text xml:space="preserve" font-family="Menlo-Regular" font-size="18.0" fill="#C8352B" transform="matrix(1.00, 0.00, -0.00, -1.00, 761.7, 370.0)">.</text><text xml:space="preserve" font-family="Menlo-Regular" font-size="18.0" fill="#C8352B" transform="matrix(1.00, 0.00, -0.00, -1.00, 772.6, 370.0)">/</text><text xml:space="preserve" font-family="Menlo-Regular" font-size="18.0" fill="#C8352B" transform="matrix(1.00, 0.00, -0.00, -1.00, 783.4, 370.0)">i</text><text xml:space="preserve" font-family="Menlo-Regular" font-size="18.0" fill="#C8352B" transform="matrix(1.00, 0.00, -0.00, -1.00, 794.2, 370.0)">n</text><text xml:space="preserve" font-family="Menlo-Regular" font-size="18.0" fill="#C8352B" transform="matrix(1.00, 0.00, -0.00, -1.00, 805.1, 370.0)">c</text><text xml:space="preserve" font-family="Menlo-Regular" font-size="18.0" fill="#C8352B" transform="matrix(1.00, 0.00, -0.00, -1.00, 815.9, 370.0)">l</text><text xml:space="preserve" font-family="Menlo-Regular" font-size="18.0" fill="#C8352B" transform="matrix(1.00, 0.00, -0.00, -1.00, 826.8, 370.0)">u</text><text xml:space="preserve" font-family="Menlo-Regular" font-size="18.0" fill="#C8352B" transform="matrix(1.00, 0.00, -0.00, -1.00, 837.6, 370.0)">d</text><text xml:space="preserve" font-family="Menlo-Regular" font-size="18.0" fill="#C8352B" transform="matrix(1.00, 0.00, -0.00, -1.00, 848.4, 370.0)">e</text><text xml:space="preserve" font-family="Menlo-Regular" font-size="18.0" fill="#C8352B" transform="matrix(1.00, 0.00, -0.00, -1.00, 859.3, 370.0)">s</text><text xml:space="preserve" font-family="Menlo-Regular" font-size="18.0" fill="#C8352B" transform="matrix(1.00, 0.00, -0.00, -1.00, 870.1, 370.0)">/</text><text xml:space="preserve" font-family="Menlo-Regular" font-size="18.0" fill="#C8352B" transform="matrix(1.00, 0.00, -0.00, -1.00, 881.0, 370.0)">*</text><text xml:space="preserve" font-family="Menlo-Regular" font-size="18.0" fill="#C8352B" transform="matrix(1.00, 0.00, -0.00, -1.00, 891.8, 370.0)">*</text><text xml:space="preserve" font-family="Menlo-Regular" font-size="18.0" fill="#C8352B" transform="matrix(1.00, 0.00, -0.00, -1.00, 902.6, 370.0)">'</text><text xml:space="preserve" font-family="Menlo-Regular" font-size="18.0" fill="#000000" transform="matrix(1.00, 0.00, -0.00, -1.00, 913.4, 370.0)">]</text><text xml:space="preserve" font-family="Menlo-Regular" font-size="18.0" fill="#000000" transform="matrix(1.00, 0.00, -0.00, -1.00, 924.3, 370.0)">)</text><text xml:space="preserve" font-family="Monaco" font-size="18.0" fill="#000000" transform="matrix(1.00, 0.00, -0.00, -1.00, 935.1, 370.0)"> </text><text xml:space="preserve" font-family="Menlo-Regular" font-size="18.0" fill="#C8352B" transform="matrix(1.00, 0.00, -0.00, -1.00, 79.0, 345.0)"> </text><text xml:space="preserve" font-family="Menlo-Regular" font-size="18.0" fill="#C8352B" transform="matrix(1.00, 0.00, -0.00, -1.00, 89.8, 345.0)"> </text><text xml:space="preserve" font-family="Menlo-Regular" font-size="18.0" fill="#C8352B" transform="matrix(1.00, 0.00, -0.00, -1.00, 100.7, 345.0)"> </text><text xml:space="preserve" font-family="Menlo-Regular" font-size="18.0" fill="#C8352B" transform="matrix(1.00, 0.00, -0.00, -1.00, 111.5, 345.0)"> </text><text xml:space="preserve" font-family="Menlo-Regular" font-size="18.0" fill="#000000" transform="matrix(1.00, 0.00, -0.00, -1.00, 122.3, 345.0)">.</text><text xml:space="preserve" font-family="Menlo-Regular" font-size="18.0" fill="#000000" transform="matrix(1.00, 0.00, -0.00, -1.00, 133.2, 345.0)">p</text><text xml:space="preserve" font-family="Menlo-Regular" font-size="18.0" fill="#000000" transform="matrix(1.00, 0.00, -0.00, -1.00, 144.0, 345.0)">i</text><text xml:space="preserve" font-family="Menlo-Regular" font-size="18.0" fill="#000000" transform="matrix(1.00, 0.00, -0.00, -1.00, 154.9, 345.0)">p</text><text xml:space="preserve" font-family="Menlo-Regular" font-size="18.0" fill="#000000" transform="matrix(1.00, 0.00, -0.00, -1.00, 165.7, 345.0)">e</text><text xml:space="preserve" font-family="Menlo-Regular" font-size="18.0" fill="#000000" transform="matrix(1.00, 0.00, -0.00, -1.00, 176.5, 345.0)">(</text><text xml:space="preserve" font-family="Menlo-Regular" font-size="18.0" fill="#000000" transform="matrix(1.00, 0.00, -0.00, -1.00, 187.4, 345.0)">j</text><text xml:space="preserve" font-family="Menlo-Regular" font-size="18.0" fill="#000000" transform="matrix(1.00, 0.00, -0.00, -1.00, 198.2, 345.0)">a</text><text xml:space="preserve" font-family="Menlo-Regular" font-size="18.0" fill="#000000" transform="matrix(1.00, 0.00, -0.00, -1.00, 209.1, 345.0)">d</text><text xml:space="preserve" font-family="Menlo-Regular" font-size="18.0" fill="#000000" transform="matrix(1.00, 0.00, -0.00, -1.00, 219.9, 345.0)">e</text><text xml:space="preserve" font-family="Menlo-Regular" font-size="18.0" fill="#000000" transform="matrix(1.00, 0.00, -0.00, -1.00, 230.7, 345.0)">(</text><text xml:space="preserve" font-family="Menlo-Regular" font-size="18.0" fill="#000000" transform="matrix(1.00, 0.00, -0.00, -1.00, 241.6, 345.0)">{</text><text xml:space="preserve" font-family="Monaco" font-size="18.0" fill="#000000" transform="matrix(1.00, 0.00, -0.00, -1.00, 252.4, 345.0)"> </text><text xml:space="preserve" font-family="Menlo-Regular" font-size="18.0" fill="#000000" transform="matrix(1.00, 0.00, -0.00, -1.00, 79.0, 320.0)"> </text><text xml:space="preserve" font-family="Menlo-Regular" font-size="18.0" fill="#000000" transform="matrix(1.00, 0.00, -0.00, -1.00, 89.8, 320.0)"> </text><text xml:space="preserve" font-family="Menlo-Regular" font-size="18.0" fill="#000000" transform="matrix(1.00, 0.00, -0.00, -1.00, 100.7, 320.0)"> </text><text xml:space="preserve" font-family="Menlo-Regular" font-size="18.0" fill="#000000" transform="matrix(1.00, 0.00, -0.00, -1.00, 111.5, 320.0)"> </text><text xml:space="preserve" font-family="Menlo-Regular" font-size="18.0" fill="#000000" transform="matrix(1.00, 0.00, -0.00, -1.00, 122.4, 320.0)"> </text><text xml:space="preserve" font-family="Menlo-Regular" font-size="18.0" fill="#000000" transform="matrix(1.00, 0.00, -0.00, -1.00, 133.2, 320.0)"> </text><text xml:space="preserve" font-family="Menlo-Regular" font-size="18.0" fill="#000000" transform="matrix(1.00, 0.00, -0.00, -1.00, 144.0, 320.0)">l</text><text xml:space="preserve" font-family="Menlo-Regular" font-size="18.0" fill="#000000" transform="matrix(1.00, 0.00, -0.00, -1.00, 154.9, 320.0)">o</text><text xml:space="preserve" font-family="Menlo-Regular" font-size="18.0" fill="#000000" transform="matrix(1.00, 0.00, -0.00, -1.00, 165.7, 320.0)">c</text><text xml:space="preserve" font-family="Menlo-Regular" font-size="18.0" fill="#000000" transform="matrix(1.00, 0.00, -0.00, -1.00, 176.5, 320.0)">a</text><text xml:space="preserve" font-family="Menlo-Regular" font-size="18.0" fill="#000000" transform="matrix(1.00, 0.00, -0.00, -1.00, 187.4, 320.0)">l</text><text xml:space="preserve" font-family="Menlo-Regular" font-size="18.0" fill="#000000" transform="matrix(1.00, 0.00, -0.00, -1.00, 198.2, 320.0)">s</text><text xml:space="preserve" font-family="Menlo-Regular" font-size="18.0" fill="#000000" transform="matrix(1.00, 0.00, -0.00, -1.00, 209.1, 320.0)">:</text><text xml:space="preserve" font-family="Menlo-Regular" font-size="18.0" fill="#000000" transform="matrix(1.00, 0.00, -0.00, -1.00, 219.9, 320.0)"> </text><text xml:space="preserve" font-family="Menlo-Regular" font-size="18.0" fill="#000000" transform="matrix(1.00, 0.00, -0.00, -1.00, 230.7, 320.0)">L</text><text xml:space="preserve" font-family="Menlo-Regular" font-size="18.0" fill="#000000" transform="matrix(1.00, 0.00, -0.00, -1.00, 241.6, 320.0)">O</text><text xml:space="preserve" font-family="Menlo-Regular" font-size="18.0" fill="#000000" transform="matrix(1.00, 0.00, -0.00, -1.00, 252.4, 320.0)">C</text><text xml:space="preserve" font-family="Menlo-Regular" font-size="18.0" fill="#000000" transform="matrix(1.00, 0.00, -0.00, -1.00, 263.3, 320.0)">A</text><text xml:space="preserve" font-family="Menlo-Regular" font-size="18.0" fill="#000000" transform="matrix(1.00, 0.00, -0.00, -1.00, 274.1, 320.0)">L</text><text xml:space="preserve" font-family="Menlo-Regular" font-size="18.0" fill="#000000" transform="matrix(1.00, 0.00, -0.00, -1.00, 284.9, 320.0)">S</text><text xml:space="preserve" font-family="Monaco" font-size="18.0" fill="#000000" transform="matrix(1.00, 0.00, -0.00, -1.00, 295.7, 320.0)"> </text><text xml:space="preserve" font-family="Menlo-Regular" font-size="18.0" fill="#000000" transform="matrix(1.00, 0.00, -0.00, -1.00, 79.0, 295.0)"> </text><text xml:space="preserve" font-family="Menlo-Regular" font-size="18.0" fill="#000000" transform="matrix(1.00, 0.00, -0.00, -1.00, 89.8, 295.0)"> </text><text xml:space="preserve" font-family="Menlo-Regular" font-size="18.0" fill="#000000" transform="matrix(1.00, 0.00, -0.00, -1.00, 100.7, 295.0)"> </text><text xml:space="preserve" font-family="Menlo-Regular" font-size="18.0" fill="#000000" transform="matrix(1.00, 0.00, -0.00, -1.00, 111.5, 295.0)"> </text><text xml:space="preserve" font-family="Menlo-Regular" font-size="18.0" fill="#000000" transform="matrix(1.00, 0.00, -0.00, -1.00, 122.4, 295.0)">}</text><text xml:space="preserve" font-family="Menlo-Regular" font-size="18.0" fill="#000000" transform="matrix(1.00, 0.00, -0.00, -1.00, 133.2, 295.0)">)</text><text xml:space="preserve" font-family="Menlo-Regular" font-size="18.0" fill="#000000" transform="matrix(1.00, 0.00, -0.00, -1.00, 144.0, 295.0)">)</text><text xml:space="preserve" font-family="Monaco" font-size="18.0" fill="#000000" transform="matrix(1.00, 0.00, -0.00, -1.00, 154.9, 295.0)"> </text><text xml:space="preserve" font-family="Menlo-Regular" font-size="18.0" fill="#000000" transform="matrix(1.00, 0.00, -0.00, -1.00, 79.0, 269.0)"> </text><text xml:space="preserve" font-family="Menlo-Regular" font-size="18.0" fill="#000000" transform="matrix(1.00, 0.00, -0.00, -1.00, 89.8, 269.0)"> </text><text xml:space="preserve" font-family="Menlo-Regular" font-size="18.0" fill="#000000" transform="matrix(1.00, 0.00, -0.00, -1.00, 100.7, 269.0)"> </text><text xml:space="preserve" font-family="Menlo-Regular" font-size="18.0" fill="#000000" transform="matrix(1.00, 0.00, -0.00, -1.00, 111.5, 269.0)"> </text><text xml:space="preserve" font-family="Menlo-Regular" font-size="18.0" fill="#000000" transform="matrix(1.00, 0.00, -0.00, -1.00, 122.4, 269.0)">.</text><text xml:space="preserve" font-family="Menlo-Regular" font-size="18.0" fill="#000000" transform="matrix(1.00, 0.00, -0.00, -1.00, 133.2, 269.0)">p</text><text xml:space="preserve" font-family="Menlo-Regular" font-size="18.0" fill="#000000" transform="matrix(1.00, 0.00, -0.00, -1.00, 144.0, 269.0)">i</text><text xml:space="preserve" font-family="Menlo-Regular" font-size="18.0" fill="#000000" transform="matrix(1.00, 0.00, -0.00, -1.00, 154.9, 269.0)">p</text><text xml:space="preserve" font-family="Menlo-Regular" font-size="18.0" fill="#000000" transform="matrix(1.00, 0.00, -0.00, -1.00, 165.7, 269.0)">e</text><text xml:space="preserve" font-family="Menlo-Regular" font-size="18.0" fill="#000000" transform="matrix(1.00, 0.00, -0.00, -1.00, 176.5, 269.0)">(</text><text xml:space="preserve" font-family="Menlo-Regular" font-size="18.0" fill="#000000" transform="matrix(1.00, 0.00, -0.00, -1.00, 187.4, 269.0)">g</text><text xml:space="preserve" font-family="Menlo-Regular" font-size="18.0" fill="#000000" transform="matrix(1.00, 0.00, -0.00, -1.00, 198.2, 269.0)">u</text><text xml:space="preserve" font-family="Menlo-Regular" font-size="18.0" fill="#000000" transform="matrix(1.00, 0.00, -0.00, -1.00, 209.1, 269.0)">l</text><text xml:space="preserve" font-family="Menlo-Regular" font-size="18.0" fill="#000000" transform="matrix(1.00, 0.00, -0.00, -1.00, 219.9, 269.0)">p</text><text xml:space="preserve" font-family="Menlo-Regular" font-size="18.0" fill="#000000" transform="matrix(1.00, 0.00, -0.00, -1.00, 230.7, 269.0)">.</text><text xml:space="preserve" font-family="Menlo-Regular" font-size="18.0" fill="#000000" transform="matrix(1.00, 0.00, -0.00, -1.00, 241.6, 269.0)">d</text><text xml:space="preserve" font-family="Menlo-Regular" font-size="18.0" fill="#000000" transform="matrix(1.00, 0.00, -0.00, -1.00, 252.4, 269.0)">e</text><text xml:space="preserve" font-family="Menlo-Regular" font-size="18.0" fill="#000000" transform="matrix(1.00, 0.00, -0.00, -1.00, 263.3, 269.0)">s</text><text xml:space="preserve" font-family="Menlo-Regular" font-size="18.0" fill="#000000" transform="matrix(1.00, 0.00, -0.00, -1.00, 274.1, 269.0)">t</text><text xml:space="preserve" font-family="Menlo-Regular" font-size="18.0" fill="#000000" transform="matrix(1.00, 0.00, -0.00, -1.00, 284.9, 269.0)">(</text><text xml:space="preserve" font-family="Menlo-Regular" font-size="18.0" fill="#000000" transform="matrix(1.00, 0.00, -0.00, -1.00, 295.8, 269.0)">D</text><text xml:space="preserve" font-family="Menlo-Regular" font-size="18.0" fill="#000000" transform="matrix(1.00, 0.00, -0.00, -1.00, 306.6, 269.0)">I</text><text xml:space="preserve" font-family="Menlo-Regular" font-size="18.0" fill="#000000" transform="matrix(1.00, 0.00, -0.00, -1.00, 317.5, 269.0)">S</text><text xml:space="preserve" font-family="Menlo-Regular" font-size="18.0" fill="#000000" transform="matrix(1.00, 0.00, -0.00, -1.00, 328.3, 269.0)">T</text><text xml:space="preserve" font-family="Menlo-Regular" font-size="18.0" fill="#000000" transform="matrix(1.00, 0.00, -0.00, -1.00, 339.1, 269.0)">)</text><text xml:space="preserve" font-family="Menlo-Regular" font-size="18.0" fill="#000000" transform="matrix(1.00, 0.00, -0.00, -1.00, 350.0, 269.0)">)</text><text xml:space="preserve" font-family="Menlo-Regular" font-size="18.0" fill="#000000" transform="matrix(1.00, 0.00, -0.00, -1.00, 360.8, 269.0)">;</text><text xml:space="preserve" font-family="Monaco" font-size="18.0" fill="#000000" transform="matrix(1.00, 0.00, -0.00, -1.00, 371.6, 269.0)"> </text><text xml:space="preserve" font-family="Menlo-Regular" font-size="18.0" fill="#000000" transform="matrix(1.00, 0.00, -0.00, -1.00, 79.0, 244.0)">}</text><text xml:space="preserve" font-family="Menlo-Regular" font-size="18.0" fill="#000000" transform="matrix(1.00, 0.00, -0.00, -1.00, 89.8, 244.0)">)</text><text xml:space="preserve" font-family="Menlo-Regular" font-size="18.0" fill="#000000" transform="matrix(1.00, 0.00, -0.00, -1.00, 100.7, 244.0)">;</text><text xml:space="preserve" font-family="Helvetica-Light" font-size="36.0" fill="#000000" transform="matrix(1.00, 0.00, -0.00, -1.00, 79.0, 201.0)">d</text><text xml:space="preserve" font-family="Helvetica-Light" font-size="36.0" fill="#000000" transform="matrix(1.00, 0.00, -0.00, -1.00, 101.0, 201.0)">e</text><text xml:space="preserve" font-family="Helvetica-Light" font-size="36.0" fill="#000000" transform="matrix(1.00, 0.00, -0.00, -1.00, 121.0, 201.0)">f</text><text xml:space="preserve" font-family="Helvetica-Light" font-size="36.0" fill="#000000" transform="matrix(1.00, 0.00, -0.00, -1.00, 131.0, 201.0)">a</text><text xml:space="preserve" font-family="Helvetica-Light" font-size="36.0" fill="#000000" transform="matrix(1.00, 0.00, -0.00, -1.00, 151.0, 201.0)">u</text><text xml:space="preserve" font-family="Helvetica-Light" font-size="36.0" fill="#000000" transform="matrix(1.00, 0.00, -0.00, -1.00, 171.1, 201.0)">l</text><text xml:space="preserve" font-family="Helvetica-Light" font-size="36.0" fill="#000000" transform="matrix(1.00, 0.00, -0.00, -1.00, 179.0, 201.0)">t</text><text xml:space="preserve" font-family="Helvetica-Light" font-size="36.0" fill="#000000" transform="matrix(1.00, 0.00, -0.00, -1.00, 189.1, 201.0)"> </text><text xml:space="preserve" font-family="Helvetica-Light" font-size="36.0" fill="#000000" transform="matrix(1.00, 0.00, -0.00, -1.00, 199.1, 201.0)">t</text><text xml:space="preserve" font-family="Helvetica-Light" font-size="36.0" fill="#000000" transform="matrix(1.00, 0.00, -0.00, -1.00, 209.1, 201.0)">a</text><text xml:space="preserve" font-family="Helvetica-Light" font-size="36.0" fill="#000000" transform="matrix(1.00, 0.00, -0.00, -1.00, 229.1, 201.0)">s</text><text xml:space="preserve" font-family="Helvetica-Light" font-size="36.0" fill="#000000" transform="matrix(1.00, 0.00, -0.00, -1.00, 247.1, 201.0)">k</text><text xml:space="preserve" font-family="Helvetica-Light" font-size="36.0" fill="#000000" transform="matrix(1.00, 0.00, -0.00, -1.00, 79.0, 149.0)">p</text><text xml:space="preserve" font-family="Helvetica-Light" font-size="36.0" fill="#000000" transform="matrix(1.00, 0.00, -0.00, -1.00, 101.0, 149.0)">i</text><text xml:space="preserve" font-family="Helvetica-Light" font-size="36.0" fill="#000000" transform="matrix(1.00, 0.00, -0.00, -1.00, 109.0, 149.0)">p</text><text xml:space="preserve" font-family="Helvetica-Light" font-size="36.0" fill="#000000" transform="matrix(1.00, 0.00, -0.00, -1.00, 131.0, 149.0)">e</text><text xml:space="preserve" font-family="Helvetica-Light" font-size="36.0" fill="#000000" transform="matrix(1.00, 0.00, -0.00, -1.00, 151.0, 149.0)">s</text></g></svg>