<?xml version="1.0" encoding="UTF-8" standalone="no"?><svg xmlns="http://www.w3.org/2000/svg" xmlns:xlink="http://www.w3.org/1999/xlink" clip-rule="evenodd" stroke-miterlimit="4.00" viewBox="0 0 524 61"><desc>SVG generated by Keynote</desc><defs></defs><g transform="matrix(1.00, 0.00, -0.00, -1.00, 0.0, 61.0)"><text xml:space="preserve" font-family="Helvetica-Light" font-size="80.0" fill="#000000" transform="matrix(1.00, 0.00, -0.00, -1.00, -2.0, 2.0)">a</text><text xml:space="preserve" font-family="Helvetica-Light" font-size="80.0" fill="#000000" transform="matrix(1.00, 0.00, -0.00, -1.00, 42.5, 2.0)">v</text><text xml:space="preserve" font-family="Helvetica-Light" font-size="80.0" fill="#000000" transform="matrix(1.00, 0.00, -0.00, -1.00, 82.5, 2.0)">a</text><text xml:space="preserve" font-family="Helvetica-Light" font-size="80.0" fill="#000000" transform="matrix(1.00, 0.00, -0.00, -1.00, 127.0, 2.0)">n</text><text xml:space="preserve" font-family="Helvetica-Light" font-size="80.0" fill="#000000" transform="matrix(1.00, 0.00, -0.00, -1.00, 171.4, 2.0)">t</text><text xml:space="preserve" font-family="Helvetica-Light" font-size="80.0" fill="#000000" transform="matrix(1.00, 0.00, -0.00, -1.00, 193.7, 2.0)"> </text><text xml:space="preserve" font-family="Helvetica-Light" font-size="80.0" fill="#000000" transform="matrix(1.00, 0.00, -0.00, -1.00, 215.9, 2.0)">F</text><text xml:space="preserve" font-family="Helvetica-Light" font-size="80.0" fill="#000000" transform="matrix(1.00, 0.00, -0.00, -1.00, 260.4, 2.0)">i</text><text xml:space="preserve" font-family="Helvetica-Light" font-size="80.0" fill="#000000" transform="matrix(1.00, 0.00, -0.00, -1.00, 278.2, 2.0)">r</text><text xml:space="preserve" font-family="Helvetica-Light" font-size="80.0" fill="#000000" transform="matrix(1.00, 0.00, -0.00, -1.00, 303.4, 2.0)">e</text><text xml:space="preserve" font-family="Helvetica-Light" font-size="80.0" fill="#000000" transform="matrix(1.00, 0.00, -0.00, -1.00, 347.8, 2.0)">b</text><text xml:space="preserve" font-family="Helvetica-Light" font-size="80.0" fill="#000000" transform="matrix(1.00, 0.00, -0.00, -1.00, 396.7, 2.0)">a</text><text xml:space="preserve" font-family="Helvetica-Light" font-size="80.0" fill="#000000" transform="matrix(1.00, 0.00, -0.00, -1.00, 441.2, 2.0)">s</text><text xml:space="preserve" font-family="Helvetica-Light" font-size="80.0" fill="#000000" transform="matrix(1.00, 0.00, -0.00, -1.00, 481.2, 2.0)">e</text></g></svg>