<?xml version="1.0" encoding="UTF-8" standalone="no"?><svg xmlns="http://www.w3.org/2000/svg" xmlns:xlink="http://www.w3.org/1999/xlink" clip-rule="evenodd" stroke-miterlimit="4.00" viewBox="0 0 169 24"><desc>SVG generated by Keynote</desc><defs></defs><g transform="matrix(1.00, 0.00, -0.00, -1.00, 0.0, 24.0)"><text xml:space="preserve" font-family="Helvetica-Light" font-size="31.7" fill="#000000" transform="matrix(1.00, 0.00, -0.00, -1.00, 0.0, 1.0)">c</text><text xml:space="preserve" font-family="Helvetica-Light" font-size="31.7" fill="#000000" transform="matrix(1.00, 0.00, -0.00, -1.00, 17.6, 1.0)">o</text><text xml:space="preserve" font-family="Helvetica-Light" font-size="31.7" fill="#000000" transform="matrix(1.00, 0.00, -0.00, -1.00, 35.2, 1.0)">n</text><text xml:space="preserve" font-family="Helvetica-Light" font-size="31.7" fill="#000000" transform="matrix(1.00, 0.00, -0.00, -1.00, 52.8, 1.0)">c</text><text xml:space="preserve" font-family="Helvetica-Light" font-size="31.7" fill="#000000" transform="matrix(1.00, 0.00, -0.00, -1.00, 70.5, 1.0)">u</text><text xml:space="preserve" font-family="Helvetica-Light" font-size="31.7" fill="#000000" transform="matrix(1.00, 0.00, -0.00, -1.00, 88.1, 1.0)">r</text><text xml:space="preserve" font-family="Helvetica-Light" font-size="31.7" fill="#000000" transform="matrix(1.00, 0.00, -0.00, -1.00, 98.6, 1.0)">r</text><text xml:space="preserve" font-family="Helvetica-Light" font-size="31.7" fill="#000000" transform="matrix(1.00, 0.00, -0.00, -1.00, 108.6, 1.0)">e</text><text xml:space="preserve" font-family="Helvetica-Light" font-size="31.7" fill="#000000" transform="matrix(1.00, 0.00, -0.00, -1.00, 126.2, 1.0)">n</text><text xml:space="preserve" font-family="Helvetica-Light" font-size="31.7" fill="#000000" transform="matrix(1.00, 0.00, -0.00, -1.00, 143.8, 1.0)">t</text><text xml:space="preserve" font-family="Helvetica-Light" font-size="31.7" fill="#000000" transform="matrix(1.00, 0.00, -0.00, -1.00, 152.6, 1.0)">s</text></g></svg>