<?xml version="1.0" encoding="UTF-8" standalone="no"?><svg xmlns="http://www.w3.org/2000/svg" xmlns:xlink="http://www.w3.org/1999/xlink" clip-rule="evenodd" stroke-miterlimit="4.00" viewBox="0 0 1024 768"><desc>SVG generated by Keynote</desc><defs></defs><g transform="matrix(1.00, 0.00, -0.00, -1.00, 0.0, 768.0)"><path d="M 0.0 768.0 L 1024.0 768.0 L 1024.0 0.0 L 0.0 0.0 Z M 0.0 768.0 " fill="#FEFFFF"></path><image xlink:href="../../8E061879-9A75-42C7-8D21-63A5DFE34E30/assets/8D5D3AF820427992616EBBB33C0F5B4F.png" width="458.00" height="90.00" transform="matrix(0.60, 0.00, -0.00, -0.60, 11.0, 67.0)"></image><text xml:space="preserve" font-family="Helvetica-Light" font-size="80.0" fill="#000000" transform="matrix(1.00, 0.00, -0.00, -1.00, 202.0, 618.0)">t</text><text xml:space="preserve" font-family="Helvetica-Light" font-size="80.0" fill="#000000" transform="matrix(1.00, 0.00, -0.00, -1.00, 224.2, 618.0)">a</text><text xml:space="preserve" font-family="Helvetica-Light" font-size="80.0" fill="#000000" transform="matrix(1.00, 0.00, -0.00, -1.00, 268.7, 618.0)">b</text><text xml:space="preserve" font-family="Helvetica-Light" font-size="80.0" fill="#000000" transform="matrix(1.00, 0.00, -0.00, -1.00, 317.6, 618.0)">l</text><text xml:space="preserve" font-family="Helvetica-Light" font-size="80.0" fill="#000000" transform="matrix(1.00, 0.00, -0.00, -1.00, 335.4, 618.0)">e</text><text xml:space="preserve" font-family="Helvetica-Light" font-size="80.0" fill="#000000" transform="matrix(1.00, 0.00, -0.00, -1.00, 379.8, 618.0)"> </text><text xml:space="preserve" font-family="Helvetica-Light" font-size="80.0" fill="#000000" transform="matrix(1.00, 0.00, -0.00, -1.00, 402.1, 618.0)">d</text><text xml:space="preserve" font-family="Helvetica-Light" font-size="80.0" fill="#000000" transform="matrix(1.00, 0.00, -0.00, -1.00, 451.0, 618.0)">e</text><text xml:space="preserve" font-family="Helvetica-Light" font-size="80.0" fill="#000000" transform="matrix(1.00, 0.00, -0.00, -1.00, 495.4, 618.0)"> </text><text xml:space="preserve" font-family="Helvetica-Light" font-size="80.0" fill="#000000" transform="matrix(1.00, 0.00, -0.00, -1.00, 517.7, 618.0)">m</text><text xml:space="preserve" font-family="Helvetica-Light" font-size="80.0" fill="#000000" transform="matrix(1.00, 0.00, -0.00, -1.00, 584.3, 618.0)">a</text><text xml:space="preserve" font-family="Helvetica-Light" font-size="80.0" fill="#000000" transform="matrix(1.00, 0.00, -0.00, -1.00, 628.8, 618.0)">t</text><text xml:space="preserve" font-family="Helvetica-Light" font-size="80.0" fill="#000000" transform="matrix(1.00, 0.00, -0.00, -1.00, 651.0, 618.0)">i</text><text xml:space="preserve" font-family="Helvetica-Light" font-size="80.0" fill="#000000" transform="matrix(1.00, 0.00, -0.00, -1.00, 668.8, 618.0)">è</text><text xml:space="preserve" font-family="Helvetica-Light" font-size="80.0" fill="#000000" transform="matrix(1.00, 0.00, -0.00, -1.00, 713.3, 618.0)">r</text><text xml:space="preserve" font-family="Helvetica-Light" font-size="80.0" fill="#000000" transform="matrix(1.00, 0.00, -0.00, -1.00, 738.5, 618.0)">e</text><text xml:space="preserve" font-family="Helvetica-Light" font-size="80.0" fill="#000000" transform="matrix(1.00, 0.00, -0.00, -1.00, 783.0, 618.0)">s</text><text xml:space="preserve" font-family="Helvetica-Light" font-size="31.7" fill="#000000" transform="matrix(1.00, 0.00, -0.00, -1.00, 79.0, 526.0)">c</text><text xml:space="preserve" font-family="Helvetica-Light" font-size="31.7" fill="#000000" transform="matrix(1.00, 0.00, -0.00, -1.00, 96.6, 526.0)">’</text><text xml:space="preserve" font-family="Helvetica-Light" font-size="31.7" fill="#000000" transform="matrix(1.00, 0.00, -0.00, -1.00, 103.6, 526.0)">e</text><text xml:space="preserve" font-family="Helvetica-Light" font-size="31.7" fill="#000000" transform="matrix(1.00, 0.00, -0.00, -1.00, 121.3, 526.0)">s</text><text xml:space="preserve" font-family="Helvetica-Light" font-size="31.7" fill="#000000" transform="matrix(1.00, 0.00, -0.00, -1.00, 137.1, 526.0)">t</text><text xml:space="preserve" font-family="Helvetica-Light" font-size="31.7" fill="#000000" transform="matrix(1.00, 0.00, -0.00, -1.00, 145.9, 526.0)"> </text><text xml:space="preserve" font-family="Helvetica-Light" font-size="31.7" fill="#000000" transform="matrix(1.00, 0.00, -0.00, -1.00, 154.7, 526.0)">q</text><text xml:space="preserve" font-family="Helvetica-Light" font-size="31.7" fill="#000000" transform="matrix(1.00, 0.00, -0.00, -1.00, 174.1, 526.0)">u</text><text xml:space="preserve" font-family="Helvetica-Light" font-size="31.7" fill="#000000" transform="matrix(1.00, 0.00, -0.00, -1.00, 191.7, 526.0)">o</text><text xml:space="preserve" font-family="Helvetica-Light" font-size="31.7" fill="#000000" transform="matrix(1.00, 0.00, -0.00, -1.00, 209.3, 526.0)">i</text><text xml:space="preserve" font-family="Helvetica-Light" font-size="31.7" fill="#000000" transform="matrix(1.00, 0.00, -0.00, -1.00, 216.3, 526.0)">?</text><text xml:space="preserve" font-family="Helvetica-Light" font-size="31.7" fill="#000000" transform="matrix(1.00, 0.00, -0.00, -1.00, 79.0, 452.0)">a</text><text xml:space="preserve" font-family="Helvetica-Light" font-size="31.7" fill="#000000" transform="matrix(1.00, 0.00, -0.00, -1.00, 96.6, 452.0)">v</text><text xml:space="preserve" font-family="Helvetica-Light" font-size="31.7" fill="#000000" transform="matrix(1.00, 0.00, -0.00, -1.00, 112.5, 452.0)">a</text><text xml:space="preserve" font-family="Helvetica-Light" font-size="31.7" fill="#000000" transform="matrix(1.00, 0.00, -0.00, -1.00, 130.1, 452.0)">n</text><text xml:space="preserve" font-family="Helvetica-Light" font-size="31.7" fill="#000000" transform="matrix(1.00, 0.00, -0.00, -1.00, 147.7, 452.0)">t</text><text xml:space="preserve" font-family="Helvetica-Light" font-size="31.7" fill="#000000" transform="matrix(1.00, 0.00, -0.00, -1.00, 156.5, 452.0)"> </text><text xml:space="preserve" font-family="Helvetica-Light" font-size="31.7" fill="#000000" transform="matrix(1.00, 0.00, -0.00, -1.00, 165.3, 452.0)">F</text><text xml:space="preserve" font-family="Helvetica-Light" font-size="31.7" fill="#000000" transform="matrix(1.00, 0.00, -0.00, -1.00, 182.9, 452.0)">i</text><text xml:space="preserve" font-family="Helvetica-Light" font-size="31.7" fill="#000000" transform="matrix(1.00, 0.00, -0.00, -1.00, 189.9, 452.0)">r</text><text xml:space="preserve" font-family="Helvetica-Light" font-size="31.7" fill="#000000" transform="matrix(1.00, 0.00, -0.00, -1.00, 199.9, 452.0)">e</text><text xml:space="preserve" font-family="Helvetica-Light" font-size="31.7" fill="#000000" transform="matrix(1.00, 0.00, -0.00, -1.00, 217.5, 452.0)">b</text><text xml:space="preserve" font-family="Helvetica-Light" font-size="31.7" fill="#000000" transform="matrix(1.00, 0.00, -0.00, -1.00, 236.9, 452.0)">a</text><text xml:space="preserve" font-family="Helvetica-Light" font-size="31.7" fill="#000000" transform="matrix(1.00, 0.00, -0.00, -1.00, 254.5, 452.0)">s</text><text xml:space="preserve" font-family="Helvetica-Light" font-size="31.7" fill="#000000" transform="matrix(1.00, 0.00, -0.00, -1.00, 270.3, 452.0)">e</text><text xml:space="preserve" font-family="Helvetica-Light" font-size="31.7" fill="#000000" transform="matrix(1.00, 0.00, -0.00, -1.00, 79.0, 378.0)">M</text><text xml:space="preserve" font-family="Helvetica-Light" font-size="31.7" fill="#000000" transform="matrix(1.00, 0.00, -0.00, -1.00, 105.4, 378.0)">B</text><text xml:space="preserve" font-family="Helvetica-Light" font-size="31.7" fill="#000000" transform="matrix(1.00, 0.00, -0.00, -1.00, 126.5, 378.0)">a</text><text xml:space="preserve" font-family="Helvetica-Light" font-size="31.7" fill="#000000" transform="matrix(1.00, 0.00, -0.00, -1.00, 144.1, 378.0)">a</text><text xml:space="preserve" font-family="Helvetica-Light" font-size="31.7" fill="#000000" transform="matrix(1.00, 0.00, -0.00, -1.00, 161.7, 378.0)">S</text><text xml:space="preserve" font-family="Helvetica-Light" font-size="31.7" fill="#000000" transform="matrix(1.00, 0.00, -0.00, -1.00, 79.0, 304.0)">N</text><text xml:space="preserve" font-family="Helvetica-Light" font-size="31.7" fill="#000000" transform="matrix(1.00, 0.00, -0.00, -1.00, 101.9, 304.0)">o</text><text xml:space="preserve" font-family="Helvetica-Light" font-size="31.7" fill="#000000" transform="matrix(1.00, 0.00, -0.00, -1.00, 119.5, 304.0)">S</text><text xml:space="preserve" font-family="Helvetica-Light" font-size="31.7" fill="#000000" transform="matrix(1.00, 0.00, -0.00, -1.00, 138.8, 304.0)">Q</text><text xml:space="preserve" font-family="Helvetica-Light" font-size="31.7" fill="#000000" transform="matrix(1.00, 0.00, -0.00, -1.00, 163.5, 304.0)">L</text><text xml:space="preserve" font-family="Helvetica-Light" font-size="31.7" fill="#000000" transform="matrix(1.00, 0.00, -0.00, -1.00, 181.1, 304.0)"> </text><text xml:space="preserve" font-family="Helvetica-Light" font-size="31.7" fill="#000000" transform="matrix(1.00, 0.00, -0.00, -1.00, 189.9, 304.0)">v</text><text xml:space="preserve" font-family="Helvetica-Light" font-size="31.7" fill="#000000" transform="matrix(1.00, 0.00, -0.00, -1.00, 205.8, 304.0)">s</text><text xml:space="preserve" font-family="Helvetica-Light" font-size="31.7" fill="#000000" transform="matrix(1.00, 0.00, -0.00, -1.00, 221.6, 304.0)"> </text><text xml:space="preserve" font-family="Helvetica-Light" font-size="31.7" fill="#000000" transform="matrix(1.00, 0.00, -0.00, -1.00, 230.4, 304.0)">S</text><text xml:space="preserve" font-family="Helvetica-Light" font-size="31.7" fill="#000000" transform="matrix(1.00, 0.00, -0.00, -1.00, 249.8, 304.0)">Q</text><text xml:space="preserve" font-family="Helvetica-Light" font-size="31.7" fill="#000000" transform="matrix(1.00, 0.00, -0.00, -1.00, 274.4, 304.0)">L</text><text xml:space="preserve" font-family="Helvetica-Light" font-size="31.7" fill="#000000" transform="matrix(1.00, 0.00, -0.00, -1.00, 79.0, 230.0)">o</text><text xml:space="preserve" font-family="Helvetica-Light" font-size="31.7" fill="#000000" transform="matrix(1.00, 0.00, -0.00, -1.00, 96.6, 230.0)">A</text><text xml:space="preserve" font-family="Helvetica-Light" font-size="31.7" fill="#000000" transform="matrix(1.00, 0.00, -0.00, -1.00, 117.7, 230.0)">u</text><text xml:space="preserve" font-family="Helvetica-Light" font-size="31.7" fill="#000000" transform="matrix(1.00, 0.00, -0.00, -1.00, 135.4, 230.0)">t</text><text xml:space="preserve" font-family="Helvetica-Light" font-size="31.7" fill="#000000" transform="matrix(1.00, 0.00, -0.00, -1.00, 144.2, 230.0)">h</text><text xml:space="preserve" font-family="Helvetica-Light" font-size="31.7" fill="#000000" transform="matrix(1.00, 0.00, -0.00, -1.00, 79.0, 156.0)">c</text><text xml:space="preserve" font-family="Helvetica-Light" font-size="31.7" fill="#000000" transform="matrix(1.00, 0.00, -0.00, -1.00, 96.6, 156.0)">o</text><text xml:space="preserve" font-family="Helvetica-Light" font-size="31.7" fill="#000000" transform="matrix(1.00, 0.00, -0.00, -1.00, 114.2, 156.0)">n</text><text xml:space="preserve" font-family="Helvetica-Light" font-size="31.7" fill="#000000" transform="matrix(1.00, 0.00, -0.00, -1.00, 131.8, 156.0)">c</text><text xml:space="preserve" font-family="Helvetica-Light" font-size="31.7" fill="#000000" transform="matrix(1.00, 0.00, -0.00, -1.00, 149.5, 156.0)">u</text><text xml:space="preserve" font-family="Helvetica-Light" font-size="31.7" fill="#000000" transform="matrix(1.00, 0.00, -0.00, -1.00, 167.1, 156.0)">r</text><text xml:space="preserve" font-family="Helvetica-Light" font-size="31.7" fill="#000000" transform="matrix(1.00, 0.00, -0.00, -1.00, 177.6, 156.0)">r</text><text xml:space="preserve" font-family="Helvetica-Light" font-size="31.7" fill="#000000" transform="matrix(1.00, 0.00, -0.00, -1.00, 187.6, 156.0)">e</text><text xml:space="preserve" font-family="Helvetica-Light" font-size="31.7" fill="#000000" transform="matrix(1.00, 0.00, -0.00, -1.00, 205.2, 156.0)">n</text><text xml:space="preserve" font-family="Helvetica-Light" font-size="31.7" fill="#000000" transform="matrix(1.00, 0.00, -0.00, -1.00, 222.8, 156.0)">t</text><text xml:space="preserve" font-family="Helvetica-Light" font-size="31.7" fill="#000000" transform="matrix(1.00, 0.00, -0.00, -1.00, 231.6, 156.0)">s</text><text xml:space="preserve" font-family="Helvetica-Light" font-size="31.7" fill="#000000" transform="matrix(1.00, 0.00, -0.00, -1.00, 79.0, 83.0)">d</text><text xml:space="preserve" font-family="Helvetica-Light" font-size="31.7" fill="#000000" transform="matrix(1.00, 0.00, -0.00, -1.00, 98.4, 83.0)">e</text><text xml:space="preserve" font-family="Helvetica-Light" font-size="31.7" fill="#000000" transform="matrix(1.00, 0.00, -0.00, -1.00, 116.0, 83.0)">m</text><text xml:space="preserve" font-family="Helvetica-Light" font-size="31.7" fill="#000000" transform="matrix(1.00, 0.00, -0.00, -1.00, 142.4, 83.0)">o</text></g></svg>