<?xml version="1.0" encoding="UTF-8" standalone="no"?><svg xmlns="http://www.w3.org/2000/svg" xmlns:xlink="http://www.w3.org/1999/xlink" clip-rule="evenodd" stroke-miterlimit="4.00" viewBox="0 0 1024 768"><desc>SVG generated by Keynote</desc><defs></defs><g transform="matrix(1.00, 0.00, -0.00, -1.00, 0.0, 768.0)"><path d="M 0.0 768.0 L 1024.0 768.0 L 1024.0 0.0 L 0.0 0.0 Z M 0.0 768.0 " fill="#FEFFFF"></path><image xlink:href="../../8E061879-9A75-42C7-8D21-63A5DFE34E30/assets/8D5D3AF820427992616EBBB33C0F5B4F.png" width="458.00" height="90.00" transform="matrix(0.60, 0.00, -0.00, -0.60, 11.0, 67.0)"></image><text xml:space="preserve" font-family="Helvetica-Light" font-size="80.0" fill="#000000" transform="matrix(1.00, 0.00, -0.00, -1.00, 183.0, 618.0)">d</text><text xml:space="preserve" font-family="Helvetica-Light" font-size="80.0" fill="#000000" transform="matrix(1.00, 0.00, -0.00, -1.00, 231.9, 618.0)">a</text><text xml:space="preserve" font-family="Helvetica-Light" font-size="80.0" fill="#000000" transform="matrix(1.00, 0.00, -0.00, -1.00, 276.4, 618.0)">n</text><text xml:space="preserve" font-family="Helvetica-Light" font-size="80.0" fill="#000000" transform="matrix(1.00, 0.00, -0.00, -1.00, 320.8, 618.0)">s</text><text xml:space="preserve" font-family="Helvetica-Light" font-size="80.0" fill="#000000" transform="matrix(1.00, 0.00, -0.00, -1.00, 360.8, 618.0)"> </text><text xml:space="preserve" font-family="Helvetica-Light" font-size="80.0" fill="#000000" transform="matrix(1.00, 0.00, -0.00, -1.00, 383.1, 618.0)">l</text><text xml:space="preserve" font-family="Helvetica-Light" font-size="80.0" fill="#000000" transform="matrix(1.00, 0.00, -0.00, -1.00, 400.8, 618.0)">e</text><text xml:space="preserve" font-family="Helvetica-Light" font-size="80.0" fill="#000000" transform="matrix(1.00, 0.00, -0.00, -1.00, 445.3, 618.0)">s</text><text xml:space="preserve" font-family="Helvetica-Light" font-size="80.0" fill="#000000" transform="matrix(1.00, 0.00, -0.00, -1.00, 485.3, 618.0)"> </text><text xml:space="preserve" font-family="Helvetica-Light" font-size="80.0" fill="#000000" transform="matrix(1.00, 0.00, -0.00, -1.00, 507.6, 618.0)">c</text><text xml:space="preserve" font-family="Helvetica-Light" font-size="80.0" fill="#000000" transform="matrix(1.00, 0.00, -0.00, -1.00, 552.0, 618.0)">o</text><text xml:space="preserve" font-family="Helvetica-Light" font-size="80.0" fill="#000000" transform="matrix(1.00, 0.00, -0.00, -1.00, 596.5, 618.0)">u</text><text xml:space="preserve" font-family="Helvetica-Light" font-size="80.0" fill="#000000" transform="matrix(1.00, 0.00, -0.00, -1.00, 641.0, 618.0)">l</text><text xml:space="preserve" font-family="Helvetica-Light" font-size="80.0" fill="#000000" transform="matrix(1.00, 0.00, -0.00, -1.00, 658.8, 618.0)">i</text><text xml:space="preserve" font-family="Helvetica-Light" font-size="80.0" fill="#000000" transform="matrix(1.00, 0.00, -0.00, -1.00, 676.5, 618.0)">s</text><text xml:space="preserve" font-family="Helvetica-Light" font-size="80.0" fill="#000000" transform="matrix(1.00, 0.00, -0.00, -1.00, 716.5, 618.0)">s</text><text xml:space="preserve" font-family="Helvetica-Light" font-size="80.0" fill="#000000" transform="matrix(1.00, 0.00, -0.00, -1.00, 756.5, 618.0)">e</text><text xml:space="preserve" font-family="Helvetica-Light" font-size="80.0" fill="#000000" transform="matrix(1.00, 0.00, -0.00, -1.00, 801.0, 618.0)">s</text><text xml:space="preserve" font-family="Menlo-Regular" font-size="23.0" fill="#000000" transform="matrix(1.00, 0.00, -0.00, -1.00, 79.0, 398.0)">b</text><text xml:space="preserve" font-family="Menlo-Regular" font-size="23.0" fill="#000000" transform="matrix(1.00, 0.00, -0.00, -1.00, 92.8, 398.0)">a</text><text xml:space="preserve" font-family="Menlo-Regular" font-size="23.0" fill="#000000" transform="matrix(1.00, 0.00, -0.00, -1.00, 106.7, 398.0)">s</text><text xml:space="preserve" font-family="Menlo-Regular" font-size="23.0" fill="#000000" transform="matrix(1.00, 0.00, -0.00, -1.00, 120.5, 398.0)">e</text><text xml:space="preserve" font-family="Menlo-Regular" font-size="23.0" fill="#000000" transform="matrix(1.00, 0.00, -0.00, -1.00, 134.4, 398.0)">.</text><text xml:space="preserve" font-family="Menlo-Regular" font-size="23.0" fill="#000000" transform="matrix(1.00, 0.00, -0.00, -1.00, 148.2, 398.0)">a</text><text xml:space="preserve" font-family="Menlo-Regular" font-size="23.0" fill="#000000" transform="matrix(1.00, 0.00, -0.00, -1.00, 162.1, 398.0)">u</text><text xml:space="preserve" font-family="Menlo-Regular" font-size="23.0" fill="#000000" transform="matrix(1.00, 0.00, -0.00, -1.00, 175.9, 398.0)">t</text><text xml:space="preserve" font-family="Menlo-Regular" font-size="23.0" fill="#000000" transform="matrix(1.00, 0.00, -0.00, -1.00, 189.8, 398.0)">h</text><text xml:space="preserve" font-family="Menlo-Regular" font-size="23.0" fill="#000000" transform="matrix(1.00, 0.00, -0.00, -1.00, 203.6, 398.0)">W</text><text xml:space="preserve" font-family="Menlo-Regular" font-size="23.0" fill="#000000" transform="matrix(1.00, 0.00, -0.00, -1.00, 217.5, 398.0)">i</text><text xml:space="preserve" font-family="Menlo-Regular" font-size="23.0" fill="#000000" transform="matrix(1.00, 0.00, -0.00, -1.00, 231.3, 398.0)">t</text><text xml:space="preserve" font-family="Menlo-Regular" font-size="23.0" fill="#000000" transform="matrix(1.00, 0.00, -0.00, -1.00, 245.2, 398.0)">h</text><text xml:space="preserve" font-family="Menlo-Regular" font-size="23.0" fill="#000000" transform="matrix(1.00, 0.00, -0.00, -1.00, 259.0, 398.0)">O</text><text xml:space="preserve" font-family="Menlo-Regular" font-size="23.0" fill="#000000" transform="matrix(1.00, 0.00, -0.00, -1.00, 272.9, 398.0)">A</text><text xml:space="preserve" font-family="Menlo-Regular" font-size="23.0" fill="#000000" transform="matrix(1.00, 0.00, -0.00, -1.00, 286.7, 398.0)">u</text><text xml:space="preserve" font-family="Menlo-Regular" font-size="23.0" fill="#000000" transform="matrix(1.00, 0.00, -0.00, -1.00, 300.6, 398.0)">t</text><text xml:space="preserve" font-family="Menlo-Regular" font-size="23.0" fill="#000000" transform="matrix(1.00, 0.00, -0.00, -1.00, 314.4, 398.0)">h</text><text xml:space="preserve" font-family="Menlo-Regular" font-size="23.0" fill="#000000" transform="matrix(1.00, 0.00, -0.00, -1.00, 328.3, 398.0)">P</text><text xml:space="preserve" font-family="Menlo-Regular" font-size="23.0" fill="#000000" transform="matrix(1.00, 0.00, -0.00, -1.00, 342.1, 398.0)">o</text><text xml:space="preserve" font-family="Menlo-Regular" font-size="23.0" fill="#000000" transform="matrix(1.00, 0.00, -0.00, -1.00, 356.0, 398.0)">p</text><text xml:space="preserve" font-family="Menlo-Regular" font-size="23.0" fill="#000000" transform="matrix(1.00, 0.00, -0.00, -1.00, 369.8, 398.0)">u</text><text xml:space="preserve" font-family="Menlo-Regular" font-size="23.0" fill="#000000" transform="matrix(1.00, 0.00, -0.00, -1.00, 383.7, 398.0)">p</text><text xml:space="preserve" font-family="Menlo-Regular" font-size="23.0" fill="#000000" transform="matrix(1.00, 0.00, -0.00, -1.00, 397.5, 398.0)">(</text><text xml:space="preserve" font-family="Menlo-Regular" font-size="23.0" fill="#000000" transform="matrix(1.00, 0.00, -0.00, -1.00, 411.4, 398.0)">s</text><text xml:space="preserve" font-family="Menlo-Regular" font-size="23.0" fill="#000000" transform="matrix(1.00, 0.00, -0.00, -1.00, 425.2, 398.0)">e</text><text xml:space="preserve" font-family="Menlo-Regular" font-size="23.0" fill="#000000" transform="matrix(1.00, 0.00, -0.00, -1.00, 439.1, 398.0)">r</text><text xml:space="preserve" font-family="Menlo-Regular" font-size="23.0" fill="#000000" transform="matrix(1.00, 0.00, -0.00, -1.00, 452.9, 398.0)">v</text><text xml:space="preserve" font-family="Menlo-Regular" font-size="23.0" fill="#000000" transform="matrix(1.00, 0.00, -0.00, -1.00, 466.8, 398.0)">i</text><text xml:space="preserve" font-family="Menlo-Regular" font-size="23.0" fill="#000000" transform="matrix(1.00, 0.00, -0.00, -1.00, 480.6, 398.0)">c</text><text xml:space="preserve" font-family="Menlo-Regular" font-size="23.0" fill="#000000" transform="matrix(1.00, 0.00, -0.00, -1.00, 494.5, 398.0)">e</text><text xml:space="preserve" font-family="Menlo-Regular" font-size="23.0" fill="#000000" transform="matrix(1.00, 0.00, -0.00, -1.00, 508.3, 398.0)">,</text><text xml:space="preserve" font-family="Menlo-Regular" font-size="23.0" fill="#000000" transform="matrix(1.00, 0.00, -0.00, -1.00, 522.2, 398.0)"> </text><text xml:space="preserve" font-family="Menlo-Bold" font-weight="bold" font-size="23.0" fill="#008E00" transform="matrix(1.00, 0.00, -0.00, -1.00, 536.0, 398.0)">f</text><text xml:space="preserve" font-family="Menlo-Bold" font-weight="bold" font-size="23.0" fill="#008E00" transform="matrix(1.00, 0.00, -0.00, -1.00, 549.8, 398.0)">u</text><text xml:space="preserve" font-family="Menlo-Bold" font-weight="bold" font-size="23.0" fill="#008E00" transform="matrix(1.00, 0.00, -0.00, -1.00, 563.7, 398.0)">n</text><text xml:space="preserve" font-family="Menlo-Bold" font-weight="bold" font-size="23.0" fill="#008E00" transform="matrix(1.00, 0.00, -0.00, -1.00, 577.5, 398.0)">c</text><text xml:space="preserve" font-family="Menlo-Bold" font-weight="bold" font-size="23.0" fill="#008E00" transform="matrix(1.00, 0.00, -0.00, -1.00, 591.4, 398.0)">t</text><text xml:space="preserve" font-family="Menlo-Bold" font-weight="bold" font-size="23.0" fill="#008E00" transform="matrix(1.00, 0.00, -0.00, -1.00, 605.2, 398.0)">i</text><text xml:space="preserve" font-family="Menlo-Bold" font-weight="bold" font-size="23.0" fill="#008E00" transform="matrix(1.00, 0.00, -0.00, -1.00, 619.1, 398.0)">o</text><text xml:space="preserve" font-family="Menlo-Bold" font-weight="bold" font-size="23.0" fill="#008E00" transform="matrix(1.00, 0.00, -0.00, -1.00, 632.9, 398.0)">n</text><text xml:space="preserve" font-family="Menlo-Regular" font-size="23.0" fill="#000000" transform="matrix(1.00, 0.00, -0.00, -1.00, 646.7, 398.0)">(</text><text xml:space="preserve" font-family="Menlo-Regular" font-size="23.0" fill="#000000" transform="matrix(1.00, 0.00, -0.00, -1.00, 660.6, 398.0)">e</text><text xml:space="preserve" font-family="Menlo-Regular" font-size="23.0" fill="#000000" transform="matrix(1.00, 0.00, -0.00, -1.00, 674.4, 398.0)">r</text><text xml:space="preserve" font-family="Menlo-Regular" font-size="23.0" fill="#000000" transform="matrix(1.00, 0.00, -0.00, -1.00, 688.3, 398.0)">r</text><text xml:space="preserve" font-family="Menlo-Regular" font-size="23.0" fill="#000000" transform="matrix(1.00, 0.00, -0.00, -1.00, 702.1, 398.0)">o</text><text xml:space="preserve" font-family="Menlo-Regular" font-size="23.0" fill="#000000" transform="matrix(1.00, 0.00, -0.00, -1.00, 716.0, 398.0)">r</text><text xml:space="preserve" font-family="Menlo-Regular" font-size="23.0" fill="#000000" transform="matrix(1.00, 0.00, -0.00, -1.00, 729.8, 398.0)">,</text><text xml:space="preserve" font-family="Menlo-Regular" font-size="23.0" fill="#000000" transform="matrix(1.00, 0.00, -0.00, -1.00, 743.7, 398.0)"> </text><text xml:space="preserve" font-family="Menlo-Regular" font-size="23.0" fill="#000000" transform="matrix(1.00, 0.00, -0.00, -1.00, 757.5, 398.0)">a</text><text xml:space="preserve" font-family="Menlo-Regular" font-size="23.0" fill="#000000" transform="matrix(1.00, 0.00, -0.00, -1.00, 771.4, 398.0)">u</text><text xml:space="preserve" font-family="Menlo-Regular" font-size="23.0" fill="#000000" transform="matrix(1.00, 0.00, -0.00, -1.00, 785.2, 398.0)">t</text><text xml:space="preserve" font-family="Menlo-Regular" font-size="23.0" fill="#000000" transform="matrix(1.00, 0.00, -0.00, -1.00, 799.1, 398.0)">h</text><text xml:space="preserve" font-family="Menlo-Regular" font-size="23.0" fill="#000000" transform="matrix(1.00, 0.00, -0.00, -1.00, 812.9, 398.0)">D</text><text xml:space="preserve" font-family="Menlo-Regular" font-size="23.0" fill="#000000" transform="matrix(1.00, 0.00, -0.00, -1.00, 826.8, 398.0)">a</text><text xml:space="preserve" font-family="Menlo-Regular" font-size="23.0" fill="#000000" transform="matrix(1.00, 0.00, -0.00, -1.00, 840.6, 398.0)">t</text><text xml:space="preserve" font-family="Menlo-Regular" font-size="23.0" fill="#000000" transform="matrix(1.00, 0.00, -0.00, -1.00, 854.5, 398.0)">a</text><text xml:space="preserve" font-family="Menlo-Regular" font-size="23.0" fill="#000000" transform="matrix(1.00, 0.00, -0.00, -1.00, 868.3, 398.0)">)</text><text xml:space="preserve" font-family="Menlo-Regular" font-size="23.0" fill="#000000" transform="matrix(1.00, 0.00, -0.00, -1.00, 882.2, 398.0)"> </text><text xml:space="preserve" font-family="Menlo-Regular" font-size="23.0" fill="#000000" transform="matrix(1.00, 0.00, -0.00, -1.00, 896.0, 398.0)">{</text><text xml:space="preserve" font-family="Menlo-Regular" font-size="23.0" fill="#000000" transform="matrix(1.00, 0.00, -0.00, -1.00, 909.9, 398.0)"> </text><text xml:space="preserve" font-family="Menlo-Regular" font-size="23.0" fill="#000000" transform="matrix(1.00, 0.00, -0.00, -1.00, 79.0, 372.0)"> </text><text xml:space="preserve" font-family="Menlo-Regular" font-size="23.0" fill="#000000" transform="matrix(1.00, 0.00, -0.00, -1.00, 92.8, 372.0)"> </text><text xml:space="preserve" font-family="Menlo-Bold" font-weight="bold" font-size="23.0" fill="#008E00" transform="matrix(1.00, 0.00, -0.00, -1.00, 106.7, 372.0)">i</text><text xml:space="preserve" font-family="Menlo-Bold" font-weight="bold" font-size="23.0" fill="#008E00" transform="matrix(1.00, 0.00, -0.00, -1.00, 120.5, 372.0)">f</text><text xml:space="preserve" font-family="Menlo-Regular" font-size="23.0" fill="#000000" transform="matrix(1.00, 0.00, -0.00, -1.00, 134.4, 372.0)"> </text><text xml:space="preserve" font-family="Menlo-Regular" font-size="23.0" fill="#000000" transform="matrix(1.00, 0.00, -0.00, -1.00, 148.2, 372.0)">(</text><text xml:space="preserve" font-family="Menlo-Regular" font-size="23.0" fill="#000000" transform="matrix(1.00, 0.00, -0.00, -1.00, 162.1, 372.0)">e</text><text xml:space="preserve" font-family="Menlo-Regular" font-size="23.0" fill="#000000" transform="matrix(1.00, 0.00, -0.00, -1.00, 175.9, 372.0)">r</text><text xml:space="preserve" font-family="Menlo-Regular" font-size="23.0" fill="#000000" transform="matrix(1.00, 0.00, -0.00, -1.00, 189.8, 372.0)">r</text><text xml:space="preserve" font-family="Menlo-Regular" font-size="23.0" fill="#000000" transform="matrix(1.00, 0.00, -0.00, -1.00, 203.6, 372.0)">o</text><text xml:space="preserve" font-family="Menlo-Regular" font-size="23.0" fill="#000000" transform="matrix(1.00, 0.00, -0.00, -1.00, 217.5, 372.0)">r</text><text xml:space="preserve" font-family="Menlo-Regular" font-size="23.0" fill="#000000" transform="matrix(1.00, 0.00, -0.00, -1.00, 231.3, 372.0)">)</text><text xml:space="preserve" font-family="Menlo-Regular" font-size="23.0" fill="#000000" transform="matrix(1.00, 0.00, -0.00, -1.00, 245.2, 372.0)"> </text><text xml:space="preserve" font-family="Menlo-Regular" font-size="23.0" fill="#000000" transform="matrix(1.00, 0.00, -0.00, -1.00, 259.0, 372.0)">{</text><text xml:space="preserve" font-family="Menlo-Regular" font-size="23.0" fill="#000000" transform="matrix(1.00, 0.00, -0.00, -1.00, 272.9, 372.0)"> </text><text xml:space="preserve" font-family="Menlo-Regular" font-size="23.0" fill="#000000" transform="matrix(1.00, 0.00, -0.00, -1.00, 79.0, 346.0)"> </text><text xml:space="preserve" font-family="Menlo-Regular" font-size="23.0" fill="#000000" transform="matrix(1.00, 0.00, -0.00, -1.00, 92.8, 346.0)"> </text><text xml:space="preserve" font-family="Menlo-Regular" font-size="23.0" fill="#000000" transform="matrix(1.00, 0.00, -0.00, -1.00, 106.7, 346.0)"> </text><text xml:space="preserve" font-family="Menlo-Regular" font-size="23.0" fill="#000000" transform="matrix(1.00, 0.00, -0.00, -1.00, 120.5, 346.0)"> </text><text xml:space="preserve" font-family="Menlo-Regular" font-size="23.0" fill="#000000" transform="matrix(1.00, 0.00, -0.00, -1.00, 134.4, 346.0)">c</text><text xml:space="preserve" font-family="Menlo-Regular" font-size="23.0" fill="#000000" transform="matrix(1.00, 0.00, -0.00, -1.00, 148.2, 346.0)">o</text><text xml:space="preserve" font-family="Menlo-Regular" font-size="23.0" fill="#000000" transform="matrix(1.00, 0.00, -0.00, -1.00, 162.1, 346.0)">n</text><text xml:space="preserve" font-family="Menlo-Regular" font-size="23.0" fill="#000000" transform="matrix(1.00, 0.00, -0.00, -1.00, 175.9, 346.0)">s</text><text xml:space="preserve" font-family="Menlo-Regular" font-size="23.0" fill="#000000" transform="matrix(1.00, 0.00, -0.00, -1.00, 189.8, 346.0)">o</text><text xml:space="preserve" font-family="Menlo-Regular" font-size="23.0" fill="#000000" transform="matrix(1.00, 0.00, -0.00, -1.00, 203.6, 346.0)">l</text><text xml:space="preserve" font-family="Menlo-Regular" font-size="23.0" fill="#000000" transform="matrix(1.00, 0.00, -0.00, -1.00, 217.5, 346.0)">e</text><text xml:space="preserve" font-family="Menlo-Regular" font-size="23.0" fill="#000000" transform="matrix(1.00, 0.00, -0.00, -1.00, 231.3, 346.0)">.</text><text xml:space="preserve" font-family="Menlo-Regular" font-size="23.0" fill="#000000" transform="matrix(1.00, 0.00, -0.00, -1.00, 245.2, 346.0)">w</text><text xml:space="preserve" font-family="Menlo-Regular" font-size="23.0" fill="#000000" transform="matrix(1.00, 0.00, -0.00, -1.00, 259.0, 346.0)">a</text><text xml:space="preserve" font-family="Menlo-Regular" font-size="23.0" fill="#000000" transform="matrix(1.00, 0.00, -0.00, -1.00, 272.9, 346.0)">r</text><text xml:space="preserve" font-family="Menlo-Regular" font-size="23.0" fill="#000000" transform="matrix(1.00, 0.00, -0.00, -1.00, 286.7, 346.0)">n</text><text xml:space="preserve" font-family="Menlo-Regular" font-size="23.0" fill="#000000" transform="matrix(1.00, 0.00, -0.00, -1.00, 300.6, 346.0)">(</text><text xml:space="preserve" font-family="Menlo-Regular" font-size="23.0" fill="#C8352B" transform="matrix(1.00, 0.00, -0.00, -1.00, 314.4, 346.0)">'</text><text xml:space="preserve" font-family="Menlo-Regular" font-size="23.0" fill="#C8352B" transform="matrix(1.00, 0.00, -0.00, -1.00, 328.3, 346.0)">L</text><text xml:space="preserve" font-family="Menlo-Regular" font-size="23.0" fill="#C8352B" transform="matrix(1.00, 0.00, -0.00, -1.00, 342.1, 346.0)">o</text><text xml:space="preserve" font-family="Menlo-Regular" font-size="23.0" fill="#C8352B" transform="matrix(1.00, 0.00, -0.00, -1.00, 356.0, 346.0)">g</text><text xml:space="preserve" font-family="Menlo-Regular" font-size="23.0" fill="#C8352B" transform="matrix(1.00, 0.00, -0.00, -1.00, 369.8, 346.0)">i</text><text xml:space="preserve" font-family="Menlo-Regular" font-size="23.0" fill="#C8352B" transform="matrix(1.00, 0.00, -0.00, -1.00, 383.6, 346.0)">n</text><text xml:space="preserve" font-family="Menlo-Regular" font-size="23.0" fill="#C8352B" transform="matrix(1.00, 0.00, -0.00, -1.00, 397.5, 346.0)"> </text><text xml:space="preserve" font-family="Menlo-Regular" font-size="23.0" fill="#C8352B" transform="matrix(1.00, 0.00, -0.00, -1.00, 411.3, 346.0)">F</text><text xml:space="preserve" font-family="Menlo-Regular" font-size="23.0" fill="#C8352B" transform="matrix(1.00, 0.00, -0.00, -1.00, 425.2, 346.0)">a</text><text xml:space="preserve" font-family="Menlo-Regular" font-size="23.0" fill="#C8352B" transform="matrix(1.00, 0.00, -0.00, -1.00, 439.0, 346.0)">i</text><text xml:space="preserve" font-family="Menlo-Regular" font-size="23.0" fill="#C8352B" transform="matrix(1.00, 0.00, -0.00, -1.00, 452.9, 346.0)">l</text><text xml:space="preserve" font-family="Menlo-Regular" font-size="23.0" fill="#C8352B" transform="matrix(1.00, 0.00, -0.00, -1.00, 466.7, 346.0)">e</text><text xml:space="preserve" font-family="Menlo-Regular" font-size="23.0" fill="#C8352B" transform="matrix(1.00, 0.00, -0.00, -1.00, 480.6, 346.0)">d</text><text xml:space="preserve" font-family="Menlo-Regular" font-size="23.0" fill="#C8352B" transform="matrix(1.00, 0.00, -0.00, -1.00, 494.4, 346.0)">!</text><text xml:space="preserve" font-family="Menlo-Regular" font-size="23.0" fill="#C8352B" transform="matrix(1.00, 0.00, -0.00, -1.00, 508.3, 346.0)">'</text><text xml:space="preserve" font-family="Menlo-Regular" font-size="23.0" fill="#000000" transform="matrix(1.00, 0.00, -0.00, -1.00, 522.1, 346.0)">,</text><text xml:space="preserve" font-family="Menlo-Regular" font-size="23.0" fill="#000000" transform="matrix(1.00, 0.00, -0.00, -1.00, 536.0, 346.0)"> </text><text xml:space="preserve" font-family="Menlo-Regular" font-size="23.0" fill="#000000" transform="matrix(1.00, 0.00, -0.00, -1.00, 549.8, 346.0)">e</text><text xml:space="preserve" font-family="Menlo-Regular" font-size="23.0" fill="#000000" transform="matrix(1.00, 0.00, -0.00, -1.00, 563.7, 346.0)">r</text><text xml:space="preserve" font-family="Menlo-Regular" font-size="23.0" fill="#000000" transform="matrix(1.00, 0.00, -0.00, -1.00, 577.5, 346.0)">r</text><text xml:space="preserve" font-family="Menlo-Regular" font-size="23.0" fill="#000000" transform="matrix(1.00, 0.00, -0.00, -1.00, 591.4, 346.0)">o</text><text xml:space="preserve" font-family="Menlo-Regular" font-size="23.0" fill="#000000" transform="matrix(1.00, 0.00, -0.00, -1.00, 605.2, 346.0)">r</text><text xml:space="preserve" font-family="Menlo-Regular" font-size="23.0" fill="#000000" transform="matrix(1.00, 0.00, -0.00, -1.00, 619.1, 346.0)">)</text><text xml:space="preserve" font-family="Menlo-Regular" font-size="23.0" fill="#000000" transform="matrix(1.00, 0.00, -0.00, -1.00, 632.9, 346.0)">;</text><text xml:space="preserve" font-family="Menlo-Regular" font-size="23.0" fill="#000000" transform="matrix(1.00, 0.00, -0.00, -1.00, 646.8, 346.0)"> </text><text xml:space="preserve" font-family="Menlo-Regular" font-size="23.0" fill="#000000" transform="matrix(1.00, 0.00, -0.00, -1.00, 79.0, 320.0)"> </text><text xml:space="preserve" font-family="Menlo-Regular" font-size="23.0" fill="#000000" transform="matrix(1.00, 0.00, -0.00, -1.00, 92.8, 320.0)"> </text><text xml:space="preserve" font-family="Menlo-Regular" font-size="23.0" fill="#000000" transform="matrix(1.00, 0.00, -0.00, -1.00, 106.7, 320.0)">}</text><text xml:space="preserve" font-family="Menlo-Regular" font-size="23.0" fill="#000000" transform="matrix(1.00, 0.00, -0.00, -1.00, 120.5, 320.0)"> </text><text xml:space="preserve" font-family="Menlo-Bold" font-weight="bold" font-size="23.0" fill="#008E00" transform="matrix(1.00, 0.00, -0.00, -1.00, 134.4, 320.0)">e</text><text xml:space="preserve" font-family="Menlo-Bold" font-weight="bold" font-size="23.0" fill="#008E00" transform="matrix(1.00, 0.00, -0.00, -1.00, 148.2, 320.0)">l</text><text xml:space="preserve" font-family="Menlo-Bold" font-weight="bold" font-size="23.0" fill="#008E00" transform="matrix(1.00, 0.00, -0.00, -1.00, 162.1, 320.0)">s</text><text xml:space="preserve" font-family="Menlo-Bold" font-weight="bold" font-size="23.0" fill="#008E00" transform="matrix(1.00, 0.00, -0.00, -1.00, 175.9, 320.0)">e</text><text xml:space="preserve" font-family="Menlo-Regular" font-size="23.0" fill="#000000" transform="matrix(1.00, 0.00, -0.00, -1.00, 189.8, 320.0)"> </text><text xml:space="preserve" font-family="Menlo-Regular" font-size="23.0" fill="#000000" transform="matrix(1.00, 0.00, -0.00, -1.00, 203.6, 320.0)">{</text><text xml:space="preserve" font-family="Menlo-Regular" font-size="23.0" fill="#000000" transform="matrix(1.00, 0.00, -0.00, -1.00, 217.5, 320.0)"> </text><text xml:space="preserve" font-family="Menlo-Regular" font-size="23.0" fill="#000000" transform="matrix(1.00, 0.00, -0.00, -1.00, 79.0, 294.0)"> </text><text xml:space="preserve" font-family="Menlo-Regular" font-size="23.0" fill="#000000" transform="matrix(1.00, 0.00, -0.00, -1.00, 92.8, 294.0)"> </text><text xml:space="preserve" font-family="Menlo-Regular" font-size="23.0" fill="#000000" transform="matrix(1.00, 0.00, -0.00, -1.00, 106.7, 294.0)"> </text><text xml:space="preserve" font-family="Menlo-Regular" font-size="23.0" fill="#000000" transform="matrix(1.00, 0.00, -0.00, -1.00, 120.5, 294.0)"> </text><text xml:space="preserve" font-family="Menlo-Regular" font-size="23.0" fill="#000000" transform="matrix(1.00, 0.00, -0.00, -1.00, 134.4, 294.0)">l</text><text xml:space="preserve" font-family="Menlo-Regular" font-size="23.0" fill="#000000" transform="matrix(1.00, 0.00, -0.00, -1.00, 148.2, 294.0)">o</text><text xml:space="preserve" font-family="Menlo-Regular" font-size="23.0" fill="#000000" transform="matrix(1.00, 0.00, -0.00, -1.00, 162.1, 294.0)">c</text><text xml:space="preserve" font-family="Menlo-Regular" font-size="23.0" fill="#000000" transform="matrix(1.00, 0.00, -0.00, -1.00, 175.9, 294.0)">a</text><text xml:space="preserve" font-family="Menlo-Regular" font-size="23.0" fill="#000000" transform="matrix(1.00, 0.00, -0.00, -1.00, 189.8, 294.0)">t</text><text xml:space="preserve" font-family="Menlo-Regular" font-size="23.0" fill="#000000" transform="matrix(1.00, 0.00, -0.00, -1.00, 203.6, 294.0)">i</text><text xml:space="preserve" font-family="Menlo-Regular" font-size="23.0" fill="#000000" transform="matrix(1.00, 0.00, -0.00, -1.00, 217.5, 294.0)">o</text><text xml:space="preserve" font-family="Menlo-Regular" font-size="23.0" fill="#000000" transform="matrix(1.00, 0.00, -0.00, -1.00, 231.3, 294.0)">n</text><text xml:space="preserve" font-family="Menlo-Regular" font-size="23.0" fill="#000000" transform="matrix(1.00, 0.00, -0.00, -1.00, 245.2, 294.0)">.</text><text xml:space="preserve" font-family="Menlo-Regular" font-size="23.0" fill="#000000" transform="matrix(1.00, 0.00, -0.00, -1.00, 259.0, 294.0)">h</text><text xml:space="preserve" font-family="Menlo-Regular" font-size="23.0" fill="#000000" transform="matrix(1.00, 0.00, -0.00, -1.00, 272.9, 294.0)">r</text><text xml:space="preserve" font-family="Menlo-Regular" font-size="23.0" fill="#000000" transform="matrix(1.00, 0.00, -0.00, -1.00, 286.7, 294.0)">e</text><text xml:space="preserve" font-family="Menlo-Regular" font-size="23.0" fill="#000000" transform="matrix(1.00, 0.00, -0.00, -1.00, 300.6, 294.0)">f</text><text xml:space="preserve" font-family="Menlo-Regular" font-size="23.0" fill="#000000" transform="matrix(1.00, 0.00, -0.00, -1.00, 314.4, 294.0)"> </text><text xml:space="preserve" font-family="Menlo-Regular" font-size="23.0" fill="#797979" transform="matrix(1.00, 0.00, -0.00, -1.00, 328.2, 294.0)">=</text><text xml:space="preserve" font-family="Menlo-Regular" font-size="23.0" fill="#000000" transform="matrix(1.00, 0.00, -0.00, -1.00, 342.1, 294.0)"> </text><text xml:space="preserve" font-family="Menlo-Regular" font-size="23.0" fill="#C8352B" transform="matrix(1.00, 0.00, -0.00, -1.00, 355.9, 294.0)">'</text><text xml:space="preserve" font-family="Menlo-Regular" font-size="23.0" fill="#C8352B" transform="matrix(1.00, 0.00, -0.00, -1.00, 369.8, 294.0)">.</text><text xml:space="preserve" font-family="Menlo-Regular" font-size="23.0" fill="#C8352B" transform="matrix(1.00, 0.00, -0.00, -1.00, 383.6, 294.0)">'</text><text xml:space="preserve" font-family="Menlo-Regular" font-size="23.0" fill="#000000" transform="matrix(1.00, 0.00, -0.00, -1.00, 397.5, 294.0)">;</text><text xml:space="preserve" font-family="Menlo-Regular" font-size="23.0" fill="#000000" transform="matrix(1.00, 0.00, -0.00, -1.00, 411.3, 294.0)"> </text><text xml:space="preserve" font-family="Menlo-Regular" font-size="23.0" fill="#000000" transform="matrix(1.00, 0.00, -0.00, -1.00, 79.0, 268.0)"> </text><text xml:space="preserve" font-family="Menlo-Regular" font-size="23.0" fill="#000000" transform="matrix(1.00, 0.00, -0.00, -1.00, 92.8, 268.0)"> </text><text xml:space="preserve" font-family="Menlo-Regular" font-size="23.0" fill="#000000" transform="matrix(1.00, 0.00, -0.00, -1.00, 106.7, 268.0)">}</text><text xml:space="preserve" font-family="Menlo-Regular" font-size="23.0" fill="#000000" transform="matrix(1.00, 0.00, -0.00, -1.00, 120.5, 268.0)"> </text><text xml:space="preserve" font-family="Menlo-Regular" font-size="23.0" fill="#000000" transform="matrix(1.00, 0.00, -0.00, -1.00, 79.0, 242.0)">}</text><text xml:space="preserve" font-family="Menlo-Regular" font-size="23.0" fill="#000000" transform="matrix(1.00, 0.00, -0.00, -1.00, 92.8, 242.0)">)</text><text xml:space="preserve" font-family="Menlo-Regular" font-size="23.0" fill="#000000" transform="matrix(1.00, 0.00, -0.00, -1.00, 106.7, 242.0)">;</text><text xml:space="preserve" font-family="Menlo-Regular" font-size="23.0" fill="#000000" transform="matrix(1.00, 0.00, -0.00, -1.00, 120.5, 242.0)"> </text></g></svg>