<?xml version="1.0" encoding="UTF-8" standalone="no"?><svg xmlns="http://www.w3.org/2000/svg" xmlns:xlink="http://www.w3.org/1999/xlink" clip-rule="evenodd" stroke-miterlimit="4.00" viewBox="0 0 209 27"><desc>SVG generated by Keynote</desc><defs></defs><g transform="matrix(1.00, 0.00, -0.00, -1.00, 0.0, 27.0)"><text xml:space="preserve" font-family="Helvetica-Light" font-size="31.7" fill="#000000" transform="matrix(1.00, 0.00, -0.00, -1.00, 0.0, 2.0)">a</text><text xml:space="preserve" font-family="Helvetica-Light" font-size="31.7" fill="#000000" transform="matrix(1.00, 0.00, -0.00, -1.00, 17.6, 2.0)">v</text><text xml:space="preserve" font-family="Helvetica-Light" font-size="31.7" fill="#000000" transform="matrix(1.00, 0.00, -0.00, -1.00, 33.5, 2.0)">a</text><text xml:space="preserve" font-family="Helvetica-Light" font-size="31.7" fill="#000000" transform="matrix(1.00, 0.00, -0.00, -1.00, 51.1, 2.0)">n</text><text xml:space="preserve" font-family="Helvetica-Light" font-size="31.7" fill="#000000" transform="matrix(1.00, 0.00, -0.00, -1.00, 68.7, 2.0)">t</text><text xml:space="preserve" font-family="Helvetica-Light" font-size="31.7" fill="#000000" transform="matrix(1.00, 0.00, -0.00, -1.00, 77.5, 2.0)"> </text><text xml:space="preserve" font-family="Helvetica-Light" font-size="31.7" fill="#000000" transform="matrix(1.00, 0.00, -0.00, -1.00, 86.3, 2.0)">F</text><text xml:space="preserve" font-family="Helvetica-Light" font-size="31.7" fill="#000000" transform="matrix(1.00, 0.00, -0.00, -1.00, 103.9, 2.0)">i</text><text xml:space="preserve" font-family="Helvetica-Light" font-size="31.7" fill="#000000" transform="matrix(1.00, 0.00, -0.00, -1.00, 110.9, 2.0)">r</text><text xml:space="preserve" font-family="Helvetica-Light" font-size="31.7" fill="#000000" transform="matrix(1.00, 0.00, -0.00, -1.00, 120.9, 2.0)">e</text><text xml:space="preserve" font-family="Helvetica-Light" font-size="31.7" fill="#000000" transform="matrix(1.00, 0.00, -0.00, -1.00, 138.5, 2.0)">b</text><text xml:space="preserve" font-family="Helvetica-Light" font-size="31.7" fill="#000000" transform="matrix(1.00, 0.00, -0.00, -1.00, 157.9, 2.0)">a</text><text xml:space="preserve" font-family="Helvetica-Light" font-size="31.7" fill="#000000" transform="matrix(1.00, 0.00, -0.00, -1.00, 175.5, 2.0)">s</text><text xml:space="preserve" font-family="Helvetica-Light" font-size="31.7" fill="#000000" transform="matrix(1.00, 0.00, -0.00, -1.00, 191.3, 2.0)">e</text></g></svg>