<?xml version="1.0" encoding="UTF-8" standalone="no"?><svg xmlns="http://www.w3.org/2000/svg" xmlns:xlink="http://www.w3.org/1999/xlink" clip-rule="evenodd" stroke-miterlimit="4.00" viewBox="0 0 1024 768"><desc>SVG generated by Keynote</desc><defs></defs><g transform="matrix(1.00, 0.00, -0.00, -1.00, 0.0, 768.0)"><path d="M 0.0 768.0 L 1024.0 768.0 L 1024.0 0.0 L 0.0 0.0 Z M 0.0 768.0 " fill="#FEFFFF"></path><text xml:space="preserve" font-family="Helvetica-Light" font-size="12.0" fill="#000000" transform="matrix(1.00, 0.00, -0.00, -1.00, 798.0, 21.0)">h</text><text xml:space="preserve" font-family="Helvetica-Light" font-size="12.0" fill="#000000" transform="matrix(1.00, 0.00, -0.00, -1.00, 804.7, 21.0)">t</text><text xml:space="preserve" font-family="Helvetica-Light" font-size="12.0" fill="#000000" transform="matrix(1.00, 0.00, -0.00, -1.00, 808.0, 21.0)">t</text><text xml:space="preserve" font-family="Helvetica-Light" font-size="12.0" fill="#000000" transform="matrix(1.00, 0.00, -0.00, -1.00, 811.3, 21.0)">p</text><text xml:space="preserve" font-family="Helvetica-Light" font-size="12.0" fill="#000000" transform="matrix(1.00, 0.00, -0.00, -1.00, 818.7, 21.0)">:</text><text xml:space="preserve" font-family="Helvetica-Light" font-size="12.0" fill="#000000" transform="matrix(1.00, 0.00, -0.00, -1.00, 822.0, 21.0)">/</text><text xml:space="preserve" font-family="Helvetica-Light" font-size="12.0" fill="#000000" transform="matrix(1.00, 0.00, -0.00, -1.00, 825.3, 21.0)">/</text><text xml:space="preserve" font-family="Helvetica-Light" font-size="12.0" fill="#000000" transform="matrix(1.00, 0.00, -0.00, -1.00, 828.7, 21.0)">c</text><text xml:space="preserve" font-family="Helvetica-Light" font-size="12.0" fill="#000000" transform="matrix(1.00, 0.00, -0.00, -1.00, 835.4, 21.0)">o</text><text xml:space="preserve" font-family="Helvetica-Light" font-size="12.0" fill="#000000" transform="matrix(1.00, 0.00, -0.00, -1.00, 842.0, 21.0)">d</text><text xml:space="preserve" font-family="Helvetica-Light" font-size="12.0" fill="#000000" transform="matrix(1.00, 0.00, -0.00, -1.00, 849.4, 21.0)">e</text><text xml:space="preserve" font-family="Helvetica-Light" font-size="12.0" fill="#000000" transform="matrix(1.00, 0.00, -0.00, -1.00, 856.0, 21.0)">p</text><text xml:space="preserve" font-family="Helvetica-Light" font-size="12.0" fill="#000000" transform="matrix(1.00, 0.00, -0.00, -1.00, 863.4, 21.0)">e</text><text xml:space="preserve" font-family="Helvetica-Light" font-size="12.0" fill="#000000" transform="matrix(1.00, 0.00, -0.00, -1.00, 870.0, 21.0)">n</text><text xml:space="preserve" font-family="Helvetica-Light" font-size="12.0" fill="#000000" transform="matrix(1.00, 0.00, -0.00, -1.00, 876.7, 21.0)">.</text><text xml:space="preserve" font-family="Helvetica-Light" font-size="12.0" fill="#000000" transform="matrix(1.00, 0.00, -0.00, -1.00, 880.0, 21.0)">i</text><text xml:space="preserve" font-family="Helvetica-Light" font-size="12.0" fill="#000000" transform="matrix(1.00, 0.00, -0.00, -1.00, 882.7, 21.0)">o</text><text xml:space="preserve" font-family="Helvetica-Light" font-size="12.0" fill="#000000" transform="matrix(1.00, 0.00, -0.00, -1.00, 889.4, 21.0)">/</text><text xml:space="preserve" font-family="Helvetica-Light" font-size="12.0" fill="#000000" transform="matrix(1.00, 0.00, -0.00, -1.00, 892.7, 21.0)">H</text><text xml:space="preserve" font-family="Helvetica-Light" font-size="12.0" fill="#000000" transform="matrix(1.00, 0.00, -0.00, -1.00, 901.4, 21.0)">a</text><text xml:space="preserve" font-family="Helvetica-Light" font-size="12.0" fill="#000000" transform="matrix(1.00, 0.00, -0.00, -1.00, 908.1, 21.0)">r</text><text xml:space="preserve" font-family="Helvetica-Light" font-size="12.0" fill="#000000" transform="matrix(1.00, 0.00, -0.00, -1.00, 911.8, 21.0)">o</text><text xml:space="preserve" font-family="Helvetica-Light" font-size="12.0" fill="#000000" transform="matrix(1.00, 0.00, -0.00, -1.00, 918.5, 21.0)">e</text><text xml:space="preserve" font-family="Helvetica-Light" font-size="12.0" fill="#000000" transform="matrix(1.00, 0.00, -0.00, -1.00, 925.2, 21.0)">n</text><text xml:space="preserve" font-family="Helvetica-Light" font-size="12.0" fill="#000000" transform="matrix(1.00, 0.00, -0.00, -1.00, 931.8, 21.0)">v</text><text xml:space="preserve" font-family="Helvetica-Light" font-size="12.0" fill="#000000" transform="matrix(1.00, 0.00, -0.00, -1.00, 937.8, 21.0)">/</text><text xml:space="preserve" font-family="Helvetica-Light" font-size="12.0" fill="#000000" transform="matrix(1.00, 0.00, -0.00, -1.00, 941.2, 21.0)">p</text><text xml:space="preserve" font-family="Helvetica-Light" font-size="12.0" fill="#000000" transform="matrix(1.00, 0.00, -0.00, -1.00, 948.5, 21.0)">e</text><text xml:space="preserve" font-family="Helvetica-Light" font-size="12.0" fill="#000000" transform="matrix(1.00, 0.00, -0.00, -1.00, 955.2, 21.0)">n</text><text xml:space="preserve" font-family="Helvetica-Light" font-size="12.0" fill="#000000" transform="matrix(1.00, 0.00, -0.00, -1.00, 961.9, 21.0)">/</text><text xml:space="preserve" font-family="Helvetica-Light" font-size="12.0" fill="#000000" transform="matrix(1.00, 0.00, -0.00, -1.00, 965.2, 21.0)">V</text><text xml:space="preserve" font-family="Helvetica-Light" font-size="12.0" fill="#000000" transform="matrix(1.00, 0.00, -0.00, -1.00, 972.5, 21.0)">K</text><text xml:space="preserve" font-family="Helvetica-Light" font-size="12.0" fill="#000000" transform="matrix(1.00, 0.00, -0.00, -1.00, 980.5, 21.0)">m</text><text xml:space="preserve" font-family="Helvetica-Light" font-size="12.0" fill="#000000" transform="matrix(1.00, 0.00, -0.00, -1.00, 990.5, 21.0)">x</text><text xml:space="preserve" font-family="Helvetica-Light" font-size="12.0" fill="#000000" transform="matrix(1.00, 0.00, -0.00, -1.00, 996.5, 21.0)">x</text><text xml:space="preserve" font-family="Helvetica-Light" font-size="12.0" fill="#000000" transform="matrix(1.00, 0.00, -0.00, -1.00, 1002.5, 21.0)">a</text><g><clipPath id="clip-19"><path d="M 796.7 18.6 L 1008.9 18.6 L 1008.9 21.2 L 796.7 21.2 Z M 796.7 18.6 "></path></clipPath><g clip-path="url(#clip-19)"><path d="M 4.5 16.2 L 215.7 16.2 " fill="none" stroke="#000000" stroke-width="0.60" stroke-miterlimit="0.00" transform="matrix(1.00, 0.00, 0.00, -1.00, 793.2, 36.1)"></path></g></g><image xlink:href="../../5200E406-5048-4838-B5D4-DD128D6EDD56/assets/96A1B06057608F747979680F6D3329EB.png" width="373.00" height="400.00" transform="matrix(1.00, 0.00, -0.00, -1.00, 325.0, 584.0)"></image></g></svg>